<?xml version="1.0" encoding="utf-8"?>
<!-- Generator: Adobe Illustrator 18.1.1, SVG Export Plug-In . SVG Version: 6.00 Build 0)  -->
<svg version="1.1" id="Шар_1" xmlns="http://www.w3.org/2000/svg" xmlns:xlink="http://www.w3.org/1999/xlink" x="0px" y="0px"
	 viewBox="0 0 50 50" enable-background="new 0 0 50 50" xml:space="preserve">
<g>
	<g>
		<path fill="#15161A" d="M9.6,11.1c0.6-1.4,1.7-2.4,3.2-2.9c1.5-0.5,3.1-0.4,4.6,0.4c0,0,0,0,0,0c0.3,0.2,0.6,0.3,0.9,0.6
			c3.1-2.8,8.5-3,13.4-0.5c4.8,2.5,7.8,7,7.3,11.2c0.1,0.1,0.3,0.1,0.4,0.2c1.5,0.8,2.5,2,3,3.6c0.4,1.5,0.2,3-0.6,4.3
			c-1.6,2.6-5.2,3.6-8,2.1c-1.4-0.7-2.5-2-2.9-3.5c-2.4,0.1-5.1-0.5-7.4-1.7c-2.6-1.3-4.7-3.3-6-5.5c-1.5,0.6-3.3,0.6-4.9-0.2
			c-0.9-0.5-1.6-1.1-2.2-1.9C9,15.2,8.7,13,9.6,11.1z M18,18.2c1.2,2.2,3.2,4.2,5.8,5.5c2.4,1.2,5,1.8,7.3,1.6
			c0.2,0,0.5,0.1,0.5,0.4c0.3,1.4,1.2,2.6,2.5,3.3c2.4,1.2,5.4,0.5,6.8-1.8c0.6-1.1,0.8-2.3,0.5-3.5c-0.4-1.3-1.2-2.3-2.5-2.9
			c-0.2-0.1-0.4-0.2-0.6-0.2l-0.1,0c-0.2-0.1-0.4-0.3-0.3-0.5c0.7-3.8-2.1-8.1-6.7-10.5c-4.6-2.4-9.9-2.1-12.6,0.6
			c-0.2,0.2-0.5,0.2-0.7,0c-0.4-0.3-0.7-0.6-1.1-0.7l0,0C15.6,8.7,14.3,8.6,13,9c-1.2,0.4-2.1,1.3-2.6,2.4c-1,2.4,0.1,5.3,2.5,6.5
			c1.4,0.7,3.1,0.8,4.4,0C17.6,17.9,17.8,18,18,18.2C18,18.2,18,18.2,18,18.2z"/>
		<path fill="#15161A" d="M11.3,16.8l0.6,0.5c0.3,0.3,0.7,0.5,1,0.7l0,0c1.4,0.7,3.1,0.8,4.4,0l0.4-0.2l0.2,0.4
			c1.2,2.2,3.2,4.2,5.8,5.5c2.4,1.2,5,1.8,7.3,1.6l0.4,0l0.1,0.4c0.3,1.4,1.2,2.6,2.5,3.3c0.5,0.3,1.1,0.5,1.8,0.5l0.9,0.1
			L24.3,43.2L7.5,34.5L11.3,16.8z M34.9,30.3c-0.4-0.1-0.8-0.3-1.2-0.5c-1.4-0.7-2.5-2-2.9-3.5c-2.4,0.1-5.1-0.5-7.4-1.7
			c-2.6-1.3-4.7-3.3-6-5.5c-1.5,0.6-3.3,0.6-4.9-0.2l0,0c-0.2-0.1-0.4-0.2-0.5-0.3L8.6,33.9l15.5,8L34.9,30.3z"/>
		
			<rect x="19.3" y="23.2" transform="matrix(-0.8872 -0.4613 0.4613 -0.8872 23.0111 68.1585)" fill="#15161A" width="1" height="16.1"/>
		
			<rect x="23.3" y="24.4" transform="matrix(-0.8455 -0.534 0.534 -0.8455 26.4275 73.3838)" fill="#15161A" width="1" height="17"/>
		
			<rect x="26.7" y="26.5" transform="matrix(-0.7788 -0.6272 0.6272 -0.7788 26.4985 79.0545)" fill="#15161A" width="1" height="16.8"/>
		
			<rect x="15.7" y="20.5" transform="matrix(-0.9228 -0.3853 0.3853 -0.9228 20.0802 61.8991)" fill="#15161A" width="1" height="17"/>
		
			<rect x="12.2" y="18.9" transform="matrix(-0.9609 -0.2769 0.2769 -0.9609 17.2958 57.1254)" fill="#15161A" width="1" height="16.8"/>
		
			<rect x="36.1" y="24.3" transform="matrix(-0.9967 -8.127218e-002 8.127218e-002 -0.9967 70.9898 53.5142)" fill="#15161A" width="1" height="2.1"/>
		
			<rect x="28.4" y="20.1" transform="matrix(-0.9817 0.1906 -0.1906 -0.9817 62.661 35.1432)" fill="#15161A" width="2.6" height="1"/>
		
			<rect x="32.7" y="15.2" transform="matrix(-0.8354 0.5496 -0.5496 -0.8354 70.273 13.0911)" fill="#15161A" width="1" height="3.8"/>
		
			<rect x="27.3" y="10.8" transform="matrix(-0.6739 -0.7388 0.7388 -0.6739 37.7451 40.4959)" fill="#15161A" width="1" height="2.3"/>
		
			<rect x="21.9" y="16.5" transform="matrix(-0.989 0.1478 -0.1478 -0.989 47.236 32.7677)" fill="#15161A" width="1" height="3.2"/>
		
			<rect x="18.9" y="12.7" transform="matrix(-0.9537 0.3006 -0.3006 -0.9537 43.3834 19.6323)" fill="#15161A" width="2.6" height="1"/>
		
			<rect x="13.4" y="12.4" transform="matrix(-0.8355 0.5495 -0.5495 -0.8355 32.9926 17.467)" fill="#15161A" width="1" height="2.6"/>
	</g>
</g>
</svg>
