<?xml version="1.0" encoding="utf-8"?>
<!-- Generator: Adobe Illustrator 18.1.1, SVG Export Plug-In . SVG Version: 6.00 Build 0)  -->
<svg version="1.1" id="Шар_1" xmlns="http://www.w3.org/2000/svg" xmlns:xlink="http://www.w3.org/1999/xlink" x="0px" y="0px"
	 viewBox="0 0 50 50" enable-background="new 0 0 50 50" xml:space="preserve">
<g>
	<g>
		<path fill="#15161A" d="M48.7,21.2c-0.4-0.1-0.8-0.2-1.2-0.3c-0.1,0-0.3-0.1-0.5-0.1c-0.1,0-0.2,0.1-0.2,0.2c0.1,0,0.2,0,0.3,0
			c-0.8-1-1.6-1.9-2.3-2.9c-0.1-0.2-0.2-0.3-0.3-0.5c-0.1-0.1-0.1-0.2-0.2-0.2c-0.1-0.1-0.3-0.1-0.4-0.1c-0.2,0-0.3-0.1-0.5-0.1
			c-0.3-0.1-0.7-0.1-1-0.2c-1.3-0.2-2.5-0.3-3.8-0.5c-0.6-0.1-1.2-0.1-1.9-0.2c-0.3,0-0.6-0.1-0.9-0.1c-0.1,0-0.2,0-0.3,0
			c-0.1,0-0.3,0.1-0.4,0.1c-1,0.4-1.8,1-2.8,1.4c0.1,0,0.2,0.1,0.3,0.1c-0.1-0.3-0.3-0.6-0.5-0.9c-0.2-0.3-0.4-0.5-0.6-0.7
			c-0.1-0.1-0.1-0.2-0.3-0.2c-0.2-0.1-0.4-0.1-0.6-0.1c-0.4-0.1-0.8-0.2-1.2-0.3c-0.8-0.2-1.5-0.3-2.3-0.4C26.9,15,26.5,15,26.1,15
			c-0.3,0-0.6,0.1-1,0.2c-0.4,0.1-0.8,0.3-1.3,0.4c-0.3,0.1-0.7,0.3-1,0.3c0.1,0,0.1,0.1,0.2,0.1c-0.2-0.3-0.4-0.5-0.6-0.8
			c-0.1-0.1-0.2-0.2-0.3-0.4c-0.1-0.1-0.2-0.2-0.2-0.2c0-0.1-0.1-0.2-0.2-0.2c-1-0.1-1.9-0.2-2.9-0.3c-0.5,0-0.9-0.1-1.4-0.1
			c-0.2,0-0.4,0-0.6,0c-0.2,0-0.5-0.1-0.7-0.1c-0.3,0-0.6,0.1-0.9,0.2c-0.4,0.1-0.9,0.2-1.3,0.3c-0.5,0.1-0.9,0.2-1.4,0.2
			c-0.2,0-0.4,0-0.6,0.1c-0.1,0-0.1,0.1-0.2,0.1c-0.1,0.1-0.2,0.1-0.3,0.2c-0.1,0.1-0.2,0.3-0.3,0.4c-0.3,0.3-0.5,0.6-0.8,1
			c0.1,0,0.2-0.1,0.3-0.1c-0.3-0.1-0.6-0.1-1-0.2c-0.3-0.1-0.7-0.2-1.1-0.1c-0.9,0.1-1.8,0.3-2.7,0.4c-0.4,0.1-0.9,0.2-1.3,0.3
			C4.4,16.8,4.2,17,4,17.3c-0.5,0.8-0.9,1.7-1.4,2.5C2.4,20.2,2.2,20.6,2,21c-0.1,0.1-0.1,0.2-0.2,0.3c0,0-0.1,0.1-0.1,0.1
			c0,0-0.1,0.1,0,0.1c0,0.1-0.2,0.1-0.3,0.1c-0.2,0.1-0.4,0.1-0.6,0.2c-0.2,0-0.4,0.1-0.6,0.2c-0.2,0.1-0.2,0.3-0.2,0.5
			c0,0.6,0,1.2,0,1.8c0,0.9,0,1.9,0,2.8c0,0.1,0.1,0.2,0.2,0.2c3.8,0.7,7.6,1.6,11.4,2.5c3.8,0.9,7.6,1.9,11.4,2.9
			c3.8,1.1,7.5,2.2,11.2,3.4c0.3,0.1,0.5,0,0.8-0.1c0.4-0.3,0.8-0.5,1.3-0.8c0.9-0.5,1.7-1,2.6-1.6c1.7-1,3.4-2.1,5.2-3.1
			c1.7-1,3.4-2.1,5.1-3.1c0.2-0.1,0.4-0.2,0.6-0.4c0.1-0.1,0.1-0.2,0.2-0.3c0.1-0.2,0-0.4,0-0.5c0-0.3-0.1-0.5-0.1-0.8
			c-0.2-1-0.3-1.9-0.5-2.9c-0.1-0.4-0.2-0.8-0.4-1.2c-0.1-0.3-0.5,0-0.4,0.2c0.4,0.7,0.4,1.6,0.6,2.4c0.1,0.9,0.3,1.8,0.4,2.7
			c0-0.1,0-0.1,0-0.2c0,0.1-0.1,0.2-0.1,0.2c-0.1,0.1-0.4,0.2-0.5,0.3c-0.4,0.2-0.8,0.5-1.1,0.7c-0.8,0.5-1.5,0.9-2.3,1.4
			c-1.5,0.9-3,1.9-4.6,2.8c-1.5,0.9-3,1.9-4.6,2.8c-0.4,0.2-0.8,0.5-1.1,0.7c-0.2,0.1-0.5,0.4-0.7,0.3c-0.1,0-0.4-0.1-0.5-0.2
			c-0.2-0.1-0.4-0.1-0.6-0.2c-0.4-0.1-0.9-0.3-1.3-0.4c-3.3-1-6.6-2-10-2.9c-3.4-0.9-6.7-1.8-10.1-2.6c-3.4-0.8-6.8-1.5-10.2-2.2
			C1.3,27.1,0.8,27,0.4,27c0.1,0.1,0.1,0.1,0.2,0.2c0-1.6,0-3.2,0-4.9c0,0.1,0,0.1-0.1,0.2c0.1-0.1,0.2-0.1,0.4-0.1
			c0.3-0.1,0.6-0.1,0.8-0.2C1.8,22.1,1.9,22,2,22c0.2-0.1,0.3-0.4,0.4-0.6c0.5-1,1.1-2.1,1.7-3.1c0.1-0.2,0.3-0.5,0.4-0.7
			C4.6,17.2,4.7,17.1,5,17c0.6-0.2,1.1-0.3,1.7-0.4c0.6-0.1,1.1-0.2,1.7-0.3c0.1,0,0.3-0.1,0.5-0.1c0.1,0,0.2,0,0.3,0
			c0.5,0.1,1,0.2,1.5,0.3c0.1,0,0.2,0,0.3-0.1c0.2-0.3,0.4-0.6,0.7-0.8c0.1-0.1,0.2-0.3,0.3-0.4c0,0,0.1-0.1,0.2-0.1
			c0.1,0,0.2-0.1,0.2-0.1c0.1,0,0.3,0,0.4-0.1c0.4-0.1,0.9-0.1,1.3-0.2c0.4-0.1,0.9-0.2,1.3-0.3c0.2-0.1,0.4-0.1,0.6-0.2
			c0.1,0,0.3-0.1,0.4-0.1c0.2,0,0.4,0.1,0.5,0.1c0.2,0,0.4,0,0.7,0.1c0.4,0,0.9,0.1,1.3,0.1c1,0.1,2.1,0.2,3.1,0.3
			c-0.1-0.1-0.1-0.1-0.2-0.2c0,0.2,0.1,0.3,0.2,0.4c0.2,0.2,0.3,0.4,0.5,0.6c0.1,0.2,0.3,0.5,0.4,0.6c0.1,0.1,0.2,0.1,0.3,0.1
			c0.2,0,0.4-0.1,0.6-0.2c0.2-0.1,0.4-0.2,0.6-0.2c0.5-0.2,0.9-0.3,1.4-0.4c0.2-0.1,0.4-0.1,0.6,0c0.3,0,0.5,0.1,0.8,0.1
			c0.5,0.1,0.9,0.1,1.4,0.2c1,0.2,1.9,0.4,2.9,0.6c0,0-0.1-0.1-0.1-0.1c0.2,0.3,0.4,0.4,0.6,0.7c0.2,0.3,0.4,0.7,0.5,1
			c0.1,0.1,0.2,0.1,0.3,0.1c0.5-0.3,1-0.5,1.5-0.8c0.3-0.2,0.6-0.3,0.9-0.5c0.1-0.1,0.3-0.2,0.5-0.2c-0.1,0,0,0,0.1,0
			c0.1,0,0.3,0,0.4,0c1.7,0.2,3.5,0.4,5.2,0.6c1,0.1,2,0.3,3,0.5c0,0-0.1-0.1-0.1-0.1c0.9,1.3,1.8,2.4,2.8,3.6
			c0.1,0.1,0.2,0.1,0.3,0c0,0,0.1-0.1,0.1-0.1c-0.1,0-0.1,0-0.2,0.1c0.5,0.2,1.1,0.3,1.6,0.5C48.9,21.7,49,21.3,48.7,21.2L48.7,21.2
			z"/>
	</g>
	<g>
		<path fill="#15161A" d="M48.5,21.6c-1.7,1.4-3.5,2.6-5.4,3.7c-1.9,1.1-3.8,2.2-5.7,3.3c-1.1,0.6-2.2,1.2-3.3,1.8
			c-0.1,0.1,0,0.3,0.1,0.2c1.9-1.1,3.9-2.2,5.9-3.3c1.9-1.1,3.8-2.2,5.6-3.4c1-0.7,2-1.4,3-2.2C48.7,21.6,48.6,21.5,48.5,21.6
			L48.5,21.6z"/>
	</g>
	<g>
		<path fill="#15161A" d="M47,21.1c-1.4,1-2.9,1.8-4.4,2.7c-0.4,0.2-0.8,0.5-1.2,0.7c-0.1,0.1,0,0.3,0.1,0.2
			c1.4-0.9,2.9-1.7,4.3-2.6c0.4-0.3,0.8-0.6,1.2-0.9C47.2,21.2,47.1,21,47,21.1L47,21.1z"/>
	</g>
	<g>
		<path fill="#15161A" d="M40.7,19.9c0.2,1.2,0.4,2.5,0.5,3.7c0,0.3,0.1,0.7,0.2,1c0,0.1,0.2,0.1,0.2-0.1c-0.2-1.2-0.4-2.5-0.5-3.7
			c0-0.3-0.1-0.7-0.2-1C40.9,19.7,40.7,19.8,40.7,19.9L40.7,19.9z"/>
	</g>
	<g>
		<path fill="#15161A" d="M32.6,17.8c-0.3,0.2-0.5,0.3-0.8,0.5c-0.1,0-0.1,0.1,0,0.2c0,0.1,0.1,0.1,0.2,0c0.3-0.2,0.5-0.3,0.8-0.5
			c0.1,0,0.1-0.1,0-0.2C32.8,17.8,32.7,17.8,32.6,17.8L32.6,17.8z"/>
	</g>
	<g>
		<path fill="#15161A" d="M31.8,18.4c-0.3,0.6-0.6,1.2-0.8,1.8c0,0.1,0.2,0.2,0.2,0.1c0.2-0.6,0.5-1.2,0.8-1.8
			C32,18.3,31.8,18.2,31.8,18.4L31.8,18.4z"/>
	</g>
	<g>
		<path fill="#15161A" d="M21.6,14.6c-1.1,0.4-2.2,0.8-3.3,1.2c-0.1,0-0.1,0.3,0.1,0.2c1.1-0.4,2.2-0.8,3.3-1.2
			C21.8,14.8,21.8,14.6,21.6,14.6L21.6,14.6z"/>
	</g>
	<g>
		<path fill="#15161A" d="M10.4,16.5c1.5,0.3,3,0.5,4.4,0.7c0.1,0,0.2-0.2,0.1-0.2c-1.5-0.2-3-0.4-4.4-0.7
			C10.4,16.3,10.3,16.5,10.4,16.5L10.4,16.5z"/>
	</g>
	<g>
		<path fill="#15161A" d="M18.7,17.2c-1.2,0.7-2.5,0.9-3.8,1.4c-0.4,0.1-0.7,0.3-1,0.5c-0.1,0.1,0,0.3,0.1,0.2
			c1.2-0.6,2.5-0.9,3.8-1.4c0.4-0.1,0.7-0.3,1-0.5C18.9,17.3,18.8,17.2,18.7,17.2L18.7,17.2z"/>
	</g>
	<g>
		<path fill="#15161A" d="M18.6,17.4c1.8,0.3,3.7,0.7,5.5,1.1c0.5,0.1,1,0.2,1.5,0.4c0.1,0,0.2-0.2,0.1-0.2
			c-1.8-0.5-3.7-0.8-5.5-1.1c-0.5-0.1-1.1-0.2-1.6-0.3C18.5,17.2,18.5,17.4,18.6,17.4L18.6,17.4z"/>
	</g>
	<g>
		<path fill="#15161A" d="M25.8,18.8c0.4,0.5,0.9,1,1.2,1.6c0.1,0.2,0.2,0.5,0.4,0.7c0.1,0.1,0.3,0,0.2-0.1
			c-0.2-0.4-0.3-0.7-0.6-1.1c-0.2-0.2-0.3-0.5-0.5-0.7c-0.2-0.2-0.3-0.4-0.5-0.6C25.8,18.6,25.7,18.7,25.8,18.8L25.8,18.8z"/>
	</g>
	<g>
		<path fill="#15161A" d="M27.9,17.9c0.1,0.7,0.2,1.4,0.3,2.1c0,0.1,0,0.3,0.1,0.4c0,0.1,0.2,0.1,0.2,0c0,0,0-0.1,0-0.1
			c0-0.1,0-0.2,0-0.2c0,0-0.1-0.1-0.2,0c0,0,0,0.1,0,0.1c0,0.1,0,0.2,0,0.3c0,0.1,0.2,0.1,0.2,0c0-0.1,0-0.2,0-0.2c0,0,0,0,0-0.1
			c0,0,0,0,0,0.1c-0.1,0-0.1,0-0.2,0c0,0,0,0,0-0.1c0,0,0,0,0,0c0,0,0,0,0,0.1c0,0,0,0,0,0c0,0,0,0,0,0c0,0,0,0,0,0
			c0,0,0-0.1,0.1-0.1c0,0,0.1,0,0.1,0c0.2,0.1,0.1,0.1,0.1,0.1c0,0,0,0,0,0c0-0.1,0-0.1,0-0.2c0-0.2-0.1-0.5-0.1-0.7
			c-0.1-0.5-0.2-1-0.3-1.6C28.1,17.7,27.9,17.8,27.9,17.9L27.9,17.9z"/>
	</g>
	<g>
		<path fill="#15161A" d="M28.1,17.9c1.1-0.4,2.2-0.7,3.3-1.1c0.1,0,0.1-0.3-0.1-0.2c-1.1,0.4-2.2,0.7-3.3,1.1
			C27.9,17.7,27.9,17.9,28.1,17.9L28.1,17.9z"/>
	</g>
	<g>
		<path fill="#15161A" d="M44.1,17.7c-1,0.6-2.1,1.3-3.1,1.9c-0.1,0.1,0,0.3,0.1,0.2c1-0.6,2.1-1.3,3.1-1.9
			C44.4,17.8,44.3,17.6,44.1,17.7L44.1,17.7z"/>
	</g>
	<g>
		<path fill="#15161A" d="M25.7,18.7c-1.4,0.6-2.8,1.2-4.2,1.8c-0.1,0.1,0,0.2,0.1,0.2c1.4-0.6,2.8-1.2,4.2-1.8
			C26,18.8,25.9,18.6,25.7,18.7L25.7,18.7z"/>
	</g>
	<g>
		<path fill="#15161A" d="M21.2,20.7c0.1,0.8,0.2,1.6,0.2,2.3c0,0.8,0,1.5,0,2.3c0,0.3,0,0.6,0,1c0,0.1,0.2,0.1,0.2,0
			c0-0.7,0-1.3,0-2c0-0.7,0.1-1.4,0-2c-0.1-0.5-0.1-1.1-0.2-1.6C21.4,20.5,21.2,20.6,21.2,20.7L21.2,20.7z"/>
	</g>
	<g>
		<path fill="#15161A" d="M13.7,19.2c-0.2,0.8-0.5,1.5-0.8,2.3c-0.3,0.6-0.5,1.3-0.8,1.9c-0.1,0.3-0.2,0.5-0.3,0.8
			c0,0.1,0,0.1,0.1,0.1c0.1,0,0.1,0,0.1-0.1c0.2-0.5,0.4-1,0.6-1.5c0.3-0.7,0.6-1.5,0.9-2.3c0.2-0.4,0.3-0.9,0.4-1.3
			C14,19.1,13.7,19.1,13.7,19.2L13.7,19.2z"/>
	</g>
	<g>
		<path fill="#15161A" d="M0.3,22.6c2.2,0.5,4.5,1,6.7,1.5c2.2,0.5,4.5,1,6.7,1.5c2.2,0.5,4.5,1,6.7,1.5c2.2,0.5,4.4,1,6.6,1.5
			c2.1,0.5,4.1,1.2,6.2,1.7c0.3,0.1,0.5,0.1,0.8,0.2c0.1,0,0.2-0.2,0.1-0.2c-2.1-0.5-4.1-1.1-6.2-1.7c-2.2-0.6-4.4-1-6.6-1.6
			c-2.2-0.5-4.4-1-6.7-1.5c-2.2-0.5-4.5-1-6.7-1.5c-2.2-0.5-4.5-1-6.7-1.5c-0.3-0.1-0.6-0.1-0.9-0.2C0.2,22.3,0.2,22.6,0.3,22.6
			L0.3,22.6z"/>
	</g>
	<g>
		<path fill="#15161A" d="M1.8,21.9c2.4,0.6,4.7,1.2,7.1,1.8c0.7,0.2,1.3,0.3,2,0.5c0.1,0,0.2-0.2,0.1-0.2c-2.4-0.6-4.7-1.2-7.1-1.8
			c-0.7-0.2-1.3-0.3-2-0.5C1.8,21.7,1.7,21.9,1.8,21.9L1.8,21.9z"/>
	</g>
	<g>
		<path fill="#15161A" d="M14.6,19.5c0.8,0.1,1.6,0.2,2.4,0.4c0.8,0.1,1.5,0.2,2.3,0.4c0.4,0.1,0.9,0.2,1.3,0.4
			c0.1,0.1,0.2-0.2,0.1-0.2c-1.5-0.6-3.1-0.7-4.6-0.9c-0.5-0.1-0.9-0.1-1.4-0.2c-0.1,0-0.1,0-0.1,0.1C14.6,19.5,14.6,19.5,14.6,19.5
			L14.6,19.5z"/>
	</g>
	<g>
		<path fill="#15161A" d="M5.1,17.8C6.4,18,7.7,18.3,9,18.6c0.4,0.1,0.7,0.2,1.1,0.3c0.1,0,0.2-0.2,0.1-0.2
			c-1.3-0.3-2.6-0.6-3.9-0.9c-0.4-0.1-0.7-0.2-1.1-0.2C5,17.5,4.9,17.8,5.1,17.8L5.1,17.8z"/>
	</g>
	<g>
		<path fill="#15161A" d="M15,17.2c0.4,0.4,0.7,0.8,1,1.2c0.1,0.1,0.3,0,0.2-0.1c-0.3-0.5-0.6-0.9-1-1.3C15,17,14.9,17.1,15,17.2
			L15,17.2z"/>
	</g>
	<g>
		<path fill="#15161A" d="M14.7,17.1c-1.4,0.6-2.7,1.1-4.1,1.5c-0.1,0-0.1,0.3,0.1,0.2c1.4-0.4,2.8-0.9,4.1-1.5
			C14.9,17.3,14.8,17.1,14.7,17.1L14.7,17.1z"/>
	</g>
	<g>
		<path fill="#15161A" d="M10.3,18.8c0.2,1.3,0.5,2.6,0.7,4c0.1,0.4,0.1,0.8,0.2,1.1c0,0.1,0.2,0.1,0.2-0.1c-0.2-1.3-0.5-2.6-0.7-4
			c-0.1-0.4-0.1-0.8-0.2-1.1C10.5,18.6,10.2,18.6,10.3,18.8L10.3,18.8z"/>
	</g>
	<g>
		<path fill="#15161A" d="M11.1,24.2c0.4-0.1,0.7-0.3,1.1-0.5c0.1-0.1,0-0.3-0.1-0.2c-0.3,0.2-0.7,0.4-1,0.5
			C10.9,24,10.9,24.2,11.1,24.2L11.1,24.2z"/>
	</g>
	<g>
		<path fill="#15161A" d="M27.9,17.6c-1.6-0.3-3.3-0.5-4.9-0.8c-0.5-0.1-0.9-0.1-1.4-0.2c-0.1,0-0.2,0.2-0.1,0.2
			c1.6,0.3,3.3,0.5,4.9,0.8c0.5,0.1,0.9,0.1,1.4,0.2C27.9,17.8,28,17.6,27.9,17.6L27.9,17.6z"/>
	</g>
	<g>
		<path fill="#15161A" d="M23.1,16.1c-0.5,0.1-1,0.2-1.5,0.4c-0.1,0-0.1,0.3,0.1,0.2c0.5-0.1,1-0.2,1.5-0.4
			C23.3,16.3,23.3,16,23.1,16.1L23.1,16.1z"/>
	</g>
	<g>
		<path fill="#15161A" d="M21.4,16.7c-0.1,0.3-0.3,0.5-0.5,0.8c0,0.1,0,0.1,0,0.2c0.1,0,0.1,0,0.2,0c0.2-0.3,0.3-0.5,0.5-0.8
			c0-0.1,0-0.1,0-0.2C21.5,16.6,21.4,16.6,21.4,16.7L21.4,16.7z"/>
	</g>
	<g>
		<path fill="#15161A" d="M17.9,15.7c-1.5-0.1-3-0.3-4.5-0.5c-0.4-0.1-0.9-0.1-1.3-0.2c-0.1,0-0.2,0.2-0.1,0.2
			c1.5,0.2,3,0.4,4.6,0.5c0.4,0,0.9,0.1,1.3,0.1C18,16,18,15.7,17.9,15.7L17.9,15.7z"/>
	</g>
	<g>
		<path fill="#15161A" d="M18,15.9c0.2,0.5,0.3,1,0.5,1.5c0,0.1,0.3,0.1,0.2-0.1c-0.2-0.5-0.3-1-0.5-1.5
			C18.2,15.7,17.9,15.8,18,15.9L18,15.9z"/>
	</g>
	<g>
		<path fill="#15161A" d="M40.5,19.6c-1.9-0.2-3.9-0.4-5.8-0.7c-0.5-0.1-1.1-0.2-1.6-0.2c-0.1,0-0.2,0.2-0.1,0.2
			c1.9,0.3,3.9,0.5,5.8,0.7c0.6,0.1,1.1,0.1,1.7,0.2C40.7,19.8,40.7,19.6,40.5,19.6L40.5,19.6z"/>
	</g>
	<g>
		<path fill="#15161A" d="M23.9,24.9c-0.9,0.5-1.8,1-2.7,1.5c-0.1,0.1,0,0.3,0.1,0.2c0.9-0.4,1.8-1,2.7-1.5
			C24.2,25,24,24.8,23.9,24.9L23.9,24.9z"/>
	</g>
	<g>
		<path fill="#15161A" d="M11.9,24.4c1.2,0.3,2.4,0.6,3.6,0.8c1.2,0.3,2.4,0.6,3.6,0.9c0.7,0.2,1.3,0.3,2,0.5c0.1,0,0.2-0.2,0.1-0.2
			c-1.2-0.3-2.4-0.6-3.6-0.8c-1.2-0.3-2.4-0.6-3.6-0.9c-0.7-0.2-1.3-0.3-2-0.5C11.9,24.1,11.8,24.3,11.9,24.4L11.9,24.4z"/>
	</g>
	<g>
		<path fill="#15161A" d="M23.3,26.7c1.3,0.3,2.6,0.6,3.9,1c1.3,0.3,2.6,0.6,4,1c0.7,0.2,1.5,0.4,2.2,0.5c0.1,0,0.2-0.2,0.1-0.2
			c-1.3-0.3-2.6-0.6-3.9-1c-1.3-0.3-2.6-0.6-4-1c-0.7-0.2-1.5-0.4-2.2-0.5C23.2,26.4,23.1,26.7,23.3,26.7L23.3,26.7z"/>
	</g>
	<g>
		<path fill="#15161A" d="M39.3,25.4c-0.7,0.4-1.3,0.8-2,1.2c-0.4,0.2-0.7,0.4-1.1,0.6c-0.5,0.3-0.9,0.5-1.3,0.8
			c-0.5,0.3-1,0.6-1.6,0.9c-0.1,0.1,0,0.3,0.1,0.2c0.9-0.5,1.8-1.1,2.8-1.6c0.4-0.2,0.8-0.4,1.2-0.6c0.4-0.2,0.7-0.4,1-0.6
			c0.4-0.2,0.7-0.4,1.1-0.7C39.6,25.6,39.5,25.4,39.3,25.4L39.3,25.4z"/>
	</g>
	<g>
		<path fill="#15161A" d="M37.3,21.4c0.6,1.1,1.2,2.2,1.8,3.2c0.2,0.3,0.3,0.6,0.5,0.8c0.1,0.1,0.3,0,0.2-0.1
			c-0.6-1.1-1.2-2.2-1.8-3.2c-0.2-0.3-0.3-0.6-0.5-0.8C37.4,21.1,37.2,21.2,37.3,21.4L37.3,21.4z"/>
	</g>
	<g>
		<path fill="#15161A" d="M32.2,23.4c0.1,0.6,0.2,1.2,0.3,1.9c0.1,0.3,0.1,0.7,0.2,1c0.1,0.4,0.1,0.7,0.2,1.1
			c0.1,0.6,0.2,1.2,0.4,1.8c0,0.1,0.3,0.1,0.2-0.1c-0.2-0.5-0.3-1.1-0.4-1.6c-0.1-0.4-0.1-0.8-0.2-1.2c-0.1-0.7-0.2-1.3-0.3-2
			c0-0.3-0.1-0.6-0.2-0.9C32.4,23.2,32.2,23.2,32.2,23.4L32.2,23.4z"/>
	</g>
	<g>
		<path fill="#15161A" d="M37.3,21.2c-1.2,0.6-2.4,1.1-3.6,1.6c-0.4,0.1-0.7,0.3-1.1,0.4c-0.1,0.1-0.1,0.3,0.1,0.2
			c1.2-0.5,2.5-1,3.7-1.5c0.4-0.2,0.7-0.3,1.1-0.5C37.6,21.3,37.5,21.1,37.3,21.2L37.3,21.2z"/>
	</g>
	<g>
		<path fill="#15161A" d="M25.5,21.7c-0.2,0.5-0.5,1-0.8,1.5c-0.4,0.6-0.6,1.3-0.9,1.9c-0.2,0.4-0.4,0.9-0.6,1.3
			c-0.1,0.1,0.1,0.2,0.2,0.1c0.4-0.8,0.7-1.6,1.1-2.4c0.2-0.5,0.5-1.1,0.8-1.6c0.1-0.3,0.3-0.5,0.4-0.8
			C25.8,21.7,25.6,21.6,25.5,21.7L25.5,21.7z"/>
	</g>
	<g>
		<path fill="#15161A" d="M25.6,21.9c1.8,0.5,3.6,0.8,5.5,1.2c0.5,0.1,1,0.2,1.5,0.3c0.1,0,0.2-0.2,0.1-0.2
			c-1.8-0.4-3.7-0.7-5.5-1.2c-0.5-0.1-1-0.2-1.5-0.4C25.5,21.7,25.5,21.9,25.6,21.9L25.6,21.9z"/>
	</g>
	<g>
		<path fill="#15161A" d="M37.4,21.2c-2-0.3-4-0.7-5.9-1c-0.5-0.1-1-0.2-1.6-0.2c-0.1,0-0.1,0-0.1,0.1c0,0.1,0,0.1,0.1,0.1
			c2,0.3,4,0.7,5.9,1c0.5,0.1,1,0.2,1.6,0.2c0.1,0,0.1,0,0.1-0.1C37.5,21.3,37.5,21.2,37.4,21.2L37.4,21.2z"/>
	</g>
	<g>
		<path fill="#15161A" d="M25.7,22.1c1.4-0.7,2.8-1.3,4.3-2c0.1-0.1,0-0.3-0.1-0.2c-1.4,0.7-2.8,1.3-4.3,2
			C25.4,22,25.6,22.2,25.7,22.1L25.7,22.1z"/>
	</g>
	<g>
		<path fill="#15161A" d="M18.4,15.9c0.2,0.5,0.3,0.9,0.4,1.4c0,0.1,0.1,0,0.1,0c-0.1-0.5-0.2-0.9-0.4-1.4
			C18.4,15.8,18.3,15.8,18.4,15.9L18.4,15.9z"/>
	</g>
	<g>
		<path fill="#15161A" d="M18.7,15.8c0.1,0.2,0.1,0.4,0.2,0.7c0.1,0.2,0.1,0.5,0.2,0.7c0,0.1,0.1,0,0.1,0c-0.1-0.3-0.1-0.5-0.2-0.7
			c-0.1-0.2-0.1-0.4-0.2-0.7C18.7,15.7,18.6,15.8,18.7,15.8L18.7,15.8z"/>
	</g>
	<g>
		<path fill="#15161A" d="M21.4,14.9c0.3,0.5,0.7,0.9,1,1.4c0,0.1,0.1,0,0.1-0.1C22.2,15.8,21.8,15.3,21.4,14.9
			C21.5,14.8,21.4,14.9,21.4,14.9L21.4,14.9z"/>
	</g>
	<g>
		<path fill="#15161A" d="M21,17.7c0.1,0,0.1-0.1,0-0.1C20.9,17.6,20.9,17.7,21,17.7L21,17.7z"/>
	</g>
	<g>
		<path fill="#15161A" d="M18.9,15.8c0.2,0.5,0.3,1.1,0.4,1.6c0,0.1,0.1,0,0.1,0c-0.1-0.6-0.2-1.1-0.4-1.6
			C19,15.7,18.9,15.7,18.9,15.8L18.9,15.8z"/>
	</g>
	<g>
		<path fill="#15161A" d="M22.6,16c-0.1,0-0.2,0-0.3,0.1c-0.1,0-0.2,0.1-0.4,0.1c-0.2,0.1-0.5,0.1-0.7,0.2c-0.1,0,0,0.1,0,0.1
			c0.2-0.1,0.5-0.1,0.7-0.2c0.1,0,0.2-0.1,0.3-0.1c0.1,0,0.1,0,0.2,0c0.1,0,0.1,0,0.2,0C22.7,16.1,22.7,16,22.6,16L22.6,16z"/>
	</g>
	<g>
		<path fill="#15161A" d="M22.3,15.7c-0.3,0.1-0.6,0.2-1,0.3c-0.1,0,0,0.1,0,0.1c0.3-0.1,0.7-0.2,1-0.3
			C22.4,15.8,22.4,15.7,22.3,15.7L22.3,15.7z"/>
	</g>
	<g>
		<path fill="#15161A" d="M21.2,16.5c-0.2,0.4-0.4,0.7-0.5,1.1c0,0.1,0.1,0.1,0.1,0.1C20.9,17.3,21.1,16.9,21.2,16.5
			C21.3,16.5,21.2,16.4,21.2,16.5L21.2,16.5z"/>
	</g>
	<g>
		<path fill="#15161A" d="M20.8,16.5c-0.1,0.3-0.3,0.6-0.4,0.9c0,0.1,0.1,0.1,0.1,0.1C20.6,17.2,20.8,16.9,20.8,16.5
			C21,16.5,20.9,16.5,20.8,16.5L20.8,16.5z"/>
	</g>
	<g>
		<path fill="#15161A" d="M20.3,16.8c-0.1,0.2-0.2,0.4-0.3,0.6c0,0,0,0.1,0,0.1c0,0,0.1,0,0.1,0C20.3,17.3,20.3,17.1,20.3,16.8
			C20.4,16.9,20.4,16.8,20.3,16.8C20.4,16.8,20.3,16.8,20.3,16.8L20.3,16.8z"/>
	</g>
	<g>
		<path fill="#15161A" d="M19.8,16.9c0,0.2-0.1,0.3-0.2,0.5c0,0.1,0.1,0.1,0.1,0.1c0.1-0.2,0.2-0.3,0.2-0.5
			C19.9,16.9,19.8,16.9,19.8,16.9L19.8,16.9z"/>
	</g>
	<g>
		<path fill="#15161A" d="M19.2,17c-0.1,0.1-0.1,0.2-0.1,0.3c0,0,0,0.1,0,0.1c0,0,0.1,0,0.1,0c0,0,0-0.1,0-0.1c0,0,0,0,0,0
			c0,0,0,0,0,0c0,0,0,0,0,0c0,0,0,0,0,0C19.3,17.1,19.3,17.1,19.2,17C19.4,17,19.3,17,19.2,17C19.3,17,19.3,17,19.2,17L19.2,17z"/>
	</g>
	<g>
		<path fill="#15161A" d="M22.1,15.4c-0.2,0.1-0.4,0.1-0.6,0.2c-0.1,0,0,0.1,0,0.1c0.2-0.1,0.4-0.1,0.6-0.2
			C22.2,15.5,22.2,15.4,22.1,15.4L22.1,15.4z"/>
	</g>
	<g>
		<path fill="#15161A" d="M21.9,15c-0.1,0.1-0.3,0.1-0.4,0.2c0,0,0,0.1,0,0.1c0,0,0,0,0.1,0C21.7,15.2,21.9,15.2,21.9,15
			C22,15.1,22,15,21.9,15C22,15,22,15,21.9,15L21.9,15z"/>
	</g>
	<g>
		<path fill="#15161A" d="M10.7,19c0.1,0.6,0.2,1.3,0.3,1.9c0.1,0.6,0.2,1.2,0.3,1.9c0.1,0.3,0.2,0.7,0.3,1c0,0.1,0.1,0,0.1,0
			c-0.2-0.6-0.3-1.2-0.4-1.8c-0.1-0.6-0.2-1.3-0.3-1.9c-0.1-0.4-0.1-0.7-0.2-1.1C10.8,18.9,10.7,18.9,10.7,19L10.7,19z"/>
	</g>
	<g>
		<path fill="#15161A" d="M11,19c0.3,1.5,0.6,3,0.8,4.6c0,0.1,0.1,0,0.1,0c-0.2-1.5-0.5-3-0.8-4.6C11.1,18.9,11,18.9,11,19L11,19z"
			/>
	</g>
	<g>
		<path fill="#15161A" d="M14.8,17.5c-1.3,0.6-2.6,1.1-3.9,1.5c-0.1,0,0,0.1,0,0.1C12.2,18.7,13.6,18.2,14.8,17.5
			C14.9,17.6,14.8,17.5,14.8,17.5L14.8,17.5z"/>
	</g>
	<g>
		<path fill="#15161A" d="M14.9,17.5c0.2,0.3,0.5,0.6,0.7,0.9c0,0.1,0.1,0,0.1-0.1C15.5,18,15.2,17.7,14.9,17.5
			C15,17.4,14.9,17.5,14.9,17.5L14.9,17.5z"/>
	</g>
	<g>
		<path fill="#15161A" d="M14.7,17.6c0.2,0.3,0.4,0.6,0.6,0.8c0,0.1,0.1,0,0.1-0.1C15.2,18.1,15,17.9,14.7,17.6
			C14.7,17.5,14.6,17.6,14.7,17.6L14.7,17.6z"/>
	</g>
	<g>
		<path fill="#15161A" d="M14.5,17.7c0.2,0.3,0.4,0.6,0.7,0.9c0,0.1,0.1,0,0.1-0.1C15,18.3,14.8,18,14.5,17.7
			C14.5,17.6,14.4,17.7,14.5,17.7L14.5,17.7z"/>
	</g>
	<g>
		<path fill="#15161A" d="M14.3,17.8c0.1,0.3,0.3,0.6,0.5,0.9c0,0.1,0.1,0,0.1-0.1c-0.2-0.3-0.4-0.6-0.5-0.9
			C14.3,17.7,14.2,17.7,14.3,17.8L14.3,17.8z"/>
	</g>
	<g>
		<path fill="#15161A" d="M14,18c0.2,0.3,0.3,0.6,0.5,0.8c0,0.1,0.1,0,0.1-0.1C14.4,18.5,14.2,18.2,14,18C14.1,17.8,14,17.9,14,18
			L14,18z"/>
	</g>
	<g>
		<path fill="#15161A" d="M13.8,18.1c0.1,0.3,0.3,0.5,0.5,0.8c0,0.1,0.1,0,0.1-0.1C14.2,18.5,14,18.3,13.8,18.1
			C13.9,17.9,13.8,18,13.8,18.1L13.8,18.1z"/>
	</g>
	<g>
		<path fill="#15161A" d="M13.5,18.2c0.1,0.2,0.3,0.5,0.4,0.7c0,0.1,0.1,0,0.1-0.1C13.9,18.6,13.8,18.4,13.5,18.2
			C13.6,18.1,13.5,18.1,13.5,18.2L13.5,18.2z"/>
	</g>
	<g>
		<path fill="#15161A" d="M13.3,18.2c0.2,0.3,0.3,0.6,0.5,0.8c0,0.1,0.1,0,0.1-0.1C13.7,18.7,13.6,18.5,13.3,18.2
			C13.4,18.1,13.3,18.2,13.3,18.2L13.3,18.2z"/>
	</g>
	<g>
		<path fill="#15161A" d="M13.1,18.3c0.2,0.4,0.3,0.8,0.5,1.1c0,0.1,0.1,0,0.1-0.1c-0.2-0.4-0.4-0.7-0.5-1.1
			C13.2,18.2,13,18.3,13.1,18.3L13.1,18.3z"/>
	</g>
	<g>
		<path fill="#15161A" d="M12.8,18.5c0.2,0.5,0.4,1,0.6,1.5c0,0.1,0.1,0,0.1,0c-0.2-0.5-0.4-1-0.6-1.5
			C12.9,18.4,12.8,18.4,12.8,18.5L12.8,18.5z"/>
	</g>
	<g>
		<path fill="#15161A" d="M12.6,18.6c0.2,0.3,0.3,0.7,0.4,1c0.1,0.2,0.1,0.3,0.2,0.5c0,0.1,0,0.3,0.1,0.3c0.1,0,0.1-0.1,0-0.1
			c0,0,0-0.2,0-0.2c0-0.1,0-0.2-0.1-0.2c-0.1-0.2-0.1-0.3-0.2-0.5C12.9,19.2,12.8,18.9,12.6,18.6C12.6,18.5,12.5,18.5,12.6,18.6
			L12.6,18.6z"/>
	</g>
	<g>
		<path fill="#15161A" d="M12.3,18.7c0,0.2,0.1,0.4,0.2,0.6c0.1,0.2,0.2,0.4,0.2,0.6c0.1,0.4,0.3,0.8,0.4,1.2c0,0.1,0.1,0,0.1,0
			c-0.1-0.4-0.2-0.8-0.3-1.2c-0.1-0.2-0.1-0.4-0.2-0.6c-0.1-0.2-0.2-0.4-0.2-0.6C12.5,18.6,12.3,18.6,12.3,18.7L12.3,18.7z"/>
	</g>
	<g>
		<path fill="#15161A" d="M12.1,18.7c0.1,0.5,0.3,1,0.4,1.4c0.1,0.4,0.3,0.9,0.4,1.3c0,0.1,0.1,0,0.1-0.1c-0.2-0.4-0.3-0.9-0.4-1.3
			c-0.1-0.5-0.3-0.9-0.4-1.4C12.2,18.6,12.1,18.6,12.1,18.7L12.1,18.7z"/>
	</g>
	<g>
		<path fill="#15161A" d="M11.8,18.8c0.3,1,0.6,2,0.9,3c0,0.1,0.1,0,0.1,0c-0.2-1-0.5-2-0.9-3C11.8,18.7,11.7,18.8,11.8,18.8
			L11.8,18.8z"/>
	</g>
	<g>
		<path fill="#15161A" d="M11.5,19c0.3,1.2,0.7,2.3,1,3.5c0,0.1,0.1,0,0.1,0c-0.3-1.2-0.6-2.3-1-3.5C11.6,18.9,11.5,18.9,11.5,19
			L11.5,19z"/>
	</g>
	<g>
		<path fill="#15161A" d="M11.2,19c0.5,1.3,0.6,2.8,1.1,4.1c0,0.1,0.1,0,0.1,0c-0.5-1.3-0.5-2.8-1.1-4.1C11.3,18.9,11.2,19,11.2,19
			L11.2,19z"/>
	</g>
	<g>
		<path fill="#15161A" d="M28.3,17.8c0.2,0.9,0.3,1.7,0.5,2.6c0,0.1,0.1,0,0.1,0c-0.2-0.9-0.3-1.7-0.5-2.6
			C28.4,17.7,28.3,17.8,28.3,17.8L28.3,17.8z"/>
	</g>
	<g>
		<path fill="#15161A" d="M28.6,17.7c0.1,0.4,0.2,0.9,0.3,1.3c0.1,0.4,0.1,0.8,0.3,1.2c0,0.1,0.1,0,0.1,0c-0.1-0.4-0.2-0.8-0.3-1.2
			c-0.1-0.4-0.2-0.9-0.3-1.3C28.7,17.6,28.6,17.6,28.6,17.7L28.6,17.7z"/>
	</g>
	<g>
		<path fill="#15161A" d="M28.9,17.4c0.2,0.9,0.4,1.8,0.6,2.7c0,0.1,0.1,0,0.1,0c-0.2-0.9-0.4-1.8-0.6-2.7
			C29,17.3,28.9,17.4,28.9,17.4L28.9,17.4z"/>
	</g>
	<g>
		<path fill="#15161A" d="M29.3,17.5c0.2,0.9,0.4,1.7,0.7,2.5c0,0.1,0.1,0,0.1,0c-0.3-0.8-0.5-1.7-0.7-2.5
			C29.4,17.4,29.3,17.4,29.3,17.5L29.3,17.5z"/>
	</g>
	<g>
		<path fill="#15161A" d="M29.6,17.4c0.1,0.4,0.2,0.9,0.3,1.3c0.1,0.4,0.3,0.9,0.4,1.3c0,0.1,0.1,0,0.1,0c-0.1-0.4-0.3-0.9-0.4-1.3
			c-0.1-0.4-0.3-0.9-0.3-1.3C29.7,17.3,29.6,17.4,29.6,17.4L29.6,17.4z"/>
	</g>
	<g>
		<path fill="#15161A" d="M29.9,17.3c0.1,0.5,0.3,1,0.4,1.4c0.1,0.5,0.2,1,0.4,1.4c0,0.1,0.1,0,0.1,0c-0.2-0.5-0.3-0.9-0.4-1.4
			c-0.1-0.5-0.3-1-0.4-1.4C30,17.2,29.9,17.2,29.9,17.3L29.9,17.3z"/>
	</g>
	<g>
		<path fill="#15161A" d="M30.2,17.2c0.2,1,0.5,1.9,0.8,2.8c0,0.1,0.1,0,0.1,0c-0.3-0.9-0.6-1.9-0.8-2.8
			C30.3,17.1,30.2,17.1,30.2,17.2L30.2,17.2z"/>
	</g>
	<g>
		<path fill="#15161A" d="M30.4,17.1c0.1,0.4,0.3,0.8,0.4,1.3c0.1,0.4,0.3,0.8,0.4,1.2c0,0.1,0.1,0,0.1,0c-0.1-0.4-0.3-0.8-0.4-1.2
			c-0.1-0.4-0.3-0.8-0.4-1.3C30.5,17,30.4,17,30.4,17.1L30.4,17.1z"/>
	</g>
	<g>
		<path fill="#15161A" d="M30.8,16.9c0.3,0.7,0.5,1.4,0.8,2.1c0,0.1,0.1,0,0.1,0c-0.3-0.7-0.5-1.4-0.8-2.1
			C30.8,16.8,30.7,16.8,30.8,16.9L30.8,16.9z"/>
	</g>
	<g>
		<path fill="#15161A" d="M31,16.8c0.2,0.6,0.4,1.2,0.7,1.9c0,0.1,0.1,0,0.1,0c-0.2-0.6-0.4-1.2-0.7-1.9C31.1,16.7,31,16.7,31,16.8
			L31,16.8z"/>
	</g>
	<g>
		<path fill="#15161A" d="M31.4,16.9c0.2,0.5,0.4,1,0.6,1.5c0,0.1,0.1,0,0.1,0c-0.2-0.5-0.4-1-0.6-1.5
			C31.4,16.8,31.3,16.8,31.4,16.9L31.4,16.9z"/>
	</g>
	<g>
		<path fill="#15161A" d="M32.4,17.8c-0.3,0.1-0.6,0.3-0.8,0.5c-0.1,0,0,0.1,0.1,0.1c0.2-0.2,0.5-0.4,0.8-0.5
			C32.5,17.9,32.4,17.8,32.4,17.8L32.4,17.8z"/>
	</g>
	<g>
		<path fill="#15161A" d="M32.3,17.5c-0.2,0.2-0.5,0.3-0.7,0.5c-0.1,0,0,0.1,0.1,0.1C31.8,17.9,32.1,17.7,32.3,17.5
			C32.4,17.5,32.3,17.4,32.3,17.5L32.3,17.5z"/>
	</g>
	<g>
		<path fill="#15161A" d="M32,17.1c-0.1,0.1-0.3,0.1-0.4,0.2c0,0,0,0,0,0.1c0,0,0,0.1,0.1,0c0.1-0.1,0.3-0.1,0.4-0.2
			C32.1,17.2,32.1,17.2,32,17.1C32.1,17.2,32,17.1,32,17.1L32,17.1z"/>
	</g>
	<g>
		<path fill="#15161A" d="M31.4,18.4c-0.2,0.5-0.4,1-0.5,1.6c0,0.1,0.1,0.1,0.1,0c0.2-0.5,0.4-1,0.5-1.6
			C31.5,18.4,31.4,18.4,31.4,18.4L31.4,18.4z"/>
	</g>
	<g>
		<path fill="#15161A" d="M31.1,18.7c-0.2,0.4-0.4,0.9-0.5,1.4c0,0.1,0.1,0.1,0.1,0C30.8,19.7,31,19.2,31.1,18.7
			C31.2,18.7,31.1,18.6,31.1,18.7L31.1,18.7z"/>
	</g>
	<g>
		<path fill="#15161A" d="M30.5,19.2c-0.1,0.3-0.2,0.6-0.3,0.9c0,0.1,0.1,0.1,0.1,0c0.1-0.3,0.2-0.6,0.3-0.9
			C30.7,19.1,30.6,19.1,30.5,19.2L30.5,19.2z"/>
	</g>
	<g>
		<path fill="#15161A" d="M30.1,19.5c0,0.2,0,0.3-0.1,0.5c0,0.1,0,0.1,0.1,0.1c0.1-0.1,0.2-0.3,0.2-0.5
			C30.2,19.5,30.2,19.5,30.1,19.5C30.1,19.5,30.1,19.5,30.1,19.5L30.1,19.5z"/>
	</g>
	<g>
		<path fill="#15161A" d="M31.7,16.8c-1,0.3-2.1,0.7-3.1,1.1c-0.1,0,0,0.1,0,0.1c1-0.4,2.1-0.7,3.1-1.1
			C31.8,16.9,31.8,16.8,31.7,16.8L31.7,16.8z"/>
	</g>
	<g>
		<path fill="#15161A" d="M15.5,18.1c-0.7,0.3-1.4,0.6-2.2,0.9c-0.1,0,0,0.1,0,0.1C14.1,18.8,14.8,18.5,15.5,18.1
			C15.6,18.1,15.6,18,15.5,18.1L15.5,18.1z"/>
	</g>
	<g>
		<path fill="#15161A" d="M13.4,19.3c-0.5,1.3-1,2.6-1.5,3.9c0,0.1,0.1,0.1,0.1,0c0.5-1.3,1-2.6,1.5-3.9
			C13.5,19.3,13.4,19.3,13.4,19.3L13.4,19.3z"/>
	</g>
	<g>
		<path fill="#15161A" d="M25.7,19c0.5,0.8,1,1.5,1.6,2.2c0,0.1,0.1,0,0.1-0.1C26.8,20.4,26.3,19.7,25.7,19
			C25.7,18.9,25.6,19,25.7,19L25.7,19z"/>
	</g>
	<g>
		<path fill="#15161A" d="M25.3,19.2c0.5,0.7,1,1.4,1.5,2.1c0,0.1,0.1,0,0.1-0.1C26.4,20.6,25.9,19.9,25.3,19.2
			C25.4,19.1,25.3,19.2,25.3,19.2L25.3,19.2z"/>
	</g>
	<g>
		<path fill="#15161A" d="M25,19.4c0.5,0.7,1,1.4,1.5,2.1c0,0.1,0.1,0,0.1-0.1C26.1,20.7,25.6,20,25,19.4C25,19.2,24.9,19.3,25,19.4
			L25,19.4z"/>
	</g>
	<g>
		<path fill="#15161A" d="M24.8,19.6c0.5,0.7,1,1.3,1.5,2c0,0.1,0.1,0,0.1-0.1C25.8,20.8,25.3,20.2,24.8,19.6
			C24.8,19.4,24.7,19.5,24.8,19.6L24.8,19.6z"/>
	</g>
	<g>
		<path fill="#15161A" d="M25.7,19.3c-0.3,0.2-0.6,0.3-0.9,0.4c-0.3,0.1-0.7,0.3-1,0.4c-0.7,0.3-1.3,0.6-2,0.8c-0.1,0,0,0.1,0,0.1
			c0.7-0.3,1.3-0.6,2-0.8c0.3-0.1,0.7-0.3,1-0.4C25.2,19.7,25.5,19.6,25.7,19.3C25.8,19.3,25.8,19.2,25.7,19.3L25.7,19.3z"/>
	</g>
	<g>
		<path fill="#15161A" d="M21.7,21.2c0,1.4,0,2.9,0.1,4.3c0,0.1,0.1,0.1,0.1,0c0-1.4,0-2.9-0.1-4.3C21.8,21.2,21.7,21.2,21.7,21.2
			L21.7,21.2z"/>
	</g>
	<g>
		<path fill="#15161A" d="M24.1,24.4c-0.7,0.4-1.4,0.7-2.1,1.1c-0.1,0,0,0.1,0.1,0.1C22.8,25.2,23.5,24.9,24.1,24.4
			C24.3,24.5,24.2,24.4,24.1,24.4L24.1,24.4z"/>
	</g>
	<g>
		<path fill="#15161A" d="M24.4,23.9c-0.6,0.3-1.1,0.6-1.7,1c-0.1,0,0,0.1,0.1,0.1C23.3,24.6,23.9,24.3,24.4,23.9
			C24.5,24,24.4,23.9,24.4,23.9L24.4,23.9z"/>
	</g>
	<g>
		<path fill="#15161A" d="M24.6,23.4c-0.4,0.2-0.9,0.5-1.3,0.7c-0.1,0,0,0.1,0.1,0.1C23.8,24,24.2,23.7,24.6,23.4
			C24.7,23.4,24.6,23.3,24.6,23.4L24.6,23.4z"/>
	</g>
	<g>
		<path fill="#15161A" d="M24.7,23.1c-0.2,0.1-0.4,0.2-0.7,0.3c-0.1,0,0,0.1,0,0.1C24.4,23.4,24.6,23.3,24.7,23.1
			C24.9,23.1,24.8,23,24.7,23.1L24.7,23.1z"/>
	</g>
	<g>
		<path fill="#15161A" d="M27.1,20.9c-0.5,0.3-1.1,0.5-1.6,0.6c-0.1,0,0,0.1,0,0.1C26,21.4,26.6,21.2,27.1,20.9
			C27.2,20.9,27.1,20.8,27.1,20.9L27.1,20.9z"/>
	</g>
	<g>
		<path fill="#15161A" d="M25.2,21.4c-0.5,1.2-1.1,2.4-1.6,3.5c0,0.1,0.1,0.1,0.1,0.1C24.2,23.9,24.8,22.7,25.2,21.4
			C25.3,21.4,25.2,21.4,25.2,21.4L25.2,21.4z"/>
	</g>
	<g>
		<path fill="#15161A" d="M26.1,19.4c-0.3,0.2-0.6,0.3-0.9,0.4c-0.1,0,0,0.1,0,0.1C25.5,19.8,25.9,19.7,26.1,19.4
			C26.2,19.5,26.2,19.4,26.1,19.4L26.1,19.4z"/>
	</g>
	<g>
		<path fill="#15161A" d="M26.5,19.7c-0.2,0.1-0.4,0.1-0.6,0.2c-0.1,0,0,0.1,0,0.1c0.2-0.1,0.4-0.1,0.6-0.2
			C26.6,19.8,26.5,19.7,26.5,19.7L26.5,19.7z"/>
	</g>
	<g>
		<path fill="#15161A" d="M24.5,19.8c0.4,0.7,0.8,1.3,1.1,2c0,0.1,0.1,0,0.1-0.1C25.3,21,25,20.4,24.5,19.8
			C24.6,19.6,24.5,19.7,24.5,19.8L24.5,19.8z"/>
	</g>
	<g>
		<path fill="#15161A" d="M24.1,19.8c0.2,0.4,0.4,0.8,0.6,1.2c0.2,0.4,0.4,0.8,0.5,1.2c0,0.1,0.1,0,0.1,0c-0.1-0.4-0.3-0.8-0.5-1.2
			C24.6,20.6,24.4,20.1,24.1,19.8C24.2,19.6,24.1,19.7,24.1,19.8L24.1,19.8z"/>
	</g>
	<g>
		<path fill="#15161A" d="M23.8,19.9c0.4,0.8,0.8,1.7,1.2,2.6c0,0.1,0.1,0,0.1,0C24.7,21.6,24.3,20.7,23.8,19.9
			C23.8,19.8,23.7,19.9,23.8,19.9L23.8,19.9z"/>
	</g>
	<g>
		<path fill="#15161A" d="M23.4,20.1c0.5,1,0.9,2,1.3,3c0,0.1,0.1,0,0.1,0C24.4,22,24,21,23.4,20.1C23.5,19.9,23.4,20,23.4,20.1
			L23.4,20.1z"/>
	</g>
	<g>
		<path fill="#15161A" d="M23.1,20.1c0.3,1.1,0.9,2,1.1,3.1c0,0.1,0.1,0,0.1,0c-0.2-1.1-0.8-2-1.1-3.1C23.2,20,23.1,20.1,23.1,20.1
			L23.1,20.1z"/>
	</g>
	<g>
		<path fill="#15161A" d="M22.8,20.3c0.4,1.2,0.8,2.4,1.2,3.6c0,0.1,0.1,0,0.1,0c-0.4-1.2-0.8-2.4-1.2-3.6
			C22.8,20.2,22.7,20.2,22.8,20.3L22.8,20.3z"/>
	</g>
	<g>
		<path fill="#15161A" d="M22.5,20.4c0.4,1.3,0.8,2.6,1.1,3.9c0,0.1,0.1,0,0.1,0c-0.4-1.3-0.8-2.6-1.1-3.9
			C22.6,20.3,22.5,20.3,22.5,20.4L22.5,20.4z"/>
	</g>
	<g>
		<path fill="#15161A" d="M22.1,20.6c0.2,0.7,0.4,1.3,0.6,2c0.2,0.6,0.4,1.3,0.5,1.9c0,0.1,0.1,0,0.1,0c-0.1-0.7-0.3-1.3-0.5-1.9
			c-0.2-0.7-0.4-1.3-0.6-2C22.2,20.5,22.1,20.5,22.1,20.6L22.1,20.6z"/>
	</g>
	<g>
		<path fill="#15161A" d="M21.9,20.6c0,0.3,0.1,0.7,0.2,1c0.1,0.3,0.2,0.7,0.3,1c0.2,0.7,0.4,1.4,0.5,2.1c0,0.1,0.1,0,0.1,0
			c-0.2-0.7-0.3-1.4-0.5-2.1c-0.1-0.3-0.2-0.7-0.3-1c-0.1-0.3-0.2-0.7-0.2-1C22,20.5,21.9,20.5,21.9,20.6L21.9,20.6z"/>
	</g>
	<g>
		<path fill="#15161A" d="M21.6,20.7c0.2,1.2,0.5,2.4,0.7,3.7c0.1,0.4,0.1,0.7,0.2,1.1c0,0.1,0.1,0,0.1,0c-0.2-1.2-0.5-2.4-0.7-3.7
			c-0.1-0.4-0.1-0.7-0.2-1.1C21.7,20.6,21.6,20.7,21.6,20.7L21.6,20.7z"/>
	</g>
	<g>
		<path fill="#15161A" d="M21.8,23.6c0.1,0.7,0.2,1.5,0.4,2.2c0,0.1,0.1,0,0.1,0c-0.2-0.7-0.4-1.4-0.4-2.2
			C21.9,23.5,21.8,23.5,21.8,23.6L21.8,23.6z"/>
	</g>
	<g>
		<path fill="#15161A" d="M27,20.6c-0.5,0.2-0.9,0.4-1.4,0.5c-0.1,0,0,0.1,0,0.1C26.1,21.1,26.6,20.9,27,20.6
			C27.1,20.7,27,20.6,27,20.6L27,20.6z"/>
	</g>
	<g>
		<path fill="#15161A" d="M26.8,20.2c-0.2,0.1-0.5,0.2-0.7,0.3c0,0,0,0,0,0.1c0,0,0,0.1,0.1,0c0.2-0.1,0.5-0.2,0.7-0.3
			C26.9,20.3,26.9,20.3,26.8,20.2C26.9,20.2,26.9,20.2,26.8,20.2L26.8,20.2z"/>
	</g>
	<g>
		<path fill="#15161A" d="M26.6,20c-0.1,0-0.3,0.1-0.4,0.1c0,0,0,0,0,0.1c0,0,0,0,0.1,0c0.1,0,0.3-0.1,0.4-0.1
			C26.6,20.1,26.6,20,26.6,20C26.6,20,26.6,20,26.6,20L26.6,20z"/>
	</g>
	<g>
		<path fill="#15161A" d="M44.3,18.2c-1.1,0.6-2.2,1.2-3.2,1.8c-0.1,0,0,0.1,0.1,0.1C42.2,19.6,43.3,19,44.3,18.2
			C44.4,18.3,44.4,18.2,44.3,18.2L44.3,18.2z"/>
	</g>
	<g>
		<path fill="#15161A" d="M41.1,20.2c0.3,1.4,0.6,2.7,0.9,4.1c0,0.1,0.1,0,0.1,0c-0.3-1.4-0.6-2.7-0.9-4.1
			C41.2,20.1,41.1,20.2,41.1,20.2L41.1,20.2z"/>
	</g>
	<g>
		<path fill="#15161A" d="M46.6,20.9c-0.5,0.5-1.2,0.8-1.8,1.2c-0.7,0.4-1.3,0.8-2,1.2c-0.1,0,0,0.1,0.1,0.1c0.7-0.4,1.3-0.8,2-1.2
			C45.6,21.9,46.2,21.5,46.6,20.9C46.8,21,46.7,20.9,46.6,20.9L46.6,20.9z"/>
	</g>
	<g>
		<path fill="#15161A" d="M47.5,21.3c-0.7,0.4-1.4,0.9-2,1.3c-0.8,0.5-1.7,1-2.5,1.5c-0.3,0.2-0.7,0.4-1,0.6c-0.1,0,0,0.1,0.1,0.1
			c0.7-0.4,1.4-0.9,2.1-1.3c0.8-0.5,1.7-1,2.5-1.5C46.9,21.8,47.2,21.6,47.5,21.3C47.6,21.3,47.5,21.3,47.5,21.3L47.5,21.3z"/>
	</g>
	<g>
		<path fill="#15161A" d="M47.9,21.4c-0.6,0.4-1.2,0.8-1.8,1.2c-0.8,0.5-1.6,1-2.4,1.5c-0.3,0.2-0.6,0.4-0.9,0.6
			c-0.1,0,0,0.1,0.1,0.1c0.6-0.4,1.3-0.8,1.9-1.2c0.8-0.5,1.6-1,2.4-1.5C47.3,21.9,47.6,21.7,47.9,21.4C48,21.4,47.9,21.3,47.9,21.4
			L47.9,21.4z"/>
	</g>
	<g>
		<path fill="#15161A" d="M48.1,21.5c-0.5,0.4-1,0.7-1.6,1.1c-0.7,0.5-1.4,1-2.2,1.5c-0.3,0.2-0.5,0.3-0.8,0.5c-0.1,0,0,0.1,0.1,0.1
			c0.5-0.4,1.1-0.8,1.6-1.1c0.7-0.5,1.4-1,2.1-1.4C47.7,21.9,47.9,21.7,48.1,21.5C48.2,21.5,48.2,21.4,48.1,21.5L48.1,21.5z"/>
	</g>
	<g>
		<path fill="#15161A" d="M41.3,20c0.3,1.3,0.7,2.6,1.2,3.9c0,0.1,0.1,0,0.1,0c-0.4-1.3-0.8-2.6-1.2-3.9
			C41.4,19.9,41.3,19.9,41.3,20L41.3,20z"/>
	</g>
	<g>
		<path fill="#15161A" d="M41.5,19.6c0.5,1.3,1,2.7,1.3,4c0,0.1,0.1,0,0.1,0c-0.4-1.4-0.9-2.7-1.3-4C41.6,19.5,41.5,19.5,41.5,19.6
			L41.5,19.6z"/>
	</g>
	<g>
		<path fill="#15161A" d="M44,18c0.5,0.5,0.8,1.1,1.2,1.6c0.4,0.6,0.8,1.2,1.2,1.7c0,0.1,0.1,0,0.1-0.1c-0.4-0.6-0.8-1.2-1.2-1.8
			C44.9,19,44.6,18.4,44,18C44.1,17.9,44,18,44,18L44,18z"/>
	</g>
	<g>
		<path fill="#15161A" d="M43.9,18.1c0.8,1.2,1.5,2.3,2.3,3.5c0,0.1,0.1,0,0.1-0.1C45.5,20.4,44.7,19.2,43.9,18.1
			C43.9,18,43.8,18.1,43.9,18.1L43.9,18.1z"/>
	</g>
	<g>
		<path fill="#15161A" d="M43.6,18.3c0.7,1.2,1.4,2.3,2.1,3.5c0,0.1,0.1,0,0.1-0.1C45.1,20.6,44.4,19.4,43.6,18.3
			C43.7,18.2,43.6,18.3,43.6,18.3L43.6,18.3z"/>
	</g>
	<g>
		<path fill="#15161A" d="M43.3,18.5c0.7,1.2,1.3,2.4,2,3.6c0,0.1,0.1,0,0.1-0.1C44.7,20.8,44.1,19.6,43.3,18.5
			C43.3,18.3,43.3,18.4,43.3,18.5L43.3,18.5z"/>
	</g>
	<g>
		<path fill="#15161A" d="M43,18.7c0.7,1.2,1.3,2.4,1.9,3.7c0,0.1,0.1,0,0.1-0.1C44.4,21,43.7,19.8,43,18.7
			C43,18.5,42.9,18.6,43,18.7L43,18.7z"/>
	</g>
	<g>
		<path fill="#15161A" d="M42.7,18.8c0.6,1.3,1.2,2.6,1.8,4c0,0.1,0.1,0,0.1-0.1C44,21.4,43.4,20.1,42.7,18.8
			C42.7,18.7,42.6,18.8,42.7,18.8L42.7,18.8z"/>
	</g>
	<g>
		<path fill="#15161A" d="M42.4,19c0.6,1.3,1.2,2.6,1.7,4c0,0.1,0.1,0,0.1,0C43.7,21.5,43.1,20.2,42.4,19
			C42.5,18.8,42.4,18.9,42.4,19L42.4,19z"/>
	</g>
	<g>
		<path fill="#15161A" d="M42.1,19.2c0.6,1.3,1.1,2.7,1.6,4c0,0.1,0.1,0,0.1,0C43.3,21.8,42.8,20.4,42.1,19.2
			C42.2,19,42.1,19.1,42.1,19.2L42.1,19.2z"/>
	</g>
	<g>
		<path fill="#15161A" d="M41.8,19.4c0.6,1.4,1.1,2.7,1.5,4.1c0,0.1,0.1,0,0.1,0c-0.5-1.4-1-2.8-1.5-4.1
			C41.9,19.3,41.8,19.3,41.8,19.4L41.8,19.4z"/>
	</g>
	<g>
		<path fill="#15161A" d="M46.6,20.7c-0.8,0.6-1.7,1.1-2.6,1.6c-0.1,0,0,0.1,0.1,0.1C45,21.9,45.8,21.4,46.6,20.7
			C46.7,20.8,46.7,20.7,46.6,20.7L46.6,20.7z"/>
	</g>
	<g>
		<path fill="#15161A" d="M37.1,21.6c0.7,1.3,1.4,2.6,2.1,3.8c0,0.1,0.1,0,0.1-0.1C38.6,24.1,37.9,22.8,37.1,21.6
			C37.2,21.5,37.1,21.5,37.1,21.6L37.1,21.6z"/>
	</g>
	<g>
		<path fill="#15161A" d="M36.8,21.7c0.7,1.3,1.4,2.7,2.1,4c0,0.1,0.1,0,0.1-0.1C38.3,24.3,37.6,23,36.8,21.7
			C36.8,21.6,36.7,21.7,36.8,21.7L36.8,21.7z"/>
	</g>
	<g>
		<path fill="#15161A" d="M36.5,21.8c0.6,1.4,1.3,2.8,2,4.1c0,0.1,0.1,0,0.1-0.1C37.9,24.6,37.2,23.2,36.5,21.8
			C36.5,21.7,36.4,21.8,36.5,21.8L36.5,21.8z"/>
	</g>
	<g>
		<path fill="#15161A" d="M32.7,23.5c0.3,1.4,0.6,2.8,0.9,4.2c0.1,0.4,0.1,0.7,0.3,1.1c0,0.1,0.1,0,0.1-0.1
			c-0.2-0.3-0.2-0.6-0.3-0.9c-0.1-0.3-0.1-0.7-0.2-1c-0.1-0.7-0.3-1.4-0.4-2c-0.1-0.4-0.2-0.8-0.3-1.2
			C32.7,23.4,32.6,23.4,32.7,23.5L32.7,23.5z"/>
	</g>
	<g>
		<path fill="#15161A" d="M32.9,23.4c0.3,1.3,0.7,2.6,1,4c0.1,0.4,0.2,0.8,0.3,1.1c0,0.1,0.1,0,0.1,0c-0.3-1.3-0.7-2.6-1-4
			c-0.1-0.4-0.2-0.8-0.3-1.1C33,23.3,32.9,23.3,32.9,23.4L32.9,23.4z"/>
	</g>
	<g>
		<path fill="#15161A" d="M33.2,23.3c0.2,0.6,0.4,1.3,0.6,1.9c0.2,0.6,0.4,1.3,0.5,1.9c0.1,0.4,0.2,0.7,0.2,1.1c0,0.1,0.1,0,0.1,0
			c-0.1-0.6-0.3-1.3-0.4-1.9c-0.2-0.6-0.4-1.3-0.6-1.9c-0.1-0.4-0.2-0.7-0.3-1.1C33.3,23.2,33.2,23.2,33.2,23.3L33.2,23.3z"/>
	</g>
	<g>
		<path fill="#15161A" d="M33.5,23.1c0.4,1.3,0.8,2.6,1.1,3.9c0.1,0.4,0.2,0.7,0.3,1.1c0,0.1,0.1,0,0.1,0c-0.3-1.3-0.7-2.6-1.1-3.9
			c-0.1-0.4-0.2-0.7-0.3-1.1C33.6,23,33.5,23,33.5,23.1L33.5,23.1z"/>
	</g>
	<g>
		<path fill="#15161A" d="M33.9,23c0.4,1.2,0.8,2.5,1.1,3.7c0.1,0.4,0.2,0.7,0.3,1.1c0,0.1,0.1,0,0.1,0c-0.4-1.2-0.8-2.5-1.1-3.7
			c-0.1-0.4-0.2-0.7-0.3-1.1C34,22.9,33.9,22.9,33.9,23L33.9,23z"/>
	</g>
	<g>
		<path fill="#15161A" d="M34.2,22.9c0.4,1.2,0.8,2.4,1.2,3.6c0.1,0.3,0.2,0.7,0.3,1c0,0.1,0.1,0,0.1,0c-0.4-1.2-0.8-2.4-1.2-3.6
			c-0.1-0.3-0.2-0.7-0.4-1C34.3,22.8,34.2,22.8,34.2,22.9L34.2,22.9z"/>
	</g>
	<g>
		<path fill="#15161A" d="M34.5,22.7c0.4,1.2,0.8,2.4,1.3,3.6c0.1,0.3,0.2,0.7,0.4,1c0,0.1,0.1,0,0.1,0c-0.4-1.2-0.9-2.4-1.3-3.6
			c-0.1-0.3-0.2-0.7-0.3-1C34.6,22.6,34.5,22.6,34.5,22.7L34.5,22.7z"/>
	</g>
	<g>
		<path fill="#15161A" d="M34.8,22.5c0.4,1.2,0.9,2.3,1.3,3.5c0.1,0.3,0.3,0.7,0.4,1c0,0.1,0.1,0,0.1,0c-0.5-1.2-0.9-2.3-1.4-3.5
			c-0.1-0.3-0.3-0.7-0.4-1C34.9,22.4,34.8,22.5,34.8,22.5L34.8,22.5z"/>
	</g>
	<g>
		<path fill="#15161A" d="M35.1,22.4c0.5,1.1,1,2.3,1.4,3.5c0.1,0.3,0.3,0.7,0.4,1c0,0.1,0.1,0,0.1,0c-0.5-1.2-0.9-2.3-1.4-3.5
			C35.4,23,35.3,22.7,35.1,22.4C35.1,22.3,35,22.4,35.1,22.4L35.1,22.4z"/>
	</g>
	<g>
		<path fill="#15161A" d="M35.4,22.3c0.5,1.1,1.1,2.2,1.5,3.4c0.1,0.3,0.3,0.7,0.4,1c0,0.1,0.1,0,0.1,0c-0.5-1.1-1-2.3-1.5-3.4
			C35.8,22.9,35.6,22.6,35.4,22.3C35.4,22.2,35.4,22.2,35.4,22.3L35.4,22.3z"/>
	</g>
	<g>
		<path fill="#15161A" d="M35.7,22.2c0.5,1.1,1,2.2,1.5,3.4c0.2,0.3,0.3,0.6,0.4,0.9c0,0.1,0.1,0,0.1,0c-0.1-0.3-0.2-0.5-0.4-0.8
			c-0.1-0.3-0.3-0.6-0.4-0.8c-0.3-0.6-0.5-1.1-0.8-1.7C36.1,22.8,36,22.5,35.7,22.2C35.8,22.1,35.7,22.1,35.7,22.2L35.7,22.2z"/>
	</g>
	<g>
		<path fill="#15161A" d="M36.1,22.1c0.6,1.4,1.3,2.8,1.9,4.2c0,0.1,0.1,0,0.1-0.1C37.5,24.8,36.8,23.4,36.1,22.1
			C36.1,21.9,36,22,36.1,22.1L36.1,22.1z"/>
	</g>
	<g>
		<path fill="#15161A" d="M39.4,25.1c-1.3,0.7-2.6,1.5-3.9,2.2c-0.1,0,0,0.1,0.1,0.1C36.9,26.7,38.2,26,39.4,25.1
			C39.5,25.2,39.5,25.1,39.4,25.1L39.4,25.1z"/>
	</g>
	<g>
		<path fill="#15161A" d="M39.3,24.9c-0.5,0.2-1,0.5-1.5,0.9c-0.1,0,0,0.1,0.1,0.1C38.3,25.5,38.8,25.2,39.3,24.9
			C39.4,24.9,39.4,24.8,39.3,24.9L39.3,24.9z"/>
	</g>
	<g>
		<path fill="#15161A" d="M39.2,24.5c-0.3,0.2-0.6,0.4-1,0.6c-0.1,0,0,0.1,0.1,0.1C38.6,25,38.9,24.8,39.2,24.5
			C39.3,24.6,39.3,24.5,39.2,24.5L39.2,24.5z"/>
	</g>
	<g>
		<path fill="#15161A" d="M38.9,24.3c-0.2,0.2-0.5,0.3-0.7,0.5c-0.1,0,0,0.1,0.1,0.1C38.5,24.7,38.8,24.5,38.9,24.3
			C39.1,24.3,39,24.2,38.9,24.3L38.9,24.3z"/>
	</g>
	<g>
		<path fill="#15161A" d="M38.7,24.1c-0.2,0.1-0.3,0.2-0.5,0.3c-0.1,0,0,0.1,0.1,0.1C38.5,24.4,38.6,24.3,38.7,24.1
			C38.9,24.2,38.8,24.1,38.7,24.1L38.7,24.1z"/>
	</g>
	<g>
		<path fill="#15161A" d="M38.7,23.8c-0.1,0.1-0.2,0.1-0.3,0.2c0,0,0,0,0,0.1c0,0,0.1,0,0.1,0C38.6,24.1,38.7,24,38.7,23.8
			C38.8,23.9,38.8,23.9,38.7,23.8C38.8,23.8,38.7,23.8,38.7,23.8L38.7,23.8z"/>
	</g>
	<g>
		<path fill="#15161A" d="M37.4,21.7c-1.2,0.6-2.4,1.1-3.6,1.6c-0.4,0.1-0.7,0.3-1.1,0.4c-0.1,0,0,0.1,0,0.1
			c1.3-0.4,2.5-0.9,3.7-1.5C36.8,22.1,37.1,22,37.4,21.7C37.5,21.8,37.5,21.7,37.4,21.7L37.4,21.7z"/>
	</g>
	<g>
		<path fill="#15161A" d="M16.5,14.4c-0.8,0.2-1.7,0.4-2.5,0.6c-0.1,0,0,0.1,0,0.1c0.8-0.2,1.7-0.4,2.5-0.6
			C16.6,14.5,16.5,14.4,16.5,14.4L16.5,14.4z"/>
	</g>
	<g>
		<path fill="#15161A" d="M16.8,14.6c-0.6,0.1-1.1,0.3-1.7,0.5c-0.1,0,0,0.1,0,0.1c0.6-0.2,1.1-0.4,1.7-0.5
			C16.9,14.7,16.9,14.6,16.8,14.6L16.8,14.6z"/>
	</g>
	<g>
		<path fill="#15161A" d="M17.6,14.6c-0.5,0.2-1,0.4-1.5,0.5c-0.1,0,0,0.1,0,0.1c0.5-0.2,1-0.4,1.5-0.5
			C17.7,14.7,17.6,14.6,17.6,14.6L17.6,14.6z"/>
	</g>
	<g>
		<path fill="#15161A" d="M18.2,14.8c-0.4,0.1-0.9,0.3-1.3,0.6c-0.1,0,0,0.1,0.1,0.1c0.4-0.2,0.8-0.4,1.3-0.5
			C18.3,14.8,18.2,14.7,18.2,14.8L18.2,14.8z"/>
	</g>
	<g>
		<path fill="#15161A" d="M19.2,14.8C19.2,14.8,19.2,14.8,19.2,14.8C19.1,14.8,19.1,14.8,19.2,14.8C19.1,14.8,19.1,14.8,19.2,14.8
			C19.1,14.7,19.1,14.7,19.2,14.8c-0.1,0-0.1,0-0.2,0c0,0-0.1,0-0.1,0c-0.1,0-0.1,0.1-0.2,0.1c-0.1,0.1-0.3,0.1-0.4,0.2
			c-0.3,0.1-0.5,0.2-0.8,0.3c-0.1,0,0,0.1,0,0.1c0.3-0.1,0.7-0.3,1-0.4c0.2-0.1,0.3-0.1,0.5-0.2C19.1,14.8,19.2,14.8,19.2,14.8
			c0.1,0,0-0.1,0-0.1C19.1,14.7,19.1,14.7,19.2,14.8C19.1,14.7,19.1,14.7,19.2,14.8C19,14.7,19.1,14.8,19.2,14.8L19.2,14.8z"/>
	</g>
	<g>
		<path fill="#15161A" d="M13.1,17.3c-0.9,0.4-1.9,0.7-2.8,0.9c-0.1,0,0,0.1,0,0.1c1-0.2,1.9-0.5,2.8-0.9
			C13.2,17.4,13.2,17.3,13.1,17.3L13.1,17.3z"/>
	</g>
	<g>
		<path fill="#15161A" d="M12.5,17.1c-0.9,0.3-1.7,0.6-2.6,0.9c-0.1,0,0,0.1,0,0.1c0.9-0.3,1.8-0.6,2.6-0.9
			C12.6,17.2,12.6,17.1,12.5,17.1L12.5,17.1z"/>
	</g>
	<g>
		<path fill="#15161A" d="M11.7,17c-0.8,0.2-1.6,0.5-2.3,0.7c-0.1,0,0,0.1,0,0.1c0.8-0.3,1.6-0.5,2.3-0.7C11.8,17.1,11.8,17,11.7,17
			L11.7,17z"/>
	</g>
	<g>
		<path fill="#15161A" d="M10.5,16.9c-0.8,0.2-1.6,0.5-2.4,0.7c-0.1,0,0,0.1,0,0.1c0.8-0.2,1.6-0.4,2.4-0.7
			C10.6,17,10.6,16.9,10.5,16.9L10.5,16.9z"/>
	</g>
	<g>
		<path fill="#15161A" d="M9.6,16.7c-0.9,0.2-1.8,0.5-2.8,0.7c-0.1,0,0,0.1,0,0.1c0.9-0.2,1.8-0.5,2.8-0.7
			C9.7,16.8,9.7,16.7,9.6,16.7L9.6,16.7z"/>
	</g>
	<g>
		<path fill="#15161A" d="M8.7,16.5C7.8,16.7,6.9,17,6,17.3c-0.1,0,0,0.1,0,0.1c0.9-0.3,1.8-0.5,2.8-0.7C8.8,16.6,8.8,16.5,8.7,16.5
			L8.7,16.5z"/>
	</g>
	<g>
		<path fill="#15161A" d="M24.3,18.7c-0.9,0.4-1.8,0.8-2.6,1.1c-0.1,0,0,0.1,0.1,0.1c0.9-0.4,1.7-0.8,2.6-1.1
			C24.4,18.8,24.4,18.7,24.3,18.7L24.3,18.7z"/>
	</g>
	<g>
		<path fill="#15161A" d="M23.3,18.6c-0.8,0.3-1.7,0.7-2.5,1.1c-0.1,0,0,0.1,0.1,0.1c0.8-0.4,1.6-0.7,2.5-1.1
			C23.4,18.7,23.3,18.6,23.3,18.6L23.3,18.6z"/>
	</g>
	<g>
		<path fill="#15161A" d="M22.3,18.3c-0.8,0.4-1.6,0.8-2.4,1.2c-0.1,0,0,0.1,0.1,0.1C20.7,19.3,21.5,18.8,22.3,18.3
			C22.4,18.4,22.4,18.3,22.3,18.3L22.3,18.3z"/>
	</g>
	<g>
		<path fill="#15161A" d="M21.6,18.2c-0.8,0.4-1.7,0.8-2.5,1.2c-0.1,0,0,0.1,0.1,0.1C20,19.1,20.8,18.7,21.6,18.2
			C21.7,18.3,21.6,18.2,21.6,18.2L21.6,18.2z"/>
	</g>
	<g>
		<path fill="#15161A" d="M20.8,18.1c-0.8,0.4-1.6,0.8-2.4,1.1c-0.1,0,0,0.1,0.1,0.1C19.2,18.9,20,18.6,20.8,18.1
			C20.9,18.1,20.8,18,20.8,18.1L20.8,18.1z"/>
	</g>
	<g>
		<path fill="#15161A" d="M20,17.9c-0.9,0.4-1.8,0.9-2.7,1.3c-0.1,0,0,0.1,0.1,0.1C18.3,18.9,19.1,18.4,20,17.9
			C20.1,18,20,17.9,20,17.9L20,17.9z"/>
	</g>
	<g>
		<path fill="#15161A" d="M19.1,17.8c-1,0.5-2.1,0.8-3,1.4c-0.1,0,0,0.1,0.1,0.1C17.1,18.7,18.2,18.4,19.1,17.8
			C19.2,17.9,19.1,17.8,19.1,17.8L19.1,17.8z"/>
	</g>
	<g>
		<path fill="#15161A" d="M30.5,16.3c-0.6,0.3-1.3,0.5-2,0.8c-0.1,0,0,0.1,0,0.1C29.3,17,29.9,16.7,30.5,16.3
			C30.7,16.4,30.6,16.3,30.5,16.3L30.5,16.3z"/>
	</g>
	<g>
		<path fill="#15161A" d="M29.7,16.2c-0.6,0.3-1.3,0.6-1.9,0.9c-0.1,0,0,0.1,0,0.1C28.5,16.9,29.1,16.6,29.7,16.2
			C29.8,16.3,29.8,16.2,29.7,16.2L29.7,16.2z"/>
	</g>
	<g>
		<path fill="#15161A" d="M29.1,16c-0.7,0.3-1.3,0.6-2,1c-0.1,0,0,0.1,0.1,0.1C27.8,16.8,28.5,16.5,29.1,16
			C29.2,16.1,29.2,16,29.1,16L29.1,16z"/>
	</g>
	<g>
		<path fill="#15161A" d="M28.4,15.9c-0.1,0.1-0.3,0.2-0.5,0.3c-0.2,0.1-0.4,0.2-0.6,0.3c-0.4,0.2-0.8,0.4-1.2,0.5
			c-0.1,0,0,0.1,0.1,0.1c0.4-0.2,0.8-0.4,1.2-0.6C27.8,16.4,28.2,16.2,28.4,15.9C28.5,15.9,28.5,15.8,28.4,15.9L28.4,15.9z"/>
	</g>
	<g>
		<path fill="#15161A" d="M27.8,15.7c-0.7,0.4-1.4,0.7-2.1,1.1c-0.1,0,0,0.1,0.1,0.1C26.5,16.6,27.2,16.2,27.8,15.7
			C28,15.8,27.9,15.7,27.8,15.7L27.8,15.7z"/>
	</g>
	<g>
		<path fill="#15161A" d="M27.2,15.7c-0.7,0.3-1.4,0.7-2.1,1c-0.1,0,0,0.1,0.1,0.1C25.8,16.4,26.5,16.1,27.2,15.7
			C27.3,15.8,27.2,15.7,27.2,15.7L27.2,15.7z"/>
	</g>
	<g>
		<path fill="#15161A" d="M26.4,15.5c-0.8,0.3-1.6,0.7-2.4,1.1c-0.1,0,0,0.1,0.1,0.1c0.8-0.4,1.6-0.7,2.3-1
			C26.5,15.6,26.5,15.5,26.4,15.5L26.4,15.5z"/>
	</g>
	<g>
		<path fill="#15161A" d="M35.6,21.5c-0.5,0.2-1,0.4-1.4,0.6c-0.2,0.1-0.5,0.2-0.7,0.3c-0.2,0.1-0.4,0.1-0.6,0.3
			c0,0.1,0,0.1,0.1,0.1c0.1-0.1,0.2-0.1,0.3-0.2c0.1-0.1,0.2-0.1,0.4-0.2c0.2-0.1,0.5-0.2,0.7-0.3C34.7,22,35.2,21.8,35.6,21.5
			C35.7,21.5,35.7,21.4,35.6,21.5L35.6,21.5z"/>
	</g>
	<g>
		<path fill="#15161A" d="M34.8,21.4c-0.8,0.4-1.6,0.7-2.4,1.1c-0.1,0,0,0.1,0.1,0.1C33.2,22.2,34,21.8,34.8,21.4
			C34.9,21.4,34.8,21.3,34.8,21.4L34.8,21.4z"/>
	</g>
	<g>
		<path fill="#15161A" d="M34,21.2c-0.9,0.3-1.7,0.7-2.6,1.1c-0.1,0,0,0.1,0.1,0.1c0.8-0.4,1.7-0.8,2.5-1.1
			C34.1,21.3,34.1,21.2,34,21.2L34,21.2z"/>
	</g>
	<g>
		<path fill="#15161A" d="M33.2,21c-0.8,0.4-1.7,0.7-2.5,1.1c-0.1,0,0,0.1,0,0.1C31.6,21.9,32.4,21.5,33.2,21
			C33.4,21.1,33.3,21,33.2,21L33.2,21z"/>
	</g>
	<g>
		<path fill="#15161A" d="M32.4,20.9c-1,0.4-2,0.9-3,1.3c-0.1,0,0,0.1,0.1,0.1C30.5,21.9,31.5,21.4,32.4,20.9
			C32.5,21,32.5,20.9,32.4,20.9L32.4,20.9z"/>
	</g>
	<g>
		<path fill="#15161A" d="M31.3,20.7c-0.8,0.4-1.7,0.9-2.6,1.3c-0.1,0,0,0.1,0.1,0.1C29.7,21.7,30.5,21.3,31.3,20.7
			C31.4,20.8,31.4,20.7,31.3,20.7L31.3,20.7z"/>
	</g>
	<g>
		<path fill="#15161A" d="M30.5,20.6c-0.7,0.4-1.5,0.8-2.3,1.2c-0.1,0,0,0.1,0.1,0.1C29.1,21.5,29.8,21.1,30.5,20.6
			C30.6,20.6,30.6,20.5,30.5,20.6L30.5,20.6z"/>
	</g>
	<g>
		<path fill="#15161A" d="M29.7,20.6c-0.6,0.3-1.3,0.7-1.9,1c-0.1,0,0,0.1,0.1,0.1C28.5,21.4,29.1,21,29.7,20.6
			C29.8,20.7,29.8,20.6,29.7,20.6L29.7,20.6z"/>
	</g>
	<g>
		<path fill="#15161A" d="M42.9,17.8c-0.8,0.4-1.5,0.9-2.3,1.3c-0.1,0,0,0.1,0.1,0.1C41.5,18.8,42.2,18.3,42.9,17.8
			C43.1,17.8,43,17.7,42.9,17.8L42.9,17.8z"/>
	</g>
	<g>
		<path fill="#15161A" d="M42.1,17.7c-0.6,0.4-1.2,0.8-1.9,1.2c-0.1,0,0,0.1,0.1,0.1C40.9,18.6,41.5,18.2,42.1,17.7
			C42.2,17.7,42.1,17.6,42.1,17.7L42.1,17.7z"/>
	</g>
	<g>
		<path fill="#15161A" d="M41.2,17.7c-0.5,0.4-1.1,0.7-1.6,1.1c-0.1,0,0,0.1,0.1,0.1C40.2,18.5,40.7,18.2,41.2,17.7
			C41.3,17.7,41.3,17.6,41.2,17.7L41.2,17.7z"/>
	</g>
	<g>
		<path fill="#15161A" d="M40.8,17.4c-0.6,0.5-1.2,0.9-1.8,1.3c-0.1,0,0,0.1,0.1,0.1C39.6,18.4,40.2,18,40.8,17.4
			C40.9,17.5,40.8,17.4,40.8,17.4L40.8,17.4z"/>
	</g>
	<g>
		<path fill="#15161A" d="M40,17.4c-0.5,0.4-1.1,0.8-1.7,1.1c-0.1,0,0,0.1,0.1,0.1C39,18.3,39.5,17.9,40,17.4
			C40.1,17.5,40.1,17.4,40,17.4L40,17.4z"/>
	</g>
	<g>
		<path fill="#15161A" d="M39.3,17.3c-0.5,0.4-1,0.7-1.5,1.1c-0.1,0,0,0.1,0.1,0.1C38.3,18.1,38.8,17.8,39.3,17.3
			C39.4,17.4,39.3,17.3,39.3,17.3L39.3,17.3z"/>
	</g>
	<g>
		<path fill="#15161A" d="M38.4,17.3c-0.6,0.4-1.2,0.9-1.9,1.3c-0.1,0,0,0.1,0.1,0.1C37.2,18.3,37.8,17.8,38.4,17.3
			C38.5,17.4,38.4,17.3,38.4,17.3L38.4,17.3z"/>
	</g>
	<g>
		<path fill="#15161A" d="M37.8,17.1c0,0.1-0.1,0.1-0.2,0.2c-0.1,0.1-0.2,0.1-0.2,0.2c-0.2,0.1-0.3,0.2-0.5,0.3
			c-0.3,0.2-0.6,0.4-0.9,0.7c-0.1,0,0,0.1,0.1,0.1c0.3-0.2,0.6-0.5,1-0.7c0.2-0.1,0.3-0.2,0.5-0.3C37.6,17.4,37.8,17.3,37.8,17.1
			C37.9,17.1,37.8,17,37.8,17.1L37.8,17.1z"/>
	</g>
	<g>
		<path fill="#15161A" d="M37,17.1c-0.6,0.5-1.3,0.8-1.8,1.3c-0.1,0.1,0,0.1,0.1,0.1C35.8,17.9,36.5,17.6,37,17.1
			C37.1,17.1,37,17,37,17.1L37,17.1z"/>
	</g>
	<g>
		<path fill="#15161A" d="M36.5,16.9c-0.7,0.5-1.3,1-2,1.5c-0.1,0,0,0.1,0.1,0.1C35.2,17.9,35.8,17.4,36.5,16.9
			C36.6,16.9,36.5,16.8,36.5,16.9L36.5,16.9z"/>
	</g>
	<g>
		<path fill="#15161A" d="M35.6,16.8c-0.7,0.4-1.4,0.9-2.1,1.4c-0.1,0,0,0.1,0.1,0.1C34.3,17.8,35,17.4,35.6,16.8
			C35.7,16.9,35.7,16.8,35.6,16.8L35.6,16.8z"/>
	</g>
	<g>
		<path fill="#15161A" d="M21.7,16.9c-0.2,0.3-0.3,0.6-0.4,0.9c0,0,0,0.1,0,0.1c0,0,0.1,0,0.1,0C21.5,17.5,21.6,17.2,21.7,16.9
			C21.8,16.9,21.7,16.8,21.7,16.9L21.7,16.9z"/>
	</g>
	<g>
		<path fill="#15161A" d="M32,18.7c-0.2,0.5-0.5,1-0.7,1.5c0,0.1,0.1,0.1,0.1,0C31.7,19.7,31.9,19.3,32,18.7
			C32.2,18.7,32.1,18.7,32,18.7L32,18.7z"/>
	</g>
	<g>
		<path fill="#15161A" d="M23.5,25.4c-0.6,0.4-1.2,0.7-1.8,1c-0.1,0,0,0.1,0.1,0.1C22.4,26.2,23,25.9,23.5,25.4
			C23.7,25.5,23.6,25.4,23.5,25.4L23.5,25.4z"/>
	</g>
	<g>
		<path fill="#15161A" d="M23.6,25.7c-0.3,0.2-0.6,0.4-0.9,0.5c-0.1,0,0,0.1,0.1,0.1C23,26.2,23.3,26,23.6,25.7
			C23.7,25.8,23.6,25.7,23.6,25.7L23.6,25.7z"/>
	</g>
	<g>
		<path fill="#15161A" d="M23.4,26.2c-0.1,0.1-0.2,0.1-0.4,0.2c0,0,0,0,0,0.1c0,0,0.1,0,0.1,0C23.2,26.4,23.3,26.3,23.4,26.2
			C23.5,26.2,23.5,26.2,23.4,26.2C23.4,26.1,23.4,26.1,23.4,26.2L23.4,26.2z"/>
	</g>
	<g>
		<path fill="#15161A" d="M39.8,25.6c-1.6,1-3.3,1.9-4.9,2.9c-0.5,0.3-0.9,0.5-1.4,0.8c-0.1,0,0,0.1,0.1,0.1
			c1.7-0.9,3.3-1.9,4.9-2.9C39,26.2,39.4,25.9,39.8,25.6C39.9,25.6,39.9,25.5,39.8,25.6L39.8,25.6z"/>
	</g>
	<g>
		<path fill="#15161A" d="M41.7,25.7c-0.6,0.3-1.1,0.6-1.6,0.9c-0.5,0.3-1.1,0.6-1.6,0.9c-1,0.5-1.9,1.1-2.9,1.6
			c-0.5,0.3-1,0.6-1.5,0.9c-0.1,0,0,0.1,0.1,0.1c0.9-0.5,1.9-1.1,2.8-1.7c0.5-0.3,0.9-0.5,1.4-0.8c0.5-0.3,1-0.5,1.6-0.8
			C40.5,26.5,41.1,26.2,41.7,25.7C41.8,25.8,41.7,25.7,41.7,25.7L41.7,25.7z"/>
	</g>
	<g>
		<path fill="#15161A" d="M40.9,25.7c-1,0.6-2,1.1-3,1.6c-0.5,0.3-1,0.5-1.4,0.8c-0.4,0.2-0.8,0.5-1.3,0.8c-0.5,0.3-0.9,0.6-1.4,0.9
			c-0.1,0,0,0.1,0.1,0.1c0.8-0.5,1.7-1,2.5-1.5c0.9-0.6,1.9-1,2.9-1.5C39.9,26.5,40.4,26.2,40.9,25.7C41.1,25.8,41,25.7,40.9,25.7
			L40.9,25.7z"/>
	</g>
	<g>
		<path fill="#15161A" d="M40.3,25.7c-0.6,0.4-1.3,0.7-1.9,1.1c-0.6,0.3-1.2,0.6-1.8,1c-0.2,0.1-0.4,0.3-0.6,0.4
			c-0.4,0.2-0.7,0.5-1.1,0.7c-0.4,0.2-0.7,0.4-1.1,0.6c-0.1,0,0,0.1,0.1,0.1c0.7-0.4,1.4-0.8,2.1-1.2c0.2-0.1,0.5-0.3,0.7-0.4
			c0.2-0.1,0.4-0.2,0.6-0.3c0.3-0.2,0.6-0.3,1-0.5C38.9,26.6,39.6,26.2,40.3,25.7C40.4,25.8,40.4,25.7,40.3,25.7L40.3,25.7z"/>
	</g>
	<g>
		<path fill="#15161A" d="M48.3,22c0.2,1.2,0.5,2.4,0.6,3.7c0,0.4,0.1,0.7,0.1,1.1c0,0.1,0.1,0.1,0.1,0c-0.1-1.2-0.3-2.5-0.6-3.7
			c-0.1-0.4-0.1-0.7-0.2-1.1C48.4,21.9,48.3,21.9,48.3,22L48.3,22z"/>
	</g>
	<g>
		<path fill="#15161A" d="M48.1,22.2c0,0.3,0,0.6,0,0.9c0.1,0.3,0.1,0.6,0.2,1c0.1,0.6,0.2,1.3,0.3,1.9c0,0.4,0.1,0.7,0.1,1.1
			c0,0.1,0.1,0.1,0.1,0c-0.1-1.3-0.3-2.6-0.5-3.8c-0.1-0.4-0.1-0.7-0.1-1.1C48.2,22.2,48.1,22.2,48.1,22.2L48.1,22.2z"/>
	</g>
	<g>
		<path fill="#15161A" d="M47.6,22.5c0.3,1.3,0.5,2.6,0.7,3.8c0.1,0.4,0.1,0.7,0.2,1.1c0,0.1,0.1,0,0.1,0c-0.2-1.3-0.4-2.6-0.6-3.8
			c-0.1-0.4-0.1-0.7-0.2-1.1C47.7,22.4,47.6,22.4,47.6,22.5L47.6,22.5z"/>
	</g>
	<g>
		<path fill="#15161A" d="M47.2,22.9c0.2,0.6,0.3,1.2,0.4,1.8c0.1,0.6,0.2,1.3,0.3,1.9c0,0.4,0.1,0.7,0.1,1.1c0,0.1,0.1,0.1,0.1,0
			c-0.1-1.3-0.3-2.5-0.5-3.8c-0.1-0.3-0.1-0.7-0.3-1C47.2,22.8,47.1,22.9,47.2,22.9L47.2,22.9z"/>
	</g>
	<g>
		<path fill="#15161A" d="M46.9,23c0.1,0.6,0.2,1.3,0.3,1.9c0.1,0.6,0.2,1.3,0.3,1.9c0,0.4,0.1,0.7,0,1.1c0,0.1,0.1,0.1,0.1,0
			c0-0.6-0.1-1.3-0.2-1.9c-0.1-0.6-0.2-1.3-0.3-1.9C47.1,23.7,47,23.4,47,23C47,22.9,46.9,23,46.9,23L46.9,23z"/>
	</g>
	<g>
		<path fill="#15161A" d="M46.6,23.3c0.2,1.2,0.4,2.5,0.5,3.7c0,0.4,0.1,0.7,0.1,1.1c0,0.1,0.1,0.1,0.1,0c-0.1-1.3-0.2-2.5-0.4-3.8
			c-0.1-0.4-0.1-0.7-0.2-1.1C46.7,23.2,46.6,23.2,46.6,23.3L46.6,23.3z"/>
	</g>
	<g>
		<path fill="#15161A" d="M46.3,23.4c0.2,1.3,0.3,2.6,0.4,3.9c0,0.4,0.1,0.7,0.1,1.1c0,0.1,0.1,0.1,0.1,0c-0.1-1.3-0.2-2.6-0.3-3.9
			c0-0.4-0.1-0.7-0.1-1.1C46.4,23.3,46.3,23.3,46.3,23.4L46.3,23.4z"/>
	</g>
	<g>
		<path fill="#15161A" d="M46,23.6c0.1,1.3,0.2,2.6,0.3,3.9c0,0.4,0.1,0.7,0.1,1.1c0,0.1,0.1,0.1,0.1,0c-0.1-1.3-0.2-2.6-0.3-3.9
			c0-0.4-0.1-0.7-0.1-1.1C46.1,23.6,46,23.6,46,23.6L46,23.6z"/>
	</g>
	<g>
		<path fill="#15161A" d="M45.6,23.9c0.1,1.3,0.2,2.6,0.2,3.9c0,0.4,0,0.8,0.1,1.1c0,0.1,0.1,0.1,0.1,0c-0.1-1.3-0.2-2.6-0.2-3.9
			c0-0.4,0-0.8-0.1-1.1C45.8,23.8,45.6,23.8,45.6,23.9L45.6,23.9z"/>
	</g>
	<g>
		<path fill="#15161A" d="M45.3,24c0.1,1.3,0.1,2.7,0.2,4c0,0.4,0,0.8,0.1,1.1c0,0.1,0.1,0.1,0.1,0c-0.1-1.3-0.1-2.7-0.2-4
			c0-0.4,0-0.8-0.1-1.1C45.4,23.9,45.3,23.9,45.3,24L45.3,24z"/>
	</g>
	<g>
		<path fill="#15161A" d="M34,30.5c0.2,1.4,0.3,2.8,0.3,4.2c0,0.4,0,0.8,0,1.2c0,0.1,0.1,0.1,0.1,0c0-1.4-0.1-2.8-0.3-4.2
			c0-0.4-0.1-0.8-0.1-1.2C34.1,30.4,34,30.4,34,30.5L34,30.5z"/>
	</g>
	<g>
		<path fill="#15161A" d="M34.4,30.5c0.1,1.4,0.2,2.8,0.4,4.2c0,0.4,0.1,0.8,0.1,1.2c0,0.1,0.1,0,0.1,0c-0.1-0.7-0.1-1.4-0.2-2.1
			c-0.1-0.7-0.1-1.4-0.2-2.1c0-0.4-0.1-0.8-0.1-1.2C34.5,30.4,34.4,30.4,34.4,30.5L34.4,30.5z"/>
	</g>
	<g>
		<path fill="#15161A" d="M34.8,30.2c0.2,1.4,0.3,2.7,0.4,4.1c0,0.4,0.1,0.8,0.1,1.2c0,0.1,0.1,0.1,0.1,0c-0.1-1.4-0.2-2.7-0.4-4.1
			c0-0.4-0.1-0.8-0.1-1.2C34.9,30.1,34.8,30.1,34.8,30.2L34.8,30.2z"/>
	</g>
	<g>
		<path fill="#15161A" d="M35.1,30c0.2,1.3,0.3,2.7,0.5,4c0,0.4,0.1,0.8,0.1,1.1c0,0.1,0.1,0.1,0.1,0c-0.2-1.3-0.3-2.7-0.5-4
			c0-0.4-0.1-0.8-0.1-1.1C35.2,29.9,35.1,29.9,35.1,30L35.1,30z"/>
	</g>
	<g>
		<path fill="#15161A" d="M35.5,29.8c0.2,1.3,0.4,2.7,0.6,4c0.1,0.4,0.1,0.8,0.2,1.1c0,0.1,0.1,0,0.1,0c-0.2-1.3-0.4-2.7-0.6-4
			c-0.1-0.4-0.1-0.8-0.2-1.1C35.6,29.7,35.5,29.7,35.5,29.8L35.5,29.8z"/>
	</g>
	<g>
		<path fill="#15161A" d="M35.7,29.6c0.2,1.3,0.5,2.6,0.7,3.9c0.1,0.4,0.1,0.7,0.2,1.1c0,0.1,0.1,0,0.1,0c-0.2-1.3-0.5-2.6-0.7-3.9
			c-0.1-0.4-0.1-0.7-0.2-1.1C35.8,29.5,35.7,29.5,35.7,29.6L35.7,29.6z"/>
	</g>
	<g>
		<path fill="#15161A" d="M36.1,29.5c0.2,1.3,0.5,2.6,0.7,3.9c0.1,0.4,0.1,0.7,0.2,1.1c0,0.1,0.1,0,0.1,0c-0.2-1.3-0.5-2.6-0.7-3.9
			c-0.1-0.4-0.1-0.7-0.2-1.1C36.2,29.4,36.1,29.4,36.1,29.5L36.1,29.5z"/>
	</g>
	<g>
		<path fill="#15161A" d="M36.5,29.2c0.2,1.3,0.5,2.5,0.7,3.8c0.1,0.4,0.1,0.7,0.2,1.1c0,0.1,0.1,0,0.1,0c-0.2-1.3-0.5-2.5-0.7-3.8
			c-0.1-0.4-0.1-0.7-0.2-1.1C36.5,29.1,36.4,29.1,36.5,29.2L36.5,29.2z"/>
	</g>
	<g>
		<path fill="#15161A" d="M36.9,29c0.3,1.3,0.5,2.6,0.8,3.9c0.1,0.4,0.1,0.7,0.2,1.1c0,0.1,0.1,0,0.1,0c-0.2-1.3-0.5-2.6-0.8-3.9
			C37.1,29.7,37,29.4,37,29C37,28.9,36.9,29,36.9,29L36.9,29z"/>
	</g>
	<g>
		<path fill="#15161A" d="M44.9,24.4c0.1,1.3,0.2,2.5,0.3,3.8c0,0.4,0.1,0.7,0.1,1.1c0,0.1,0.1,0.1,0.1,0c-0.1-1.3-0.2-2.5-0.3-3.8
			c0-0.4-0.1-0.7-0.1-1.1C45,24.3,44.9,24.3,44.9,24.4L44.9,24.4z"/>
	</g>
	<g>
		<path fill="#15161A" d="M44.5,24.6c0.2,1.3,0.3,2.6,0.4,3.9c0,0.4,0,0.7,0.1,1.1c0,0.1,0.1,0.1,0.1,0c-0.1-1.3-0.2-2.6-0.3-3.9
			c0-0.4-0.1-0.7-0.1-1.1C44.6,24.5,44.5,24.5,44.5,24.6L44.5,24.6z"/>
	</g>
	<g>
		<path fill="#15161A" d="M44.2,24.8c0.1,1.3,0.2,2.6,0.4,3.9c0,0.4,0.1,0.7,0.1,1.1c0,0.1,0.1,0.1,0.1,0c-0.1-1.3-0.2-2.6-0.4-3.9
			c0-0.4-0.1-0.7-0.1-1.1C44.3,24.7,44.2,24.7,44.2,24.8L44.2,24.8z"/>
	</g>
	<g>
		<path fill="#15161A" d="M43.8,25.1c0.2,1.3,0.3,2.5,0.4,3.8c0,0.4,0.1,0.7,0.1,1.1c0,0.1,0.1,0.1,0.1,0c-0.1-1.3-0.2-2.6-0.4-3.9
			c0-0.4-0.1-0.7-0.1-1.1C43.9,25,43.8,25,43.8,25.1L43.8,25.1z"/>
	</g>
	<g>
		<path fill="#15161A" d="M43.4,25.3c0.2,1.2,0.3,2.5,0.4,3.8c0,0.4,0.1,0.7,0.1,1.1c0,0.1,0.1,0.1,0.1,0c-0.1-1.3-0.2-2.5-0.3-3.8
			c0-0.4-0.1-0.7-0.1-1.1C43.5,25.2,43.4,25.2,43.4,25.3L43.4,25.3z"/>
	</g>
	<g>
		<path fill="#15161A" d="M43,25.4c0.1,1.3,0.3,2.6,0.4,3.9c0,0.4,0.1,0.7,0.1,1.1c0,0.1,0.1,0.1,0.1,0c-0.1-1.3-0.3-2.6-0.4-3.9
			c0-0.4-0.1-0.7-0.1-1.1C43.1,25.4,43,25.4,43,25.4L43,25.4z"/>
	</g>
	<g>
		<path fill="#15161A" d="M42.7,25.8c0.1,0,0.1-0.1,0-0.1C42.7,25.6,42.7,25.8,42.7,25.8L42.7,25.8z"/>
	</g>
	<g>
		<path fill="#15161A" d="M42.5,25.8c0.1,1.3,0.2,2.5,0.4,3.8c0,0.4,0.1,0.7,0.1,1.1c0,0.1,0.1,0.1,0.1,0c-0.1-1.3-0.2-2.5-0.4-3.8
			c0-0.4-0.1-0.7-0.1-1.1C42.6,25.8,42.5,25.8,42.5,25.8L42.5,25.8z"/>
	</g>
	<g>
		<path fill="#15161A" d="M42,26c0.2,1.3,0.3,2.5,0.4,3.8c0,0.4,0.1,0.7,0.1,1.1c0,0.1,0.1,0.1,0.1,0c-0.1-1.3-0.2-2.5-0.4-3.8
			c0-0.4-0.1-0.7-0.1-1.1C42.1,26,42,26,42,26L42,26z"/>
	</g>
	<g>
		<path fill="#15161A" d="M41.6,26.3c0.1,1.3,0.3,2.5,0.4,3.8c0,0.4,0.1,0.7,0.1,1.1c0,0.1,0.1,0,0.1,0c-0.2-1.2-0.4-2.5-0.5-3.7
			c0-0.4-0.1-0.7-0.1-1.1C41.7,26.3,41.6,26.3,41.6,26.3L41.6,26.3z"/>
	</g>
	<g>
		<path fill="#15161A" d="M41.2,26.5c0,1.3,0.2,2.6,0.4,3.8c0,0.4,0.1,0.7,0.1,1.1c0,0.1,0.1,0.1,0.1,0c-0.2-1.3-0.3-2.6-0.4-3.8
			c0-0.4-0.1-0.7-0.1-1.1C41.3,26.4,41.2,26.4,41.2,26.5L41.2,26.5z"/>
	</g>
	<g>
		<path fill="#15161A" d="M40.8,26.7c0,0.7,0,1.3,0.1,2c0.1,0.7,0.2,1.3,0.2,2c0,0.4,0.1,0.8,0.1,1.1c0,0.1,0.1,0.1,0.1,0
			c-0.1-0.7-0.2-1.3-0.3-2c-0.1-0.6-0.2-1.3-0.2-2c0-0.4,0-0.7,0-1.1C40.9,26.6,40.8,26.6,40.8,26.7L40.8,26.7z"/>
	</g>
	<g>
		<path fill="#15161A" d="M40.2,27.1c0.2,1.2,0.4,2.5,0.6,3.7c0,0.4,0.1,0.7,0.1,1.1c0,0.1,0.1,0.1,0.1,0c-0.1-1.2-0.3-2.5-0.5-3.7
			c-0.1-0.4-0.1-0.7-0.2-1.1C40.3,27,40.2,27.1,40.2,27.1L40.2,27.1z"/>
	</g>
	<g>
		<path fill="#15161A" d="M37.2,28.8c0.2,1.2,0.5,2.5,0.7,3.7c0.1,0.4,0.1,0.7,0.2,1.1c0,0.1,0.1,0,0.1,0c-0.2-1.2-0.5-2.5-0.7-3.7
			c-0.1-0.4-0.1-0.7-0.2-1.1C37.3,28.7,37.2,28.8,37.2,28.8L37.2,28.8z"/>
	</g>
	<g>
		<path fill="#15161A" d="M37.5,28.6c0.1,1.3,0.5,2.5,0.7,3.8c0.1,0.4,0.2,0.7,0.2,1.1c0,0.1,0.1,0,0.1,0c-0.3-1.2-0.6-2.5-0.8-3.7
			c-0.1-0.4-0.1-0.7-0.2-1.1C37.7,28.5,37.5,28.5,37.5,28.6L37.5,28.6z"/>
	</g>
	<g>
		<path fill="#15161A" d="M37.9,28.4c0.3,1.2,0.5,2.4,0.8,3.6c0.1,0.3,0.1,0.7,0.2,1c0,0.1,0.1,0,0.1,0c-0.2-1.2-0.5-2.4-0.8-3.6
			c-0.1-0.3-0.2-0.7-0.2-1C38,28.3,37.9,28.3,37.9,28.4L37.9,28.4z"/>
	</g>
	<g>
		<path fill="#15161A" d="M38.4,28.1c0.2,1.3,0.4,2.5,0.6,3.8c0.1,0.4,0.1,0.7,0.2,1.1c0,0.1,0.1,0,0.1,0c-0.2-1.3-0.4-2.5-0.6-3.8
			c-0.1-0.4-0.1-0.7-0.2-1.1C38.5,28,38.3,28.1,38.4,28.1L38.4,28.1z"/>
	</g>
	<g>
		<path fill="#15161A" d="M38.7,28.1c0.2,1.2,0.4,2.5,0.7,3.7c0.1,0.3,0.1,0.7,0.2,1c0,0.1,0.1,0,0.1,0c-0.2-1.2-0.4-2.5-0.7-3.7
			c-0.1-0.3-0.1-0.7-0.2-1C38.8,28,38.7,28,38.7,28.1L38.7,28.1z"/>
	</g>
	<g>
		<path fill="#15161A" d="M39.1,27.8c0.2,1.2,0.4,2.5,0.6,3.7c0.1,0.3,0.1,0.7,0.2,1c0,0.1,0.1,0,0.1,0c-0.2-1.2-0.4-2.5-0.6-3.7
			c-0.1-0.3-0.1-0.7-0.2-1C39.2,27.7,39.1,27.7,39.1,27.8L39.1,27.8z"/>
	</g>
	<g>
		<path fill="#15161A" d="M39.4,27.6c0.2,1.3,0.4,2.5,0.6,3.8c0.1,0.4,0.1,0.7,0.1,1.1c0,0.1,0.1,0.1,0.1,0
			c-0.2-1.3-0.3-2.5-0.5-3.8c-0.1-0.4-0.1-0.7-0.2-1.1C39.5,27.5,39.4,27.5,39.4,27.6L39.4,27.6z"/>
	</g>
	<g>
		<path fill="#15161A" d="M39.8,27.3c0.2,1.3,0.4,2.6,0.5,3.8c0.1,0.4,0.1,0.7,0.2,1.1c0,0.1,0.1,0,0.1,0c-0.2-1.3-0.4-2.6-0.5-3.8
			C40,28,40,27.7,39.9,27.3C39.9,27.2,39.8,27.3,39.8,27.3L39.8,27.3z"/>
	</g>
	<g>
		<path fill="#15161A" d="M41.4,24.6c-0.7-0.1-1.4-0.2-2.2-0.3c-0.1,0-0.2,0.2-0.1,0.2c0.7,0.1,1.4,0.2,2.2,0.3
			C41.5,24.8,41.6,24.6,41.4,24.6L41.4,24.6z"/>
	</g>
	<g>
		<path fill="#15161A" d="M20.9,21.8c0,1.5,0.1,2.9,0,4.4c0,0.1,0.1,0.1,0.1,0c0-1.5,0-2.9,0-4.4C21.1,21.7,20.9,21.7,20.9,21.8
			L20.9,21.8z"/>
	</g>
	<g>
		<path fill="#15161A" d="M20.7,24.9c0,0.5,0,1,0,1.4c0,0.1,0.1,0.1,0.1,0c0-0.5,0-1,0-1.4C20.8,24.8,20.7,24.8,20.7,24.9L20.7,24.9
			z"/>
	</g>
	<g>
		<path fill="#15161A" d="M20.4,25.5c0,0.2,0,0.5,0,0.7c0,0.1,0.1,0.1,0.1,0c0-0.2,0-0.5,0-0.7C20.5,25.4,20.4,25.4,20.4,25.5
			L20.4,25.5z"/>
	</g>
	<g>
		<path fill="#15161A" d="M20,25.5c0,0.2,0,0.4,0,0.6c0,0.1,0.1,0.1,0.1,0c0-0.2,0-0.4,0-0.6C20.2,25.5,20,25.5,20,25.5L20,25.5z"/>
	</g>
	<g>
		<path fill="#15161A" d="M32,23.8c0.2,1.3,0.3,2.5,0.5,3.8c0,0.4,0.1,0.7,0.1,1.1c0,0.1,0.1,0.1,0.1,0c-0.2-1.3-0.3-2.5-0.5-3.8
			c0-0.4-0.1-0.7-0.1-1.1C32.1,23.7,32,23.7,32,23.8L32,23.8z"/>
	</g>
	<g>
		<path fill="#15161A" d="M31.9,26.7c0.1,0.7,0.2,1.3,0.2,2c0,0.1,0.1,0.1,0.1,0c-0.1-0.7-0.2-1.3-0.2-2
			C32,26.6,31.9,26.6,31.9,26.7L31.9,26.7z"/>
	</g>
	<g>
		<path fill="#15161A" d="M31.7,27.5c0.1,0.4,0.1,0.7,0.2,1.1c0,0.1,0.1,0,0.1,0c-0.1-0.4-0.1-0.7-0.2-1.1
			C31.8,27.4,31.6,27.4,31.7,27.5L31.7,27.5z"/>
	</g>
	<g>
		<path fill="#15161A" d="M31.4,27.6c-0.1,0.3,0,0.6,0.1,0.8c0,0.1,0.1,0,0.1-0.1c-0.1-0.2-0.1-0.5-0.1-0.7
			C31.5,27.6,31.4,27.6,31.4,27.6L31.4,27.6z"/>
	</g>
	<g>
		<path fill="#15161A" d="M40.4,20.5c0.2,1.4,0.3,2.8,0.5,4.2c0,0.1,0.1,0.1,0.1,0c-0.2-1.4-0.3-2.8-0.5-4.2
			C40.5,20.4,40.4,20.4,40.4,20.5L40.4,20.5z"/>
	</g>
	<g>
		<path fill="#15161A" d="M40.2,22.2c0.2,0.8,0.3,1.5,0.2,2.3c0,0.1,0.1,0.1,0.1,0c0-0.8-0.1-1.6-0.3-2.3
			C40.3,22.1,40.2,22.1,40.2,22.2L40.2,22.2z"/>
	</g>
	<g>
		<path fill="#15161A" d="M40,22.9c0.1,0.6,0.1,1.1,0.2,1.7c0,0.1,0.1,0.1,0.1,0c-0.1-0.6-0.1-1.1-0.2-1.7
			C40.1,22.8,40,22.8,40,22.9L40,22.9z"/>
	</g>
	<g>
		<path fill="#15161A" d="M39.7,23.5c0,0.3,0.1,0.6,0.1,0.9c0,0,0,0,0.1,0c0,0,0,0,0-0.1c0-0.3-0.1-0.6-0.1-0.9
			C39.8,23.4,39.8,23.4,39.7,23.5C39.7,23.4,39.7,23.5,39.7,23.5L39.7,23.5z"/>
	</g>
	<g>
		<path fill="#15161A" d="M10,19.6c0.1,0.8,0.3,1.5,0.4,2.3c0.1,0.4,0.1,0.8,0.2,1.1c0.1,0.3,0.1,0.7,0.3,1c0,0.1,0.1,0,0.1-0.1
			c-0.2-0.3-0.2-0.7-0.3-1c-0.1-0.4-0.1-0.8-0.2-1.1c-0.1-0.8-0.3-1.5-0.4-2.3C10.1,19.5,10,19.5,10,19.6L10,19.6z"/>
	</g>
	<g>
		<path fill="#15161A" d="M9.9,20.7c0.1,1.1,0.2,2.2,0.5,3.2c0,0.1,0.1,0,0.1,0c-0.3-1.1-0.4-2.1-0.5-3.2C10,20.6,9.9,20.6,9.9,20.7
			L9.9,20.7z"/>
	</g>
	<g>
		<path fill="#15161A" d="M9.7,21.7c0,0.7,0.1,1.4,0.3,2.1c0,0.1,0.1,0,0.1,0c-0.2-0.7-0.3-1.4-0.3-2.1C9.8,21.6,9.7,21.6,9.7,21.7
			L9.7,21.7z"/>
	</g>
	<g>
		<path fill="#15161A" d="M9.3,22.4c0,0.4,0.1,0.9,0.1,1.3c0,0.1,0.1,0.1,0.1,0c0-0.4-0.1-0.9-0.1-1.3C9.4,22.3,9.3,22.3,9.3,22.4
			L9.3,22.4z"/>
	</g>
	<g>
		<path fill="#15161A" d="M27.6,17.8c0.2,1,0.3,2.1,0.4,3.1c0,0.1,0.1,0.1,0.1,0c-0.1-1.1-0.3-2.1-0.4-3.2
			C27.7,17.7,27.6,17.7,27.6,17.8L27.6,17.8z"/>
	</g>
	<g>
		<path fill="#15161A" d="M27.4,19.3c0.2,0.5,0.3,1.1,0.3,1.7c0,0.1,0.1,0.1,0.1,0c0-0.6-0.1-1.1-0.3-1.7
			C27.5,19.2,27.4,19.3,27.4,19.3L27.4,19.3z"/>
	</g>
	<g>
		<path fill="#15161A" d="M19.2,15.8c0.2,0.5,0.4,1.1,0.5,1.6c0,0.1,0.1,0,0.1,0c-0.1-0.5-0.3-1.1-0.5-1.6
			C19.3,15.7,19.2,15.7,19.2,15.8L19.2,15.8z"/>
	</g>
	<g>
		<path fill="#15161A" d="M19.4,15.6c0.2,0.6,0.4,1.2,0.7,1.9c0,0.1,0.1,0,0.1,0c-0.2-0.6-0.5-1.2-0.7-1.9
			C19.5,15.5,19.4,15.6,19.4,15.6L19.4,15.6z"/>
	</g>
	<g>
		<path fill="#15161A" d="M19.7,15.6c0.2,0.6,0.5,1.3,0.7,1.9c0,0.1,0.1,0,0.1,0c-0.2-0.6-0.5-1.3-0.7-1.9
			C19.8,15.5,19.7,15.5,19.7,15.6L19.7,15.6z"/>
	</g>
	<g>
		<path fill="#15161A" d="M19.9,15.4c0.2,0.8,0.7,1.4,0.8,2.2c0,0.1,0.1,0,0.1,0c-0.1-0.8-0.6-1.4-0.8-2.2
			C20,15.3,19.9,15.4,19.9,15.4L19.9,15.4z"/>
	</g>
	<g>
		<path fill="#15161A" d="M20.2,15.4c0.3,0.6,0.6,1.2,0.9,1.9c0,0.1,0.1,0,0.1-0.1C20.9,16.5,20.6,15.9,20.2,15.4
			C20.3,15.2,20.2,15.3,20.2,15.4L20.2,15.4z"/>
	</g>
	<g>
		<path fill="#15161A" d="M20.5,15.3c0.3,0.5,0.5,1.1,0.8,1.6c0,0.1,0.1,0,0.1-0.1C21.1,16.3,20.8,15.7,20.5,15.3
			C20.5,15.1,20.4,15.2,20.5,15.3L20.5,15.3z"/>
	</g>
	<g>
		<path fill="#15161A" d="M20.8,15.1c0.2,0.5,0.5,1,0.7,1.5c0,0.1,0.1,0,0.1-0.1C21.3,16.1,21.1,15.6,20.8,15.1
			C20.8,15,20.7,15.1,20.8,15.1L20.8,15.1z"/>
	</g>
	<g>
		<path fill="#15161A" d="M21,15c0.3,0.5,0.5,0.9,0.7,1.4c0,0.1,0.1,0,0.1,0C21.6,15.9,21.3,15.4,21,15C21,14.9,20.9,15,21,15L21,15
			z"/>
	</g>
	<g>
		<path fill="#15161A" d="M21.2,15c0.3,0.4,0.5,0.9,0.7,1.4c0,0.1,0.1,0,0.1,0C21.8,15.9,21.6,15.4,21.2,15
			C21.3,14.9,21.2,15,21.2,15L21.2,15z"/>
	</g>
	<g>
		<path fill="#15161A" d="M17.9,16.3c0.1,0.4,0.2,0.8,0.3,1.2c0,0.1,0.1,0,0.1,0c-0.1-0.4-0.2-0.8-0.3-1.2
			C18,16.2,17.9,16.2,17.9,16.3L17.9,16.3z"/>
	</g>
	<g>
		<path fill="#15161A" d="M17.8,16.8c0,0.1,0.1,0.3,0.1,0.4c0,0.1,0.1,0.3,0.1,0.4c0,0.1,0.1,0,0.1-0.1c-0.1-0.1-0.1-0.3-0.1-0.4
			c0-0.1-0.1-0.3-0.1-0.4C17.9,16.7,17.8,16.7,17.8,16.8L17.8,16.8z"/>
	</g>
	<g>
		<path fill="#15161A" d="M17.7,17.1c0,0.2,0.1,0.4,0.1,0.6c0,0.1,0.1,0,0.1,0c0-0.2-0.1-0.4-0.1-0.6C17.8,17,17.7,17.1,17.7,17.1
			L17.7,17.1z"/>
	</g>
	<g>
		<path fill="#15161A" d="M17.5,17.4C17.5,17.4,17.5,17.4,17.5,17.4C17.5,17.5,17.5,17.4,17.5,17.4C17.5,17.5,17.5,17.5,17.5,17.4
			c0,0.1,0,0.1,0,0.1c0,0,0,0,0,0.1c0,0,0,0,0,0c0,0,0,0,0,0c0,0,0,0,0,0c0,0,0,0,0,0c0,0,0,0.1,0.1,0.1c0,0,0.1,0,0.1-0.1
			C17.7,17.6,17.7,17.5,17.5,17.4C17.6,17.3,17.6,17.3,17.5,17.4C17.5,17.4,17.5,17.4,17.5,17.4L17.5,17.4z"/>
	</g>
	<g>
		<path fill="#15161A" d="M0.9,23.8C1,24.9,1,26,1,27.1c0,0.1,0.1,0.1,0.1,0c0-1.1,0-2.2,0-3.3C1.1,23.7,0.9,23.7,0.9,23.8L0.9,23.8
			z"/>
	</g>
	<g>
		<path fill="#15161A" d="M1.4,25.2c0,0.6,0,1.3,0,1.9c0,0.1,0.1,0.1,0.1,0c0-0.6,0-1.3,0-1.9C1.5,25.1,1.4,25.1,1.4,25.2L1.4,25.2z
			"/>
	</g>
	<g>
		<path fill="#15161A" d="M1.8,25.7c0,0.4,0,0.9,0,1.3c0,0.1,0.1,0.1,0.1,0c0-0.4,0-0.9,0-1.3C1.9,25.6,1.8,25.6,1.8,25.7L1.8,25.7z
			"/>
	</g>
	<g>
		<path fill="#15161A" d="M2.3,26.2c0,0.3,0,0.7,0,1c0,0.1,0.1,0.1,0.1,0c0-0.3,0-0.7,0-1C2.4,26.1,2.3,26.1,2.3,26.2L2.3,26.2z"/>
	</g>
	<g>
		<path fill="#15161A" d="M49.4,26.5c-1.3,0.7-2.5,1.4-3.8,2.1c-0.4,0.2-0.7,0.4-1.1,0.6c-0.1,0,0,0.1,0.1,0.1
			c1.3-0.7,2.6-1.4,3.8-2.1C48.7,27,49.1,26.8,49.4,26.5C49.5,26.6,49.4,26.5,49.4,26.5L49.4,26.5z"/>
	</g>
	<g>
		<path fill="#15161A" d="M49.5,26c-1.1,0.6-2.2,1.2-3.3,1.9c-0.3,0.2-0.6,0.4-0.9,0.5c-0.1,0,0,0.1,0.1,0.1
			c1.1-0.6,2.2-1.2,3.3-1.9C49,26.4,49.3,26.2,49.5,26C49.6,26,49.6,25.9,49.5,26L49.5,26z"/>
	</g>
	<g>
		<path fill="#15161A" d="M49.5,25.6c-1.1,0.5-2.2,1.1-3.2,1.6c-0.1,0,0,0.1,0.1,0.1C47.4,26.8,48.5,26.3,49.5,25.6
			C49.6,25.7,49.6,25.6,49.5,25.6L49.5,25.6z"/>
	</g>
	<g>
		<path fill="#15161A" d="M49.3,25.2c-0.8,0.4-1.6,0.9-2.4,1.3c-0.1,0,0,0.1,0.1,0.1C47.8,26.2,48.6,25.8,49.3,25.2
			C49.4,25.3,49.4,25.2,49.3,25.2L49.3,25.2z"/>
	</g>
	<g>
		<path fill="#15161A" d="M49.2,24.9c-0.6,0.3-1.2,0.7-1.8,1c-0.1,0,0,0.1,0.1,0.1C48,25.6,48.6,25.3,49.2,24.9
			C49.3,24.9,49.3,24.8,49.2,24.9L49.2,24.9z"/>
	</g>
	<g>
		<path fill="#15161A" d="M49.1,24.3c-0.4,0.4-0.9,0.7-1.5,0.9c-0.1,0,0,0.1,0,0.1C48.2,25.1,48.8,24.8,49.1,24.3
			C49.3,24.3,49.2,24.3,49.1,24.3L49.1,24.3z"/>
	</g>
	<g>
		<path fill="#15161A" d="M49,24c-0.3,0.2-0.6,0.4-0.9,0.5c-0.1,0,0,0.1,0.1,0.1C48.5,24.5,48.8,24.3,49,24C49.2,24.1,49.1,24,49,24
			L49,24z"/>
	</g>
	<g>
		<path fill="#15161A" d="M49.1,23.5c-0.5,0.3-1.1,0.7-1.6,1.1c-0.1,0,0,0.1,0.1,0.1C48.1,24.3,48.6,24,49.1,23.5
			C49.2,23.6,49.2,23.5,49.1,23.5L49.1,23.5z"/>
	</g>
	<g>
		<path fill="#15161A" d="M49.1,23c-1.2,0.7-2.4,1.5-3.6,2.3c-0.1,0,0,0.1,0.1,0.1C46.7,24.6,47.9,23.8,49.1,23
			C49.2,23.1,49.2,23,49.1,23L49.1,23z"/>
	</g>
	<g>
		<path fill="#15161A" d="M48.9,22.7c-1.2,0.8-2.5,1.6-3.8,2.4c-0.1,0,0,0.1,0.1,0.1C46.4,24.5,47.7,23.7,48.9,22.7
			C49,22.8,48.9,22.7,48.9,22.7L48.9,22.7z"/>
	</g>
	<g>
		<path fill="#15161A" d="M48.9,22.2c-1.2,0.9-2.4,1.7-3.7,2.4c-0.4,0.2-0.7,0.4-1.1,0.6c-0.1,0,0,0.1,0.1,0.1
			c1.3-0.7,2.6-1.4,3.8-2.3C48.3,22.8,48.6,22.5,48.9,22.2C49,22.2,48.9,22.2,48.9,22.2L48.9,22.2z"/>
	</g>
	<g>
		<path fill="#15161A" d="M48.6,21.9c-0.6,0.6-1.3,1.1-2.1,1.5c-0.1,0,0,0.1,0.1,0.1C47.4,23.2,48.1,22.7,48.6,21.9
			C48.8,22,48.7,21.9,48.6,21.9L48.6,21.9z"/>
	</g>
	<g>
		<path fill="#15161A" d="M33.6,30.5c0.1,0.9,0.2,1.8,0.3,2.7c0,0.1,0.1,0.1,0.1,0c-0.1-0.9-0.2-1.8-0.3-2.7
			C33.7,30.4,33.6,30.4,33.6,30.5L33.6,30.5z"/>
	</g>
	<g>
		<path fill="#15161A" d="M33.3,30.4c0.1,0.6,0.1,1.2,0.1,1.8c0,0.1,0.1,0.1,0.1,0c0-0.6-0.1-1.2-0.1-1.8
			C33.4,30.3,33.2,30.3,33.3,30.4L33.3,30.4z"/>
	</g>
	<g>
		<path fill="#15161A" d="M32.8,30.3c0,0.5,0,0.9,0,1.4c0,0.1,0.1,0.1,0.1,0c0-0.5-0.1-0.9,0-1.4C33,30.2,32.8,30.2,32.8,30.3
			L32.8,30.3z"/>
	</g>
	<g>
		<path fill="#15161A" d="M32.6,30.2c0,0.3,0,0.6,0,1c0,0.1,0.1,0.1,0.1,0c0-0.3,0-0.6,0-1C32.7,30.2,32.6,30.2,32.6,30.2L32.6,30.2
			z"/>
	</g>
	<g>
		<path fill="#15161A" d="M32.2,30.1c0,0.3,0,0.6,0,1c0,0.1,0.1,0.1,0.1,0c0-0.3,0-0.6,0-1C32.4,30,32.3,30,32.2,30.1L32.2,30.1z"/>
	</g>
	<g>
		<path fill="#15161A" d="M33.9,30.5c0.2,1.4,0.3,2.8,0.3,4.3c0,0.4,0,0.8,0,1.2c0,0.1,0.2,0.1,0.2,0c0-1.4,0-2.9-0.1-4.3
			c0-0.4-0.1-0.8-0.1-1.2c0-0.1,0-0.1-0.1-0.1C34,30.4,33.9,30.5,33.9,30.5L33.9,30.5z"/>
	</g>
</g>
</svg>
