<?xml version="1.0" encoding="utf-8"?>
<!-- Generator: Adobe Illustrator 18.1.1, SVG Export Plug-In . SVG Version: 6.00 Build 0)  -->
<svg version="1.1" id="Шар_1" xmlns="http://www.w3.org/2000/svg" xmlns:xlink="http://www.w3.org/1999/xlink" x="0px" y="0px"
	 viewBox="0 0 50 50" enable-background="new 0 0 50 50" xml:space="preserve">
<g>
	<g>
		<path fill="#15161A" d="M21.3,32.6c-7.5,0-13.1-2.2-14.3-3.1c-0.2-0.1-0.2-0.3-0.2-0.5c0.4-1.6,8.7-6.7,18.3-8.2
			c10.3-1.6,19.8,1.7,20,2.8l0,0c0.2,1.1-8,7-18.3,8.6C24.9,32.5,23.1,32.6,21.3,32.6z M30.9,20.8c-1.8,0-3.7,0.1-5.7,0.4
			c-9.7,1.5-17.7,6.6-18,7.9c0,0.1,0,0.1,0,0.1c0.8,0.6,8.7,4.2,19.6,2.6c10.5-1.6,17.7-7.3,17.9-8.1C44.4,23.1,38.7,20.8,30.9,20.8
			z"/>
		<path fill="#15161A" d="M21.9,31.8c-6.5,0-11.3-1.9-12.3-2.7c-0.1-0.1-0.2-0.3-0.2-0.5c0.3-1.4,7.5-5.8,15.8-7.1
			c9.1-1.4,17.1,1.5,17.2,2.4l0,0c0.1,1-6.7,6-15.7,7.4C25.1,31.7,23.5,31.8,21.9,31.8z M30.3,21.6c-1.6,0-3.2,0.1-4.9,0.4
			c-8,1.2-14.5,5.2-15.4,6.6c-0.1,0.2-0.1,0.2-0.1,0.2c0.7,0.5,7.5,3.6,16.8,2.2c9-1.4,15.2-6.2,15.4-6.9
			C41.8,23.6,36.9,21.6,30.3,21.6z M42.1,24.1L42.1,24.1L42.1,24.1z"/>
		<path fill="#15161A" d="M21.9,31.8c-6.5,0-11.3-1.9-12.3-2.7c-0.1-0.1-0.2-0.3-0.2-0.5c0.3-1.4,7.5-5.8,15.8-7.1
			c9.1-1.4,17.1,1.5,17.2,2.4l0,0c0.1,1-6.7,6-15.7,7.4C25.1,31.7,23.5,31.8,21.9,31.8z M30.3,21.6c-1.6,0-3.2,0.1-4.9,0.4
			c-8,1.2-14.5,5.2-15.4,6.6c-0.1,0.2-0.1,0.2-0.1,0.2c0.7,0.5,7.5,3.6,16.8,2.2c9-1.4,15.2-6.2,15.4-6.9
			C41.8,23.6,36.9,21.6,30.3,21.6z M42.1,24.1L42.1,24.1L42.1,24.1z"/>
		<path fill="#15161A" d="M22,31.8c-3.3,0-6-0.5-7.9-1c-0.1,0-0.1-0.1-0.2-0.2c0-0.1,0-0.2,0.1-0.2c2.4-1.6,6.9-3.7,12-4.5
			c6.2-0.9,11.3,0.5,12.7,0.9c0.1,0,0.1,0.1,0.1,0.2c0,0.1,0,0.2-0.1,0.2c-2.1,1.2-6.4,3.4-11.9,4.2l0,0
			C25.1,31.7,23.5,31.8,22,31.8z M14.6,30.5c2.8,0.7,7.1,1.3,12.1,0.5l0,0c5.1-0.8,9.1-2.7,11.3-3.9c-1.8-0.5-6.5-1.6-12-0.7
			C21.3,27.1,17,29,14.6,30.5z"/>
		<path fill="#15161A" d="M15.8,31.2C15.8,31.2,15.8,31.2,15.8,31.2c-0.7-0.1-1.3-0.3-1.8-0.4c-0.1,0-0.1-0.1-0.2-0.2
			c0-0.1,0-0.2,0.1-0.2c2.4-1.6,6.9-3.7,12-4.5c6.2-0.9,11.3,0.5,12.7,0.9c0.1,0,0.1,0.1,0.1,0.2c0,0.1,0,0.2-0.1,0.2
			c-0.4,0.3-1,0.5-1.6,0.9c-0.1,0-0.1,0-0.2,0c-2.4-1-5.7-2.4-10.9-1.6l0,0c-5.2,0.8-8,3-10,4.7C16,31.1,15.9,31.2,15.8,31.2z
			 M14.6,30.5c0.4,0.1,0.8,0.2,1.2,0.3c1.1-0.9,2.4-1.9,4.2-2.8C17.8,28.7,15.9,29.7,14.6,30.5z M32.2,26.1c1.9,0.4,3.5,1,4.8,1.5
			c0.4-0.2,0.7-0.4,1.1-0.6C36.9,26.8,34.9,26.3,32.2,26.1z"/>
		<path fill="#15161A" d="M19.8,31.7C19.8,31.7,19.8,31.7,19.8,31.7c-0.4,0-0.7-0.1-1-0.1c-0.1,0-0.2-0.1-0.2-0.2
			c0-0.1,0-0.2,0.1-0.2c1.1-0.6,3.9-2.2,7.7-2.8l0,0c3.5-0.5,6.5,0.1,8,0.5c0.1,0,0.2,0.1,0.2,0.2c0,0.1,0,0.2-0.1,0.2l-0.1,0
			c-0.3,0.1-0.6,0.2-0.9,0.4c0,0-0.1,0-0.1,0c-1-0.3-3.7-1-6.8-0.5c-2.7,0.4-5.1,1.5-6.5,2.5C19.9,31.7,19.8,31.7,19.8,31.7z
			 M19.4,31.2c0.1,0,0.2,0,0.3,0c0.4-0.3,1.3-0.8,2.5-1.3C21,30.4,20.1,30.9,19.4,31.2z M30.4,28.7c1.3,0.1,2.3,0.4,2.9,0.6
			c0.1,0,0.2-0.1,0.3-0.1C32.7,29,31.7,28.8,30.4,28.7z M26.3,28.6l0,0.1L26.3,28.6z"/>
		<path fill="#15161A" d="M24,42.7c-0.3,0-0.6,0-0.9-0.1c-6.1-0.8-10.2-5.7-10.9-6.9C12,35.5,12,35.3,12,35.2c0,0,0-0.1,0.1-0.1
			c1-0.9,7.3-0.2,9.2,0c3.1,0.4,8.5,1.2,9.1,2c0.4,0.5,0.3,1.3-0.3,2.3C29.1,41.1,26.9,42.7,24,42.7z M12.5,35.4
			c0.4,0.9,4.6,6,10.7,6.8c3.1,0.4,5.5-1.3,6.5-3.1c0.4-0.8,0.6-1.5,0.3-1.8c-0.3-0.4-3.7-1.2-8.8-1.8C16.8,35,13.3,35,12.5,35.4z"
			/>
		<path fill="#15161A" d="M25.5,43.9C12,43.9,7,29.6,7,29.4c0-0.1,0-0.2,0.1-0.2c0.1-0.1,0.2-0.1,0.3,0c0.8,0.6,8.7,4.2,19.6,2.6
			c10.5-1.6,17.7-7.3,17.9-8.1c0,0,0,0,0,0c0-0.1,0.1-0.2,0.2-0.2c0.1,0,0.2,0.1,0.2,0.2c0,0,0,0,0,0c0,0.5-0.7,17.7-16.5,20.1
			C27.6,43.9,26.5,43.9,25.5,43.9z M7.6,29.8c1.2,2.9,7.1,15.5,21,13.4c13.7-2.1,15.8-15.5,16.1-18.9c-1.9,2-9,6.4-17.8,7.8l0-0.2
			l0,0.2C17.6,33.6,9.9,31.1,7.6,29.8z"/>
	</g>
	<g>
		<defs>
			<path id="SVGID_1_" d="M25.7,22.9c0.1,0.7,10,6.9,1.1,8.3s-16-1.5-17-2.3c-1-0.7-9.9-21.5-1-22.8S25.6,22.2,25.7,22.9z"/>
		</defs>
		<clipPath id="SVGID_2_">
			<use xlink:href="#SVGID_1_"  overflow="visible"/>
		</clipPath>
		<g clip-path="url(#SVGID_2_)">
			<path fill="#15161A" d="M12.1,18.6C12,18.6,12,18.6,12.1,18.6c-0.1,0-0.2-0.1-0.2-0.1L6.4,7.9c-0.1-0.1,0-0.2,0.1-0.3L9,6.3
				c0.1,0,0.1,0,0.2,0c0.1,0,0.1,0.1,0.1,0.1L14.7,17c0.1,0.1,0,0.2-0.1,0.3L12.1,18.6C12.1,18.6,12.1,18.6,12.1,18.6z M6.9,7.9
				l5.2,10.2l2.1-1.1L9,6.8L6.9,7.9z"/>
			<path fill="#15161A" d="M12.1,17c-0.1,0-0.2,0-0.2-0.1L7.4,8.1C7.3,8,7.4,7.9,7.5,7.8L8,7.5c0.1,0,0.1,0,0.2,0
				c0.1,0,0.1,0.1,0.1,0.1l4.5,8.8c0,0.1,0,0.1,0,0.2c0,0.1-0.1,0.1-0.1,0.1L12.1,17C12.1,17,12.1,17,12.1,17z M7.8,8.1l4.3,8.4
				l0.2-0.1L8,8L7.8,8.1z"/>
			<path fill="#15161A" d="M13.6,20c-0.1,0-0.2,0-0.2-0.1l-0.9-1.7c0-0.1,0-0.1,0-0.2c0-0.1,0.1-0.1,0.1-0.1l1.2-0.6
				c0.1-0.1,0.2,0,0.3,0.1l0.9,1.7c0,0.1,0,0.1,0,0.2c0,0.1-0.1,0.1-0.1,0.1L13.6,20C13.6,20,13.6,20,13.6,20z M13,18.2l0.7,1.3
				l0.8-0.4l-0.7-1.3L13,18.2z"/>
			<path fill="#15161A" d="M21.7,34.4c0,0-2.4-2-3.6-4.2c-1.2-2.2-3.8-9.3-3.9-9.4l0.3-0.1c0,0.1,2.7,7.1,3.9,9.4
				c1.2,2.2,3.5,4.1,3.5,4.1L21.7,34.4z"/>
			<path fill="#15161A" d="M21.4,34.6c-0.1,0-3.5-1-4.8-3.7c-2.1-4.1-2.6-10.2-2.6-10.3l0.3,0c0,0.1,0.6,6.2,2.6,10.2
				c1.3,2.5,4.6,3.5,4.6,3.5L21.4,34.6z"/>
			<path fill="#15161A" d="M21.6,34.3c0,0-0.2-3-1.3-5.3c-1.1-2.3-5.3-8.5-5.3-8.6l0.3-0.2c0,0.1,4.2,6.4,5.4,8.6
				c1.1,2.3,1.3,5.4,1.3,5.4L21.6,34.3z"/>
			<path fill="#15161A" d="M22.2,34.2l-0.3-0.1c0,0,1.2-3.3-0.1-5.8c-2.1-4-6.7-8-6.7-8.1l0.2-0.2c0,0,4.7,4.1,6.8,8.2
				C23.4,30.8,22.3,34,22.2,34.2z"/>
			
				<rect x="10.2" y="27" transform="matrix(0.4555 0.8902 -0.8902 0.4555 33.9908 -1.3363)" fill="#15161A" width="15.8" height="0.3"/>
			<path fill="#15161A" d="M21.8,34.4c-0.1-0.1-3.3-1.5-4.6-3.8c-1.2-2.2-3.2-9.4-3.3-9.7l0.3-0.1c0,0.1,2,7.5,3.2,9.7
				c1.2,2.2,4.4,3.6,4.4,3.6L21.8,34.4z"/>
			<path fill="#15161A" d="M21.3,34.6c-0.2,0-4.4-0.5-5.8-3.2c-2.1-4.1-1.8-10.7-1.8-10.7l0.3,0c0,0.1-0.3,6.6,1.8,10.6
				c1.3,2.5,5.5,3,5.5,3L21.3,34.6z"/>
			<path fill="#15161A" d="M21.8,34.3l-0.3-0.1c0,0,0.7-3.5-0.4-5.7c-1.1-2.3-5.9-8.2-5.9-8.3l0.2-0.2c0.2,0.2,4.9,6,6,8.3
				C22.5,30.8,21.9,34.2,21.8,34.3z"/>
			<path fill="#15161A" d="M22.3,34.1L22,34c0,0,2.1-3.7,0.8-6.2c-2.1-4-7.5-7.6-7.5-7.6l0.2-0.3c0.1,0,5.6,3.7,7.6,7.8
				C24.5,30.3,22.4,34,22.3,34.1z"/>
			<g>
				
					<rect x="13.1" y="19.2" transform="matrix(0.8902 -0.4556 0.4556 0.8902 -7.5642 8.8098)" fill="#15161A" width="2.8" height="1.8"/>
				<path fill="#15161A" d="M13.7,21.7c-0.1,0-0.2,0-0.2-0.1L12.7,20c0-0.1,0-0.1,0-0.2c0-0.1,0.1-0.1,0.1-0.1l2.5-1.3
					c0.1-0.1,0.2,0,0.3,0.1l0.8,1.6c0.1,0.1,0,0.2-0.1,0.3L13.7,21.7C13.7,21.7,13.7,21.7,13.7,21.7z M13.1,20l0.6,1.2l2.1-1.1
					l-0.6-1.2L13.1,20z"/>
			</g>
			<g>
				
					<rect x="21" y="34" transform="matrix(0.8902 -0.4556 0.4556 0.8902 -13.252 13.6936)" fill="#15161A" width="1.6" height="0.6"/>
				<path fill="#15161A" d="M21.2,35.2c-0.1,0-0.2,0-0.2-0.1l-0.3-0.5c0-0.1,0-0.1,0-0.2c0-0.1,0.1-0.1,0.1-0.1l1.4-0.7
					c0.1,0,0.1,0,0.2,0c0.1,0,0.1,0.1,0.1,0.1l0.3,0.5c0.1,0.1,0,0.2-0.1,0.3L21.2,35.2C21.3,35.2,21.2,35.2,21.2,35.2z M21.2,34.5
					l0.1,0.2l1-0.5L22.3,34L21.2,34.5z"/>
			</g>
		</g>
	</g>
</g>
</svg>
