<?xml version="1.0" encoding="utf-8"?>
<!-- Generator: Adobe Illustrator 18.1.1, SVG Export Plug-In . SVG Version: 6.00 Build 0)  -->
<svg version="1.1" id="Шар_1" xmlns="http://www.w3.org/2000/svg" xmlns:xlink="http://www.w3.org/1999/xlink" x="0px" y="0px"
	 viewBox="0 0 50 50" enable-background="new 0 0 50 50" xml:space="preserve">
<g>
	<g>
		<g>
			<g>
				<path fill="#15161A" d="M37.9,34.8c-2.3,0-4.5-0.2-5.6-0.6l-0.3,0c-8.9,0-18-1.3-18-3.5c0-0.3,0.2-0.6,0.6-0.9
					c-0.7-0.3-1-0.6-1-0.9c0-1.2,4.9-1.9,9.4-1.9c1.7,0,3.4,0.1,4.9,0.3c1.8-0.1,3.6-0.1,5.4-0.1c1.4-0.4,3.7-0.6,6.2-0.6
					c3.7,0,7.6,0.5,7.6,1.6c0,0.2-0.1,0.3-0.4,0.5c2.2,0.6,3.3,1.3,3.3,2.1c0,1.3-3.4,2.2-5.6,2.6c0.1,0.1,0.1,0.2,0.1,0.2
					C44.5,34.4,41.2,34.8,37.9,34.8z M32.3,33.9C32.3,33.9,32.3,33.9,32.3,33.9c1.2,0.4,3.3,0.6,5.6,0.6c3.9,0,6.3-0.6,6.3-1.1
					c0-0.1-0.1-0.1-0.2-0.2c0,0-0.1-0.1-0.1-0.1c0-0.1,0.1-0.1,0.1-0.1c3.5-0.6,5.7-1.5,5.7-2.4c0-0.7-1.2-1.3-3.4-1.9
					c-0.1,0-0.1-0.1-0.1-0.1c0-0.1,0-0.1,0.1-0.1c0.3-0.1,0.5-0.3,0.5-0.4c0-0.6-3-1.3-7.4-1.3c-2.4,0-4.7,0.2-6.1,0.6c0,0,0,0,0,0
					c-1.8,0-3.6,0-5.4,0.1c-1.5-0.2-3.2-0.3-4.9-0.3c-5.4,0-9.2,0.9-9.2,1.6c0,0.2,0.4,0.5,1,0.7c0,0,0.1,0.1,0.1,0.1
					c0,0,0,0.1-0.1,0.1c-0.4,0.3-0.7,0.6-0.7,0.9c0,1.6,7.1,3.3,17.8,3.3L32.3,33.9L32.3,33.9z"/>
				<g>
					<path fill="#15161A" d="M14.2,30.4C14.2,30.4,14.2,30.4,14.2,30.4c-0.4-0.2-0.6-0.5-0.6-0.7v-0.8c0-0.1,0.1-0.1,0.1-0.1
						c0.1,0,0.1,0.1,0.1,0.1c0,0.2,0.4,0.5,1,0.7c0,0,0.1,0.1,0.1,0.1c0,0,0,0.1-0.1,0.1c-0.3,0.2-0.5,0.4-0.6,0.5
						C14.3,30.4,14.2,30.4,14.2,30.4z M13.8,29.3v0.4c0,0.1,0.1,0.3,0.3,0.4c0.1-0.1,0.2-0.3,0.4-0.4C14.2,29.6,14,29.5,13.8,29.3z"
						/>
					<path fill="#15161A" d="M46.9,28.9C46.9,28.9,46.9,28.9,46.9,28.9c-0.2-0.1-0.4-0.1-0.6-0.2c-0.1,0-0.1-0.1-0.1-0.1
						c0-0.1,0-0.1,0.1-0.1c0.3-0.1,0.5-0.3,0.5-0.4c0-0.1,0.1-0.1,0.1-0.1C47,28,47,28,47,28.1v0.7C47,28.8,47,28.9,46.9,28.9
						C47,28.9,46.9,28.9,46.9,28.9z M46.7,28.6C46.7,28.6,46.8,28.6,46.7,28.6L46.7,28.6C46.8,28.5,46.7,28.6,46.7,28.6z"/>
					<path fill="#15161A" d="M37.9,35.7c-2.3,0-4.5-0.2-5.6-0.6l-0.3,0c-9.7,0-17.4-1.4-18-3.3c0,0,0-0.1,0-0.1v-1
						c0-0.1,0.1-0.1,0.1-0.1c0.1,0,0.1,0.1,0.1,0.1c0,1.6,7.1,3.3,17.8,3.3l0.3,0h0c0,0,0,0,0,0c1.1,0.4,3.3,0.6,5.6,0.6
						c3.9,0,6.3-0.6,6.3-1.1c0-0.1-0.1-0.1-0.2-0.2c0,0-0.1-0.1-0.1-0.1c0-0.1,0.1-0.1,0.1-0.1c3.5-0.6,5.7-1.5,5.7-2.4
						c0-0.1,0.1-0.1,0.1-0.1c0.1,0,0.1,0.1,0.1,0.1v0.8c0,1.3-3,2.1-5.6,2.6v0.3c0,0,0,0.1,0,0.1c0,0,0,0,0,0
						C44,35.3,40.9,35.7,37.9,35.7z M32.3,34.8C32.3,34.8,32.3,34.8,32.3,34.8c1.2,0.4,3.3,0.6,5.6,0.6c3.5,0,6.1-0.5,6.3-1
						c0,0,0,0,0,0V34c0-0.1,0-0.1,0.1-0.1c3.4-0.6,5.4-1.5,5.4-2.3v-0.2c-0.8,1-3.5,1.6-5.4,2c0.1,0.1,0.1,0.2,0.1,0.2
						c0,0.9-3.3,1.3-6.5,1.3c-2.3,0-4.5-0.2-5.6-0.6l-0.3,0c-8,0-16.2-1.1-17.8-2.9v0.3c0,0,0,0,0,0c0.4,1.7,8.4,3.1,17.8,3.1
						L32.3,34.8C32.3,34.8,32.3,34.8,32.3,34.8z"/>
				</g>
			</g>
			<g>
				<path fill="#15161A" d="M8.8,30.7c-0.1,0-0.1,0-0.4-0.2c-0.2-0.1-0.4-0.2-0.7-0.4c-1-0.5-2-1-2-1.7v-0.9c0-0.1,0.1-0.1,0.1-0.1
					c0.1,0,0.1,0.1,0.1,0.1c0,0.6,1.2,1.2,1.9,1.5h0c0.3,0.1,0.5,0.3,0.7,0.4c0.1,0.1,0.2,0.1,0.3,0.2c0.1,0,0.2-0.1,0.4-0.2
					c0.2-0.1,0.3-0.2,0.5-0.3c0.5-0.3,1.9-1,1.9-1.5c0-0.1,0.1-0.1,0.1-0.1c0.1,0,0.1,0.1,0.1,0.1v0.9c0,0.5-1,1.2-2,1.7
					c-0.2,0.1-0.4,0.2-0.5,0.3C9,30.7,8.9,30.7,8.8,30.7z M6,28.2v0.3c0,0.6,1.2,1.2,1.9,1.5c0.3,0.1,0.5,0.3,0.7,0.4
					c0.1,0.1,0.2,0.1,0.3,0.2c0.1,0,0.2-0.1,0.4-0.2c0.2-0.1,0.3-0.2,0.5-0.3c0.5-0.3,1.9-1,1.9-1.5v-0.3c-0.4,0.4-1.1,0.8-1.8,1.2
					c-0.2,0.1-0.4,0.2-0.5,0.3c-0.4,0.2-0.4,0.3-0.5,0.3c-0.1,0-0.1,0-0.4-0.2c-0.2-0.1-0.4-0.2-0.7-0.4h0C7,29,6.4,28.6,6,28.2z"/>
				<path fill="#15161A" d="M8.8,29.9c-0.1,0-0.1,0-0.4-0.2c-0.2-0.1-0.4-0.2-0.7-0.4c-1-0.5-2-1-2-1.7c0-0.7,0.5-1.2,1.3-1.3
					c0.7-0.1,1.4,0.1,1.8,0.7c0.3-0.6,1.1-0.8,1.8-0.7c0.8,0.1,1.3,0.6,1.3,1.3c0,0.5-1,1.2-2,1.7c-0.2,0.1-0.4,0.2-0.5,0.3
					C9,29.8,8.9,29.9,8.8,29.9z M7.4,26.5c-0.1,0-0.2,0-0.3,0c-0.5,0.1-1.1,0.4-1.1,1c0,0.6,1.2,1.2,1.9,1.5
					c0.3,0.1,0.5,0.3,0.7,0.4c0.1,0.1,0.2,0.1,0.3,0.2c0.1,0,0.2-0.1,0.4-0.2c0.2-0.1,0.3-0.2,0.5-0.3c0.5-0.3,1.9-1,1.9-1.5
					c0-0.7-0.6-1-1.1-1c-0.7-0.1-1.4,0.1-1.6,0.8c0,0.1-0.2,0.1-0.2,0C8.6,26.8,7.9,26.5,7.4,26.5z"/>
			</g>
			<g>
				<path fill="#15161A" d="M20.8,24c-0.1,0-0.1,0-0.4-0.2c-0.2-0.1-0.4-0.2-0.7-0.4c-1-0.5-2-1-2-1.7v-0.9c0-0.1,0.1-0.1,0.1-0.1
					c0.1,0,0.1,0.1,0.1,0.1c0,0.6,1.2,1.2,1.9,1.5l0,0c0.3,0.1,0.5,0.3,0.7,0.4c0.1,0.1,0.2,0.1,0.3,0.2c0.1,0,0.2-0.1,0.4-0.2
					c0.2-0.1,0.3-0.2,0.5-0.3c0.5-0.3,1.9-1,1.9-1.5c0-0.1,0.1-0.1,0.1-0.1c0.1,0,0.1,0.1,0.1,0.1v0.9c0,0.5-1,1.2-2,1.7
					c-0.2,0.1-0.4,0.2-0.5,0.3C21,23.9,20.9,24,20.8,24z M18,21.4v0.3c0,0.6,1.2,1.2,1.9,1.5c0.3,0.1,0.5,0.3,0.7,0.4
					c0.1,0.1,0.2,0.1,0.3,0.2c0.1,0,0.2-0.1,0.4-0.2c0.2-0.1,0.3-0.2,0.5-0.3c0.5-0.3,1.9-1,1.9-1.5v-0.3c-0.4,0.4-1.1,0.8-1.8,1.2
					c-0.2,0.1-0.4,0.2-0.5,0.3c-0.4,0.2-0.4,0.3-0.5,0.3c-0.1,0-0.1,0-0.4-0.2c-0.2-0.1-0.4-0.2-0.7-0.4l0,0
					C19,22.2,18.3,21.8,18,21.4z"/>
				<path fill="#15161A" d="M20.8,23.1c-0.1,0-0.1,0-0.4-0.2c-0.2-0.1-0.4-0.2-0.7-0.4c-1-0.5-2-1-2-1.7c0-0.7,0.5-1.2,1.3-1.3
					c0.7-0.1,1.4,0.1,1.8,0.7c0.3-0.6,1.1-0.8,1.8-0.7c0.8,0.1,1.3,0.6,1.3,1.3c0,0.5-1,1.2-2,1.7c-0.2,0.1-0.4,0.2-0.5,0.3
					C21,23.1,20.9,23.1,20.8,23.1z M19.3,19.7c-0.1,0-0.2,0-0.3,0c-0.5,0.1-1.1,0.4-1.1,1c0,0.6,1.2,1.2,1.9,1.5
					c0.3,0.1,0.5,0.3,0.7,0.4c0.1,0.1,0.2,0.1,0.3,0.2c0.1,0,0.2-0.1,0.4-0.2c0.2-0.1,0.3-0.2,0.5-0.3c0.5-0.3,1.9-1,1.9-1.5
					c0-0.7-0.6-1-1.1-1c-0.7-0.1-1.4,0.2-1.6,0.8c0,0.1-0.2,0.1-0.2,0C20.5,20,19.9,19.7,19.3,19.7z"/>
			</g>
			<g>
				<g>
					<path fill="#15161A" d="M6.4,33.7C6.4,33.7,6.4,33.7,6.4,33.7c-1.3-0.5-1.3-0.5-1.3-0.6c0,0,0,0,0-0.1v-0.8c0,0,0-0.1,0-0.1
						c0-0.1,0.1-0.1,0.1-0.1c0,0,0.1,0,0.1,0.1c0.1,0.1,0.8,0.4,1.5,0.6c0,0,0.1,0,0.1,0.1c0,0,0,0.1,0,0.1c0,0-0.2,0.4-0.4,0.7
						C6.5,33.6,6.4,33.7,6.4,33.7z M5.3,33c0.1,0,0.3,0.2,1,0.4c0.1-0.2,0.2-0.4,0.2-0.5c-0.7-0.2-1-0.4-1.2-0.5V33z M5.3,33.1
						C5.3,33.1,5.3,33.1,5.3,33.1C5.3,33.1,5.3,33.1,5.3,33.1z M5.3,33.1L5.3,33.1L5.3,33.1z M5.3,33.1L5.3,33.1L5.3,33.1z"/>
					<path fill="#15161A" d="M9.2,33.7c0,0-0.1,0-0.1-0.1c-0.2-0.3-0.4-0.7-0.4-0.7c0,0,0-0.1,0-0.1c0,0,0-0.1,0.1-0.1
						c0.6-0.2,1.3-0.5,1.5-0.6c0,0,0.1-0.1,0.1-0.1c0.1,0,0.1,0.1,0.1,0.1V33C10.5,33.1,10.5,33.2,9.2,33.7
						C9.2,33.7,9.2,33.7,9.2,33.7z M9,32.9c0.1,0.1,0.2,0.3,0.2,0.5c0.7-0.3,0.9-0.4,1-0.4v-0.6C10,32.5,9.6,32.7,9,32.9z"/>
					<path fill="#15161A" d="M9.4,35c-0.1,0-0.5-0.1-1.6-0.7c-1.5,0.8-1.6,0.7-1.7,0.7c0,0-0.1-0.1-0.1-0.1v-0.8c0,0,0-0.1,0.1-0.1
						c0,0,0,0,0.1,0c0.1,0,0.9-0.4,1.5-0.7c0,0,0.1,0,0.1,0c0.6,0.3,1.4,0.7,1.5,0.7c0,0,0.1,0,0.1,0c0,0,0.1,0.1,0.1,0.1v0.8
						C9.5,34.9,9.5,35,9.4,35C9.4,35,9.4,35,9.4,35z M7.8,34C7.8,34,7.8,34,7.8,34c0.6,0.3,1.2,0.6,1.5,0.7v-0.6
						c-0.2-0.1-0.6-0.2-1.5-0.7c-0.9,0.4-1.3,0.6-1.5,0.7v0.6C6.6,34.6,7.2,34.3,7.8,34C7.7,34,7.8,34,7.8,34z"/>
				</g>
				<path fill="#15161A" d="M9.4,34.2c-0.1,0-0.5-0.1-1.6-0.7c-1.6,0.8-1.6,0.7-1.7,0.7C6,34.1,6,34.1,6.6,32.9
					c-1.4-0.5-1.5-0.6-1.5-0.7c0,0,0-0.1,0-0.1c0-0.1,0.1-0.2,2-0.2c0.6-1.2,0.6-1.2,0.7-1.2c0.1,0,0.2,0,0.7,1.2c2,0,2,0.1,2,0.3
					c0,0.1,0,0.2-1.5,0.7C9.6,34,9.5,34.1,9.4,34.2C9.4,34.2,9.4,34.2,9.4,34.2z M7.8,33.2C7.8,33.2,7.8,33.2,7.8,33.2
					c0.6,0.3,1.1,0.6,1.4,0.7c-0.1-0.2-0.3-0.6-0.5-1c0,0,0-0.1,0-0.1c0,0,0-0.1,0.1-0.1c0.5-0.2,1-0.4,1.3-0.5
					c-0.4,0-1-0.1-1.6-0.1c0,0-0.1,0-0.1-0.1c-0.2-0.4-0.4-0.9-0.5-1.1c-0.1,0.2-0.3,0.6-0.5,1.1c0,0-0.1,0.1-0.1,0.1
					c-0.6,0-1.2,0-1.6,0.1c0.3,0.1,0.8,0.3,1.2,0.5c0,0,0.1,0,0.1,0.1c0,0,0,0.1,0,0.1c-0.2,0.3-0.4,0.7-0.5,1
					C6.7,33.7,7.2,33.5,7.8,33.2C7.7,33.2,7.8,33.2,7.8,33.2z"/>
			</g>
			<g>
				<g>
					<path fill="#15161A" d="M13.8,17.4C13.8,17.4,13.8,17.4,13.8,17.4c-1.3-0.5-1.3-0.5-1.3-0.6c0,0,0,0,0-0.1V16c0,0,0-0.1,0-0.1
						c0-0.1,0.1-0.1,0.1-0.1c0,0,0.1,0,0.1,0.1c0.1,0.1,0.8,0.4,1.5,0.6c0,0,0.1,0,0.1,0.1c0,0,0,0.1,0,0.1c0,0-0.2,0.4-0.4,0.7
						C13.9,17.4,13.9,17.4,13.8,17.4z M12.7,16.7c0.1,0,0.3,0.2,1,0.4c0.1-0.2,0.2-0.4,0.2-0.5c-0.7-0.2-1-0.4-1.2-0.5V16.7z
						 M12.7,16.9L12.7,16.9L12.7,16.9z M12.7,16.9C12.7,16.9,12.7,16.9,12.7,16.9C12.7,16.9,12.7,16.9,12.7,16.9z"/>
					<path fill="#15161A" d="M16.6,17.4c0,0-0.1,0-0.1-0.1c-0.2-0.3-0.4-0.7-0.4-0.7c0,0,0-0.1,0-0.1c0,0,0-0.1,0.1-0.1
						c0.6-0.2,1.3-0.5,1.5-0.6c0,0,0.1-0.1,0.1-0.1c0.1,0,0.1,0.1,0.1,0.1v0.8C17.9,16.9,17.9,17,16.6,17.4
						C16.6,17.4,16.6,17.4,16.6,17.4z M16.4,16.7c0.1,0.1,0.2,0.3,0.2,0.5c0.7-0.3,0.9-0.4,1-0.4v-0.6
						C17.4,16.3,17.1,16.4,16.4,16.7z"/>
					<path fill="#15161A" d="M16.8,18.8c-0.1,0-0.5-0.1-1.6-0.7c-1.5,0.8-1.6,0.7-1.7,0.7c0,0-0.1-0.1-0.1-0.1v-0.8
						c0,0,0-0.1,0.1-0.1c0,0,0,0,0.1,0c0.1,0,0.9-0.4,1.5-0.7c0,0,0.1,0,0.1,0c0.6,0.3,1.4,0.7,1.5,0.7c0,0,0.1,0,0.1,0
						c0,0,0.1,0.1,0.1,0.1v0.8C16.9,18.7,16.9,18.7,16.8,18.8C16.9,18.8,16.8,18.8,16.8,18.8z M15.2,17.8
						C15.2,17.8,15.2,17.8,15.2,17.8c0.6,0.3,1.2,0.6,1.5,0.7v-0.6c-0.2-0.1-0.6-0.2-1.5-0.7c-0.9,0.4-1.3,0.6-1.5,0.7v0.6
						C14,18.4,14.6,18.1,15.2,17.8C15.2,17.8,15.2,17.8,15.2,17.8z"/>
				</g>
				<path fill="#15161A" d="M16.8,18c-0.1,0-0.5-0.1-1.6-0.7c-1.6,0.8-1.6,0.7-1.7,0.7c-0.1-0.1-0.1-0.1,0.5-1.3
					c-1.4-0.5-1.5-0.6-1.5-0.7c0,0,0-0.1,0-0.1c0-0.1,0.1-0.2,2-0.2c0.6-1.2,0.6-1.2,0.7-1.2c0.1,0,0.2,0,0.7,1.2c2,0,2,0.1,2,0.3
					c0,0.1,0,0.2-1.5,0.7C17,17.8,16.9,17.9,16.8,18C16.9,17.9,16.8,18,16.8,18z M15.2,17C15.2,17,15.2,17,15.2,17
					c0.6,0.3,1.1,0.6,1.4,0.7c-0.1-0.2-0.3-0.6-0.5-1c0,0,0-0.1,0-0.1c0,0,0-0.1,0.1-0.1c0.5-0.2,1-0.4,1.3-0.5
					c-0.4,0-1-0.1-1.6-0.1c0,0-0.1,0-0.1-0.1c-0.2-0.4-0.4-0.9-0.5-1.1c-0.1,0.2-0.3,0.6-0.5,1.1c0,0-0.1,0.1-0.1,0.1
					c-0.6,0-1.2,0-1.6,0.1c0.3,0.1,0.8,0.3,1.2,0.5c0,0,0.1,0,0.1,0.1c0,0,0,0.1,0,0.1c-0.2,0.3-0.4,0.7-0.5,1
					C14.1,17.5,14.6,17.2,15.2,17C15.2,17,15.2,17,15.2,17z"/>
			</g>
			<g>
				<path fill="#15161A" d="M2.1,31.4c-0.2,0-0.4,0-0.4-0.1c0,0-0.1-0.1-0.1-0.6c-1.5,0.1-1.6,0-1.6-0.1c0-0.1-0.1-0.2,0.8-0.9
					c-0.3,0-0.4,0-0.4-0.1c-0.1-0.1-0.1-0.2,0.7-0.9C1,28.8,1,28.7,1,28.7c-0.1-0.1-0.1-0.2,1.1-1.2c0,0,0.1,0,0.2,0
					c1.2,1,1.1,1.1,1.1,1.2c0,0,0,0.1-0.1,0.1c0.8,0.7,0.8,0.8,0.7,0.9c0,0-0.1,0.1-0.4,0.1c0.8,0.7,0.8,0.8,0.8,0.9
					c0,0.1-0.1,0.2-1.6,0.1c0,0.4,0,0.5,0,0.6c0,0.1-0.1,0.1-0.2,0.1C2.3,31.4,2.2,31.4,2.1,31.4z M1.9,31.1c0.1,0,0.4,0,0.5,0
					c0-0.1,0-0.3,0-0.5c0,0,0-0.1,0-0.1c0,0,0.1,0,0.1,0c0.5,0,1.1,0,1.4,0C3.7,30.3,3.3,30,3,29.7c0,0-0.1-0.1,0-0.1
					c0-0.1,0.1-0.1,0.1-0.1c0.1,0,0.3,0,0.4,0C3.3,29.3,3,29,2.7,28.7c0,0-0.1-0.1,0-0.2c0-0.1,0.1-0.1,0.1-0.1c0,0,0.1,0,0.1,0
					c-0.2-0.2-0.5-0.5-0.8-0.8c-0.3,0.3-0.6,0.6-0.8,0.8c0,0,0.1,0,0.1,0c0.1,0,0.1,0,0.1,0.1c0,0.1,0,0.1,0,0.2
					c-0.3,0.3-0.7,0.6-0.8,0.8c0.1,0,0.3,0,0.4,0c0.1,0,0.1,0,0.1,0.1c0,0.1,0,0.1,0,0.1c-0.3,0.3-0.7,0.6-0.9,0.8
					c0.3,0,0.9,0,1.4,0c0,0,0.1,0,0.1,0c0,0,0,0.1,0,0.1C1.9,30.8,1.8,31.1,1.9,31.1z"/>
				<g>
					<path fill="#15161A" d="M1.1,29.1C1,29.1,1,29.1,1.1,29.1C1,29.1,0.9,29,0.9,29v-0.4c0-0.1,0-0.1,0.1-0.1c0,0,0.1,0,0.1,0
						c0,0,0.2,0,0.3,0c0.1,0,0.1,0,0.1,0.1c0,0.1,0,0.1,0,0.2C1.5,28.7,1.4,28.9,1.1,29.1C1.1,29.1,1.1,29.1,1.1,29.1z M1.2,28.5
						C1.2,28.5,1.2,28.5,1.2,28.5C1.2,28.5,1.2,28.5,1.2,28.5z"/>
					<path fill="#15161A" d="M0.5,30.3C0.5,30.3,0.4,30.3,0.5,30.3c-0.1,0-0.1-0.1-0.1-0.1v-0.6c0-0.1,0-0.1,0.1-0.1
						c0,0,0.1,0,0.1,0c0.1,0,0.3,0,0.6,0c0.1,0,0.1,0,0.1,0.1c0,0.1,0,0.1,0,0.1C1.2,29.7,0.9,30,0.5,30.3
						C0.5,30.3,0.5,30.3,0.5,30.3z M0.6,29.8v0.1c0.1-0.1,0.1-0.1,0.2-0.1C0.7,29.8,0.7,29.8,0.6,29.8z M0.6,29.5L0.6,29.5
						C0.6,29.5,0.6,29.5,0.6,29.5z"/>
					<path fill="#15161A" d="M3.1,29.1C3.1,29.1,3.1,29.1,3.1,29.1c-0.3-0.2-0.5-0.4-0.5-0.4c0,0-0.1-0.1,0-0.2
						c0-0.1,0.1-0.1,0.1-0.1c0.1,0,0.2,0,0.3,0c0,0,0.1,0,0.1,0c0.1,0,0.1,0.1,0.1,0.1V29C3.3,29,3.2,29.1,3.1,29.1
						C3.2,29.1,3.2,29.1,3.1,29.1z M3,28.6L3,28.6L3,28.6z"/>
					<path fill="#15161A" d="M2.1,32.2c-0.2,0-0.4,0-0.4-0.1c0,0-0.1-0.1-0.1-0.6c-1.5,0.1-1.5,0-1.6-0.1c0,0,0,0,0-0.1v-0.8
						c0-0.1,0-0.1,0.1-0.1c0,0,0.1,0,0.1,0c0.1,0,0.9,0,1.6,0c0,0,0.1,0,0.1,0c0,0,0,0.1,0,0.1c0,0.2,0,0.4,0,0.5c0.1,0,0.4,0,0.5,0
						c0-0.1,0-0.3,0-0.5c0,0,0-0.1,0-0.1c0,0,0.1,0,0.1,0c0.7,0,1.4,0.1,1.6,0c0,0,0.1,0,0.1,0c0.1,0,0.1,0.1,0.1,0.1v0.8
						c0,0,0,0,0,0c0,0.1-0.1,0.2-1.6,0.1c0,0.3,0,0.5-0.1,0.6c0,0.1-0.1,0.1-0.2,0.1C2.3,32.2,2.2,32.2,2.1,32.2z M1.9,31.9
						c0.1,0,0.4,0,0.5,0c0-0.1,0-0.3,0-0.5c0,0,0,0,0,0c0,0,0,0,0,0c-0.1,0-0.3,0-0.5,0c0,0,0,0,0,0.1C1.8,31.6,1.8,31.9,1.9,31.9z
						 M0.1,31.4L0.1,31.4L0.1,31.4z M2.5,31.3c0.6,0,1.2,0,1.4,0v-0.6c-0.2,0-0.6,0-1.4,0C2.6,31.2,2.6,31.3,2.5,31.3L2.5,31.3z
						 M0.2,31.3c0.2,0,0.8,0,1.4,0c0,0-0.1-0.2,0-0.6c-0.8,0-1.2,0-1.4,0V31.3z M1.9,31.2L1.9,31.2L1.9,31.2z M4,30.6L4,30.6L4,30.6
						z"/>
					<path fill="#15161A" d="M3.7,30.3C3.7,30.3,3.6,30.3,3.7,30.3C3.3,30,3,29.7,3,29.7c0,0-0.1-0.1,0-0.1c0-0.1,0.1-0.1,0.1-0.1
						c0.2,0,0.5,0,0.6,0c0,0,0.1,0,0.1,0c0.1,0,0.1,0.1,0.1,0.1v0.6C3.8,30.2,3.8,30.3,3.7,30.3C3.7,30.3,3.7,30.3,3.7,30.3z
						 M3.4,29.7c0.1,0,0.1,0.1,0.2,0.1v-0.1C3.5,29.8,3.5,29.8,3.4,29.7z M3.6,29.5L3.6,29.5C3.6,29.5,3.6,29.5,3.6,29.5z"/>
				</g>
			</g>
			<g>
				<path fill="#15161A" d="M22.7,18.3c-0.2,0-0.4,0-0.4-0.1c0,0-0.1-0.1-0.1-0.6c-1.5,0.1-1.6,0-1.6-0.1c0-0.1-0.1-0.2,0.8-0.9
					c-0.3,0-0.4,0-0.4-0.1c-0.1-0.1-0.1-0.2,0.7-0.9c-0.1,0-0.1-0.1-0.1-0.1c-0.1-0.1-0.1-0.2,1.1-1.2c0,0,0.1,0,0.2,0
					c1.2,1,1.1,1.1,1.1,1.2c0,0,0,0.1-0.1,0.1c0.8,0.7,0.8,0.8,0.7,0.9c0,0-0.1,0.1-0.4,0.1c0.8,0.7,0.8,0.8,0.8,0.9
					c0,0.1-0.1,0.2-1.6,0.1c0,0.4,0,0.5,0,0.6c0,0.1-0.1,0.1-0.2,0.1C22.9,18.3,22.8,18.3,22.7,18.3z M22.5,18c0.1,0,0.4,0,0.5,0
					c0-0.1,0-0.3,0-0.5c0,0,0-0.1,0-0.1c0,0,0.1,0,0.1,0c0.5,0,1.1,0,1.4,0c-0.2-0.2-0.5-0.5-0.9-0.8c0,0-0.1-0.1,0-0.1
					c0-0.1,0.1-0.1,0.1-0.1c0.1,0,0.3,0,0.4,0c-0.2-0.2-0.5-0.5-0.8-0.8c0,0-0.1-0.1,0-0.2c0-0.1,0.1-0.1,0.1-0.1c0,0,0.1,0,0.1,0
					c-0.2-0.2-0.5-0.5-0.8-0.8c-0.3,0.3-0.6,0.6-0.8,0.8c0,0,0.1,0,0.1,0c0.1,0,0.1,0,0.1,0.1c0,0.1,0,0.1,0,0.2
					c-0.3,0.3-0.7,0.6-0.8,0.8c0.1,0,0.3,0,0.4,0c0.1,0,0.1,0,0.1,0.1c0,0.1,0,0.1,0,0.1c-0.3,0.3-0.7,0.6-0.9,0.8
					c0.3,0,0.9,0,1.4,0c0,0,0.1,0,0.1,0c0,0,0,0.1,0,0.1C22.5,17.7,22.4,17.9,22.5,18z M22.5,18L22.5,18L22.5,18z"/>
				<g>
					<path fill="#15161A" d="M21.7,16C21.6,16,21.6,16,21.7,16c-0.1,0-0.1-0.1-0.1-0.1v-0.4c0-0.1,0-0.1,0.1-0.1c0,0,0.1,0,0.1,0
						c0,0,0.2,0,0.3,0c0.1,0,0.1,0,0.1,0.1c0,0.1,0,0.1,0,0.2C22.1,15.6,21.9,15.7,21.7,16C21.7,16,21.7,16,21.7,16z M21.8,15.4
						L21.8,15.4L21.8,15.4z"/>
					<path fill="#15161A" d="M21.1,17.2C21.1,17.2,21,17.2,21.1,17.2c-0.1,0-0.1-0.1-0.1-0.1v-0.6c0-0.1,0-0.1,0.1-0.1
						c0,0,0.1,0,0.1,0c0.1,0,0.3,0,0.6,0c0.1,0,0.1,0,0.1,0.1c0,0.1,0,0.1,0,0.1C21.8,16.5,21.5,16.9,21.1,17.2
						C21.1,17.2,21.1,17.2,21.1,17.2z M21.2,16.6v0.1c0.1-0.1,0.1-0.1,0.2-0.1C21.3,16.6,21.2,16.6,21.2,16.6z M21.2,16.4L21.2,16.4
						C21.2,16.4,21.2,16.4,21.2,16.4z"/>
					<path fill="#15161A" d="M23.7,16C23.7,16,23.7,16,23.7,16c-0.3-0.2-0.5-0.4-0.5-0.4c0,0-0.1-0.1,0-0.2c0-0.1,0.1-0.1,0.1-0.1
						c0.1,0,0.2,0,0.3,0c0,0,0.1,0,0.1,0c0.1,0,0.1,0.1,0.1,0.1v0.4C23.9,15.9,23.8,15.9,23.7,16C23.8,16,23.8,16,23.7,16z
						 M23.6,15.4L23.6,15.4L23.6,15.4z"/>
					<path fill="#15161A" d="M22.7,19.1c-0.2,0-0.4,0-0.4-0.1c0,0-0.1-0.1-0.1-0.6c-1.5,0.1-1.5,0-1.6-0.1c0,0,0,0,0-0.1v-0.8
						c0-0.1,0-0.1,0.1-0.1c0,0,0.1,0,0.1,0c0.1,0,0.9,0,1.6,0c0,0,0.1,0,0.1,0c0,0,0,0.1,0,0.1c0,0.2,0,0.4,0,0.5c0.1,0,0.4,0,0.5,0
						c0-0.1,0-0.3,0-0.5c0,0,0-0.1,0-0.1c0,0,0.1,0,0.1,0c0.7,0,1.4,0.1,1.6,0c0,0,0.1,0,0.1,0c0.1,0,0.1,0.1,0.1,0.1v0.8
						c0,0,0,0,0,0c0,0.1-0.1,0.2-1.6,0.1c0,0.3,0,0.5-0.1,0.6c0,0.1-0.1,0.1-0.2,0.1C22.9,19.1,22.8,19.1,22.7,19.1z M22.4,18.8
						c0.1,0,0.4,0,0.5,0c0-0.1,0-0.3,0-0.5c0,0,0,0,0,0c0,0,0,0,0,0c-0.1,0-0.3,0-0.5,0c0,0,0,0,0,0.1
						C22.4,18.5,22.4,18.7,22.4,18.8z M20.7,18.3L20.7,18.3L20.7,18.3z M23.1,18.2c0.6,0,1.2,0,1.4,0v-0.6c-0.2,0-0.6,0-1.4,0
						C23.2,18,23.2,18.1,23.1,18.2L23.1,18.2z M20.8,18.2c0.2,0,0.8,0,1.4,0c0,0-0.1-0.2,0-0.6c-0.8,0-1.2,0-1.4,0V18.2z M22.5,18
						L22.5,18L22.5,18z"/>
					<path fill="#15161A" d="M24.3,17.2C24.3,17.2,24.2,17.2,24.3,17.2c-0.4-0.3-0.7-0.6-0.7-0.6c0,0-0.1-0.1,0-0.1
						c0-0.1,0.1-0.1,0.1-0.1c0.2,0,0.5,0,0.6,0c0,0,0.1,0,0.1,0c0.1,0,0.1,0.1,0.1,0.1V17C24.4,17.1,24.4,17.1,24.3,17.2
						C24.3,17.2,24.3,17.2,24.3,17.2z M24,16.6c0.1,0,0.1,0.1,0.2,0.1v-0.1C24.1,16.6,24.1,16.6,24,16.6z M24.2,16.4L24.2,16.4
						L24.2,16.4z"/>
				</g>
			</g>
			<g>
				<path fill="#15161A" d="M13.7,23.7C13.7,23.7,13.7,23.7,13.7,23.7c-0.1,0-0.2,0-0.3-0.1c-0.1,0-0.2,0.1-0.3,0
					c-0.1,0-0.2-0.1-0.2-0.2c-0.1,0-0.2,0-0.3,0c-0.1,0-0.2-0.1-0.2-0.2c0,0,0,0,0,0c-0.1,0-0.2,0-0.3-0.1c-0.1-0.1-0.1-0.1-0.1-0.2
					c0,0,0,0,0,0c-0.1,0-0.2-0.1-0.2-0.2c0-0.1,0-0.1,0-0.2c0,0,0,0,0,0c-0.1-0.1-0.1-0.1-0.2-0.2c0-0.1,0-0.2,0.1-0.2
					c-0.1-0.1-0.1-0.2-0.1-0.2c0-0.1,0.1-0.2,0.2-0.2c0,0,0,0,0,0c0-0.1,0-0.1,0-0.2c0.1-0.1,0.1-0.1,0.2-0.1c0,0,0,0,0,0
					c0-0.1,0.1-0.2,0.1-0.2c0.1-0.1,0.2-0.1,0.3-0.1c0,0,0,0,0,0c0-0.1,0.1-0.1,0.2-0.2c0.1,0,0.2-0.1,0.3,0
					c0.1-0.1,0.1-0.1,0.3-0.2c0.1,0,0.2,0,0.3,0c0.2-0.1,0.5-0.1,0.6,0c0.1,0,0.2-0.1,0.3,0c0.1,0,0.2,0.1,0.3,0.2
					c0.1,0,0.2,0,0.3,0c0.1,0,0.2,0.1,0.2,0.2c0,0,0,0,0,0c0.1,0,0.2,0,0.3,0.1c0.1,0.1,0.1,0.1,0.1,0.2c0,0,0,0,0,0
					c0.1,0,0.2,0.1,0.3,0.2c0,0.1,0.1,0.1,0,0.2c0,0,0,0,0,0c0.1,0,0.2,0.1,0.2,0.2c0,0.1,0,0.2-0.1,0.2c0,0,0,0,0,0
					c0,0.1,0,0.1,0,0.2c0,0.1-0.1,0.2-0.2,0.2c0,0,0,0,0,0c0,0.1,0,0.2,0,0.2c-0.1,0.1-0.1,0.1-0.3,0.1c0,0,0,0,0,0
					c0,0.1-0.1,0.2-0.1,0.2c-0.1,0.1-0.2,0.1-0.3,0.1c0,0,0,0,0,0c0,0.1-0.1,0.2-0.2,0.2c-0.1,0-0.2,0-0.3,0
					c-0.1,0.1-0.2,0.1-0.3,0.2c-0.1,0-0.2,0-0.3-0.1C14,23.6,13.9,23.7,13.7,23.7z M13.5,23.2C13.5,23.2,13.5,23.2,13.5,23.2
					c0.1,0,0.1,0.1,0.1,0.1c0,0,0.1,0.1,0.2,0.1c0.1,0,0.2,0,0.2-0.1c0,0,0.1-0.1,0.1-0.1c0,0,0.1,0,0.1,0.1c0,0,0.1,0.1,0.2,0.1
					c0.1,0,0.1-0.1,0.1-0.1c0-0.1,0-0.1,0.1-0.1c0,0,0.1,0,0.1,0c0.1,0,0.2,0.1,0.2,0c0,0,0.1,0,0.1,0c0,0,0-0.1,0-0.2
					c0,0,0.1-0.1,0.1,0c0.1,0,0.2,0,0.2,0c0,0,0,0,0,0c0,0,0,0,0,0c0,0-0.1-0.1,0-0.2c0-0.1,0.1-0.1,0.1-0.1c0.1,0,0.2,0,0.2-0.1
					c0,0,0,0,0-0.1c-0.1,0-0.1-0.1-0.1-0.1c0-0.1,0.1-0.1,0.1-0.1c0.1,0,0.2,0,0.2-0.1c0,0,0,0-0.1-0.1c-0.1,0-0.1-0.1-0.1-0.1
					c0-0.1,0-0.1,0.1-0.1c0.1,0,0.1-0.1,0.1-0.1c0,0-0.1-0.1-0.2-0.1c-0.1,0-0.1,0-0.1-0.1c0-0.1,0-0.1,0.1-0.1c0,0,0.1,0,0.1,0
					c0,0-0.1-0.1-0.2-0.1c-0.1,0-0.1,0-0.1-0.1c0-0.1,0-0.1,0-0.2c0,0,0,0,0,0c0,0,0,0,0,0c-0.1,0-0.2-0.1-0.2,0c-0.1,0-0.1,0-0.1,0
					c0,0,0-0.1,0-0.1c0,0,0,0,0-0.1c-0.1,0-0.2,0-0.2,0c0,0-0.1,0-0.1,0c0,0-0.1-0.1-0.1-0.1c0,0,0-0.1-0.1-0.1c-0.1,0-0.2,0-0.2,0
					c0,0-0.1,0-0.1,0c0,0-0.1,0-0.1-0.1c0,0-0.1-0.1-0.2-0.1c-0.1,0-0.2,0-0.2,0.1c0,0-0.1,0.1-0.1,0.1c0,0-0.1,0-0.1,0
					c0,0-0.1-0.1-0.2,0c-0.1,0-0.1,0.1-0.1,0.1c0,0,0,0.1-0.1,0.1c0,0-0.1,0-0.1,0c-0.1,0-0.2,0-0.2,0c0,0-0.1,0-0.1,0
					c0,0,0,0.1,0,0.1c0,0-0.1,0.1-0.1,0c-0.1,0-0.2,0-0.2,0c0,0,0,0,0,0c0,0,0.1,0.1,0,0.2c0,0-0.1,0.1-0.1,0.1
					c-0.1,0-0.2,0-0.2,0.1c0,0,0,0,0,0c0,0,0.1,0.1,0.1,0.1c0,0.1-0.1,0.1-0.1,0.1c-0.1,0-0.1,0-0.1,0.1c0,0,0,0,0.1,0.1
					c0.1,0,0.1,0.1,0.1,0.1c0,0.1,0,0.1-0.1,0.1c-0.1,0-0.1,0.1-0.1,0.1c0,0,0,0.1,0.1,0.1c0.1,0,0.1,0,0.1,0.1c0,0.1,0,0.1-0.1,0.1
					c0,0,0,0,0,0c0,0,0.1,0.1,0.2,0.1c0.1,0,0.1,0,0.1,0.1c0,0,0,0.1,0,0.1c0,0,0,0,0,0c0,0,0,0,0,0c0,0,0.1,0.1,0.2,0
					c0,0,0.1,0,0.1,0c0,0,0,0.1,0,0.1c0,0,0,0,0,0.1c0.1,0,0.2,0,0.2,0c0,0,0.1,0,0.1,0c0,0,0.1,0.1,0.1,0.1c0,0,0,0,0.1,0.1
					C13.2,23.3,13.3,23.3,13.5,23.2C13.4,23.2,13.4,23.2,13.5,23.2z"/>
				<g>
					<path fill="#15161A" d="M15.8,21.8C15.8,21.8,15.8,21.8,15.8,21.8c-0.1,0-0.1,0-0.1,0c-0.1,0-0.1,0-0.1-0.1
						c0-0.1,0-0.1,0.1-0.1c0,0,0.1,0,0.1,0c0,0,0-0.1,0-0.1c0,0,0.1-0.1,0.1,0c0.1,0,0.1,0.1,0.1,0.1v0.2
						C16,21.8,15.9,21.8,15.8,21.8C15.9,21.8,15.9,21.8,15.8,21.8z"/>
					<path fill="#15161A" d="M11.8,21.8C11.8,21.8,11.8,21.8,11.8,21.8c-0.1,0-0.1-0.1-0.1-0.1v-0.2c0-0.1,0-0.1,0.1-0.1
						c0.1,0,0.1,0,0.1,0c0,0,0,0,0,0.1c0,0,0,0,0,0c0,0,0,0,0,0c0,0,0,0,0,0c0,0,0.1,0.1,0,0.1c0,0.1-0.1,0.1-0.1,0.1
						C11.9,21.8,11.9,21.8,11.8,21.8C11.8,21.8,11.8,21.8,11.8,21.8z"/>
					<path fill="#15161A" d="M13.7,24.4C13.7,24.4,13.7,24.4,13.7,24.4c-0.1,0-0.2,0-0.3-0.1c-0.1,0-0.2,0.1-0.3,0
						c-0.1,0-0.2-0.1-0.2-0.2c-0.1,0-0.2,0-0.3,0c-0.1,0-0.2-0.1-0.2-0.2c-0.1,0-0.2,0-0.3-0.1c-0.1,0-0.1-0.1-0.1-0.2c0,0,0,0,0,0
						v0c-0.1,0-0.2-0.1-0.2-0.2c0-0.1,0-0.1,0-0.2l0-0.1c-0.1,0-0.1-0.1-0.1-0.1c0,0,0,0,0-0.1v-0.8c0-0.1,0-0.1,0.1-0.1
						c0,0,0.1,0,0.1,0c0,0,0,0,0,0.1c0,0,0,0.1,0.1,0.1c0.1,0,0.1,0,0.1,0.1c0,0.1,0,0.1-0.1,0.1c0,0,0,0,0,0c0,0,0.1,0.1,0.2,0.1
						c0.1,0,0.1,0,0.1,0.1c0,0,0,0.1,0,0.1c0,0,0,0,0,0c0,0,0,0,0,0c0,0,0.1,0.1,0.2,0c0,0,0.1,0,0.1,0c0,0,0,0.1,0,0.1
						c0,0,0,0,0,0.1c0.1,0,0.2,0,0.2,0c0,0,0.1,0,0.1,0c0,0,0.1,0.1,0.1,0.1c0,0,0,0,0.1,0.1c0.1,0,0.2,0,0.2,0c0,0,0.1-0.1,0.1,0
						c0,0,0.1,0,0.1,0.1c0,0,0.1,0.1,0.2,0.1c0.1,0,0.2,0,0.2-0.1c0,0,0.1-0.1,0.1-0.1c0,0,0.1,0,0.1,0.1c0,0,0.1,0.1,0.2,0.1
						c0.1,0,0.1-0.1,0.1-0.1c0-0.1,0-0.1,0.1-0.1c0,0,0.1,0,0.1,0c0.1,0,0.2,0.1,0.2,0c0,0,0.1,0,0.1,0c0,0,0-0.1,0-0.2
						c0,0,0.1-0.1,0.1,0c0.1,0,0.2,0,0.2,0c0,0,0,0,0,0c0,0,0,0,0,0c0,0-0.1-0.1,0-0.2c0-0.1,0.1-0.1,0.1-0.1c0.1,0,0.2,0,0.2-0.1
						c0,0,0,0,0-0.1c-0.1,0-0.1-0.1-0.1-0.1c0-0.1,0.1-0.1,0.1-0.1c0.1,0,0.1,0,0.2-0.1c0,0,0-0.1,0-0.1c0,0,0.1,0,0.1,0
						c0,0,0.1,0.1,0.1,0.1v0c0,0,0,0,0,0v0.8c0,0,0,0,0,0c0,0,0,0,0,0c0,0.1-0.1,0.1-0.2,0.2v0.1c0,0,0,0,0,0c0,0.1,0,0.1-0.1,0.1
						c-0.1,0.1-0.1,0.1-0.3,0.1c0,0,0,0,0,0h0c0,0.1-0.1,0.2-0.1,0.2C15.4,24,15.3,24,15.2,24c0,0.1-0.1,0.2-0.2,0.2
						c-0.1,0-0.2,0-0.3,0c-0.1,0.1-0.2,0.1-0.3,0.2c-0.1,0-0.2,0-0.3-0.1C14,24.4,13.9,24.4,13.7,24.4z M13.5,24
						C13.5,24,13.5,24,13.5,24c0.1,0,0.1,0.1,0.1,0.1c0,0,0.1,0.1,0.2,0.1c0.1,0,0.2,0,0.2-0.1c0,0,0.1-0.1,0.1-0.1
						c0,0,0.1,0,0.1,0.1c0,0,0.1,0.1,0.2,0.1c0.1,0,0.1-0.1,0.1-0.1c0-0.1,0-0.1,0.1-0.1c0,0,0.1,0,0.1,0c0.1,0,0.2,0.1,0.2,0
						c0,0,0.1,0,0.1-0.1c0,0,0,0,0,0v0c0,0,0-0.1,0.1-0.1c0,0,0.1,0,0.1,0c0.1,0,0.2,0,0.2,0c0,0,0,0,0,0c0,0,0,0,0,0v-0.1
						c0,0,0-0.1,0-0.1c0,0,0.1,0,0.1,0c0.1,0,0.1,0,0.2-0.1c0,0,0,0,0,0v-0.2c0-0.1,0-0.1,0.1-0.1c0,0,0.1,0,0.1,0c0,0,0,0,0,0
						c0,0,0,0,0,0v-0.2c-0.1,0.1-0.1,0.1-0.2,0.1c0,0,0,0,0,0c0,0.1-0.1,0.2-0.1,0.2c-0.1,0.1-0.2,0.1-0.3,0.1c0,0,0,0,0,0
						c0,0.1-0.1,0.2-0.2,0.2c-0.1,0-0.2,0-0.3,0c-0.1,0.1-0.2,0.1-0.3,0.2c-0.1,0-0.2,0-0.3-0.1c-0.1,0.1-0.2,0.1-0.3,0.1
						c-0.1,0-0.2,0-0.3-0.1c-0.1,0-0.2,0.1-0.3,0c-0.1,0-0.2-0.1-0.2-0.2c-0.1,0-0.2,0-0.3,0c-0.1,0-0.2-0.1-0.2-0.2c0,0,0,0,0,0
						c-0.1,0-0.2,0-0.3-0.1c-0.1-0.1-0.1-0.1-0.1-0.2c0,0,0,0,0,0c-0.1,0-0.1,0-0.1-0.1V23c0,0,0,0,0,0c0,0,0,0,0.1,0
						c0,0,0.1,0.1,0.1,0.1v0.2c0,0,0.1,0.1,0.1,0.1c0.1,0,0.1,0.1,0.1,0.1v0.1c0,0,0,0,0,0c0,0,0,0,0,0c0,0,0.1,0.1,0.2,0
						c0,0,0.1,0,0.1,0c0,0,0,0.1,0,0.1v0c0,0,0,0,0,0c0,0,0,0,0,0c0.1,0,0.2,0,0.2,0c0,0,0.1,0,0.1,0C13,24,13,24,13,24
						c0,0,0,0,0.1,0.1C13.2,24.1,13.3,24.1,13.5,24C13.4,24,13.4,24,13.5,24z"/>
					<path fill="#15161A" d="M11.7,22.3C11.6,22.3,11.6,22.3,11.7,22.3c-0.1,0-0.1-0.1-0.1-0.1c0,0,0,0,0,0c0,0,0,0,0,0l0-0.2
						c0-0.1,0-0.1,0.1-0.1c0.1,0,0.1,0,0.1,0.1c0,0,0,0,0.1,0.1c0.1,0,0.1,0.1,0.1,0.1c0,0.1,0,0.1-0.1,0.1c0,0-0.1,0-0.1,0.1
						C11.8,22.2,11.7,22.3,11.7,22.3z"/>
					<path fill="#15161A" d="M16,22.3c-0.1,0-0.1,0-0.1-0.1c0,0,0,0-0.1-0.1c-0.1,0-0.1-0.1-0.1-0.1c0-0.1,0-0.1,0.1-0.1
						c0.1,0,0.1,0,0.1-0.1v0c0-0.1,0.1-0.1,0.1-0.1c0.1,0,0.1,0,0.1,0.1c0,0,0,0.1,0,0.1v0.3c0,0,0,0,0,0c0,0,0,0,0,0
						C16.1,22.3,16,22.3,16,22.3C16,22.3,16,22.3,16,22.3z"/>
				</g>
			</g>
		</g>
	</g>
	<g>
		<g>
			<path fill="#15161A" d="M38.3,30h-14c-0.1,0-0.1-0.1-0.1-0.1v-0.7H24c-0.1,0-0.1-0.1-0.1-0.1V29c-1.4,0.2-3.4,0-3.4-0.7
				c0-0.7,2-1,3.4-0.7v-0.2c0-0.1,0.1-0.1,0.1-0.1h0.3v-0.7c0-0.1,0.1-0.1,0.1-0.1h14c0.1,0,0.1,0.1,0.1,0.1v0.7h0.4
				c0.1,0,0.1,0.1,0.1,0.1v0.2c0.4-0.1,0.9-0.1,1.4-0.1c1.2,0,2.3,0.3,2.3,0.8c0,0.5-1.2,0.8-2.3,0.8c-0.5,0-1-0.1-1.4-0.1v0.2
				c0,0.1-0.1,0.1-0.1,0.1h-0.4v0.7C38.5,30,38.4,30,38.3,30z M24.5,29.8h13.7v-0.7c0-0.1,0.1-0.1,0.1-0.1h0.4v-0.2
				c0,0,0-0.1,0.1-0.1c0,0,0.1,0,0.1,0c0.4,0.1,0.9,0.2,1.5,0.2c1.3,0,2.1-0.3,2.1-0.6c0-0.2-0.8-0.6-2.1-0.6
				c-0.5,0-1.1,0.1-1.5,0.2c0,0-0.1,0-0.1,0c0,0-0.1-0.1-0.1-0.1v-0.3h-0.4c-0.1,0-0.1-0.1-0.1-0.1v-0.7H24.5v0.7
				c0,0.1-0.1,0.1-0.1,0.1h-0.3v0.2c0,0,0,0.1,0,0.1c0,0-0.1,0-0.1,0c-0.3-0.1-0.7-0.1-1.1-0.1c-1.3,0-2.1,0.3-2.1,0.6
				c0,0.2,0.8,0.6,2.1,0.6c0.4,0,0.8,0,1.1-0.1c0,0,0.1,0,0.1,0c0,0,0,0.1,0,0.1V29h0.3c0.1,0,0.1,0.1,0.1,0.1V29.8z"/>
		</g>
		<path fill="#15161A" d="M37.7,27.8H24.8c-0.1,0-0.1-0.1-0.1-0.1v-0.8c0-0.1,0.1-0.1,0.1-0.1h12.9c0.1,0,0.1,0.1,0.1,0.1v0.8
			C37.9,27.7,37.8,27.8,37.7,27.8z M24.9,27.5h12.6V27H24.9V27.5z"/>
		<path fill="#15161A" d="M40.8,28.4c-0.2,0-1.2,0-1.2-0.4c0-0.4,1-0.4,1.2-0.4c0.2,0,1.2,0,1.2,0.4C42,28.4,41,28.4,40.8,28.4z
			 M39.9,28c0.1,0.1,0.4,0.1,0.9,0.1c0.5,0,0.8-0.1,0.9-0.1c-0.1-0.1-0.4-0.1-0.9-0.1C40.4,27.9,40.1,27.9,39.9,28z"/>
		<path fill="#15161A" d="M22.7,28.4c-0.2,0-1.2,0-1.2-0.4c0-0.4,1-0.4,1.2-0.4c0.2,0,1.2,0,1.2,0.4C23.9,28.4,22.9,28.4,22.7,28.4z
			 M21.8,28c0.1,0.1,0.4,0.1,0.9,0.1c0.5,0,0.8-0.1,0.9-0.1c-0.1-0.1-0.4-0.1-0.9-0.1C22.3,27.9,22,27.9,21.8,28z"/>
		<g>
			<path fill="#15161A" d="M24.4,30c-0.1,0-0.1-0.1-0.1-0.1v-3.3c0-0.1,0.1-0.1,0.1-0.1c0.1,0,0.1,0.1,0.1,0.1v3.3
				C24.5,30,24.4,30,24.4,30z"/>
		</g>
		<g>
			<path fill="#15161A" d="M38.3,30c-0.1,0-0.1-0.1-0.1-0.1v-3.3c0-0.1,0.1-0.1,0.1-0.1c0.1,0,0.1,0.1,0.1,0.1v3.3
				C38.4,30,38.4,30,38.3,30z"/>
		</g>
	</g>
</g>
</svg>
