<?xml version="1.0" encoding="utf-8"?>
<!-- Generator: Adobe Illustrator 18.1.1, SVG Export Plug-In . SVG Version: 6.00 Build 0)  -->
<svg version="1.1" id="Шар_1" xmlns="http://www.w3.org/2000/svg" xmlns:xlink="http://www.w3.org/1999/xlink" x="0px" y="0px"
	 viewBox="0 0 50 50" enable-background="new 0 0 50 50" xml:space="preserve">
<g>
	<path fill="#15161A" d="M1.1,36.1c-0.1,0-0.2,0-0.2-0.1l-0.8-1c-0.1-0.1-0.1-0.2,0-0.3l3.4-4.7c0.1-0.1,0.1-0.1,0.2-0.1l0,0
		c0.1,0,0.2,0,0.2,0.1l2.6,3.7c0.1,0.1,0.1,0.2,0,0.2c0,0.1-0.1,0.2-0.2,0.2L1.3,36C1.2,36.1,1.2,36.1,1.1,36.1z M0.7,34.7l0.5,0.7
		L6,33.6l-2.2-3.1L0.7,34.7z"/>
	<path fill="#15161A" d="M7.1,29.4c-0.1,0-0.1,0-0.2,0c-0.3,0-0.5-0.1-0.6-0.3l0,0c-1.1-1.6,8.2-11.9,9.5-13.2
		c2.3-2.2,4.6-3,6.3-2.2c0.7,0.3,1.1,1.1,1.3,2c0.2,1.7-0.7,3.5-2.5,5.1C17.9,23.4,9.6,29.4,7.1,29.4z M6.8,28.8
		c0,0,0.1,0.1,0.2,0.1c1.9,0.2,10.1-5.5,13.5-8.5c2.4-2.1,2.4-3.9,2.3-4.6c-0.1-0.7-0.4-1.3-0.9-1.5c-1.5-0.7-3.5,0-5.6,2.1
		C13.2,19.2,6.2,27.8,6.8,28.8z"/>
	<path fill="#15161A" d="M48.7,38c-0.1,0-0.3-0.1-0.3-0.3c-0.1-1.3-0.5-3.9-1.7-5.7c-0.8-1.3-3.4-2.3-5.5-3.6
		c-1.9-1.2-3.7-2.3-4.6-3.4c-0.8-1-1.9-3-3.1-5.1c-1.4-2.5-3.2-6.8-3.8-6.9c-0.8-0.1-2.9,1.6-4.1,2.8c0,0-0.1,0.1-0.2,0.1l-0.1,0
		c-0.1,0-0.3,0-0.3-0.2l-0.3-0.7c0-0.1,0-0.2,0-0.3c0.1-0.1,2.6-3.4,4.6-3.6c1.4-0.2,3.4,2.5,6.3,6.7c0.9,1.3,1.7,2.5,2.5,3.4
		c1.2,1.5,2.9,3,4.5,4.5c1.9,1.7,3.9,3.5,5.1,5.3c2.3,3.3,2,6.5,2,6.6c0,0.1-0.1,0.2-0.3,0.3L48.7,38C48.7,38,48.7,38,48.7,38z
		 M29.7,12.5c0.1,0,0.1,0,0.2,0c0.8,0.1,1.6,2.7,4.2,7.2c1.2,2.1,2.4,4.1,3.1,5.1c0.8,1,2.5,2.1,4.4,3.3c2.2,1.4,4.8,2.3,5.7,3.8
		c1.1,1.8,1.6,4.2,1.7,5.6l0.3,0c0-0.8-0.1-3.3-1.9-6c-1.2-1.7-3.1-3.5-5-5.2c-1.6-1.5-3.3-3-4.5-4.5c-0.7-0.9-1.6-2.1-2.5-3.4
		c-2-2.9-4.6-6.6-5.8-6.5l0,0C28,12,26,14.4,25.5,15l0.1,0.2C26.3,14.4,28.5,12.5,29.7,12.5z"/>
	<path fill="#15161A" d="M44.2,38.4c-0.1,0-0.2-0.1-0.3-0.2l-0.7-1.3c0,0,0,0,0-0.1c0,0-0.9-3.5-3.1-6.4c-0.1-0.1-0.1-0.3,0-0.4
		c0.1-0.1,0.3-0.1,0.4,0c0.1,0.1,3.4,3.1,4.8,7.9c0,0.1,0,0.2,0,0.2c0,0.1-0.1,0.1-0.2,0.1L44.2,38.4C44.2,38.4,44.2,38.4,44.2,38.4
		z M43.8,36.7l0.6,1.1l0.4,0c-0.6-1.8-1.4-3.4-2.3-4.6C43.3,35,43.7,36.4,43.8,36.7z"/>
	<path fill="#15161A" d="M41.1,38.8c-0.1,0-0.3-0.1-0.3-0.2c0,0-0.5-3.3-1.4-4.8c-0.4-0.7-1.7-2.4-2.9-4.1c-1.5-2-3.2-4.4-4-5.6
		c-0.1-0.1,0-0.3,0.1-0.4c0.1-0.1,0.3-0.1,0.4,0.1c0,0,2.2,2.7,4,4.7c1.8,2.1,5.2,5.9,5.4,10c0,0.1,0,0.2-0.1,0.2
		c-0.1,0.1-0.1,0.1-0.2,0.1L41.1,38.8C41.1,38.8,41.1,38.8,41.1,38.8z M37,29.5c1.2,1.7,2.4,3.2,2.8,3.9c0.9,1.4,1.4,4,1.5,4.8
		l0.3,0C41.3,34.8,38.8,31.6,37,29.5z"/>
	<path fill="#15161A" d="M41.1,38.8c-0.1,0-0.3-0.1-0.3-0.3c0,0-0.3-2.6-1.5-4.8c-0.8-1.4-2.5-3.7-4-5.7c-0.9-1.2-1.8-2.3-2.3-3
		c-0.6-0.9-1.6-2.9-2.5-4.8c-0.9-1.8-1.9-4-2.3-4.3c-0.1-0.1-0.5-0.2-1.5,0c0.1,0.3,0,0.5-0.1,0.6c-0.1,0.1-0.1,0.1-0.3,0.1
		c0.7,1.3,0.9,2.6,0.6,3.9c-1.4,4.9-10.5,8.9-19.2,12.8L6.5,34c-0.1,0.1-0.3,0-0.4-0.1l-2.6-3.7c-0.1-0.1-0.1-0.2,0-0.3
		C8.7,22.1,14.7,13.8,20,13c1.5-0.2,2.9,0.2,4.1,1.1c0,0,0,0,0,0c0.3-0.3,0.7-0.2,1.2,0.1c0.8-1,2.6-2.9,4.1-3
		c1.4-0.2,3.4,2.5,6.3,6.7c0.9,1.3,1.7,2.5,2.5,3.4c1.2,1.5,2.9,3,4.5,4.5c1.9,1.7,3.9,3.5,5.1,5.3c2.3,3.3,2,6.5,2,6.6
		c0,0.1-0.1,0.2-0.3,0.3l-5.4,0.5c-0.1,0-0.2-0.1-0.3-0.2l-0.3-0.7l-0.3,0.9c0,0.1-0.1,0.2-0.3,0.2L41.1,38.8
		C41.1,38.8,41.1,38.8,41.1,38.8z M27.7,15.3c0.4,0,0.7,0.1,0.9,0.2c0.4,0.3,1.1,1.6,2.5,4.5c0.9,1.9,1.8,3.8,2.4,4.7
		c0.5,0.7,1.3,1.8,2.3,3c1.6,2,3.3,4.3,4.1,5.7c1,1.9,1.4,4,1.5,4.8l1.5-0.1l0.4-1.4c0-0.1,0.1-0.2,0.2-0.2c0.1,0,0.2,0,0.3,0.2
		l0.6,1.1l5-0.4c0-0.8-0.1-3.3-1.9-6c-1.2-1.7-3.1-3.5-5-5.2c-1.6-1.5-3.3-3-4.5-4.5c-0.7-0.9-1.6-2.1-2.5-3.4
		c-2-2.9-4.6-6.6-5.8-6.5c-1.4,0.2-3.4,2.4-3.9,3c-0.1,0.1-0.3,0.1-0.4,0c-0.4-0.3-0.6-0.3-0.7-0.3c0,0,0,0,0,0.1
		c0,0.1,0,0.2-0.1,0.3c-0.1,0.1-0.2,0-0.3,0c-1.2-1.1-2.5-1.5-4-1.3C15,14.3,9.2,22.4,4.1,30l2.4,3.4l1-0.4
		c8.2-3.6,17.6-7.8,18.9-12.4c0.4-1.3,0.1-2.6-0.8-4c-0.1-0.1-0.1-0.2,0-0.3c0.1-0.1,0.2-0.1,0.3-0.1c0.2,0.1,0.3,0.1,0.3,0.1
		c0,0,0-0.1-0.1-0.3c0-0.1,0-0.2,0-0.2c0-0.1,0.1-0.1,0.2-0.2C26.9,15.4,27.3,15.3,27.7,15.3z M49.6,37.6L49.6,37.6L49.6,37.6z"/>
	<path fill="#15161A" d="M42.4,27.4c0,0-0.1,0-0.1,0c-0.1-0.1-3.8-1.6-4.8-2.7c-1-1.1-2.3-4.9-2.4-5c0-0.1,0-0.3,0.1-0.3
		c0.1-0.1,0.3,0,0.4,0.1c0,0,2.6,3.1,3.2,3.8c0.6,0.6,3.8,3.7,3.8,3.7c0.1,0.1,0.1,0.3,0,0.4C42.6,27.4,42.5,27.4,42.4,27.4z
		 M36.3,21.2c0.5,1.2,1.2,2.6,1.7,3.2c0.5,0.5,1.8,1.3,2.9,1.8c-1-1-2.3-2.2-2.6-2.6C38,23.2,37.1,22.1,36.3,21.2z"/>
</g>
</svg>
