<?xml version="1.0" encoding="utf-8"?>
<!-- Generator: Adobe Illustrator 18.1.1, SVG Export Plug-In . SVG Version: 6.00 Build 0)  -->
<svg version="1.1" id="Шар_1" xmlns="http://www.w3.org/2000/svg" xmlns:xlink="http://www.w3.org/1999/xlink" x="0px" y="0px"
	 viewBox="0 0 50 50" enable-background="new 0 0 50 50" xml:space="preserve">
<g>
	<path fill="#15161A" d="M38.2,18.2C38.2,18.2,38.2,18.2,38.2,18.2c2,0,3.7-1.7,3.7-3.7c0-2-1.7-3.7-3.7-3.7H11.8
		c-2,0-3.7,1.7-3.7,3.7c0,2,1.6,3.7,3.7,3.7c0,0,0,0,0,0h3.7v1.1h-3.7h0c-2,0-3.7,1.7-3.7,3.7c0,2,1.6,3.7,3.7,3.7c0,0,0,0,0,0h3.7
		v12.1c0,0.3,0.2,0.5,0.5,0.5h16.8c0.1,0,0.1,0,0.2,0c0,0,0,0,0,0c0.1,0,0.1-0.1,0.2-0.1l3.2-3.2c0,0,0.1-0.1,0.1-0.2
		c0-0.1,0-0.1,0-0.2v-9h1.6c2,0,3.7-1.7,3.7-3.7s-1.7-3.7-3.7-3.7h-1.6v-1.1L38.2,18.2L38.2,18.2z M35.5,35h-2.6
		c-0.3,0-0.5,0.2-0.5,0.5v2.6H16.6v-20h19V35z M33.4,36.1h1.4l-1.4,1.4V36.1z M9.2,22.9c0-1.5,1.2-2.6,2.6-2.6s2.6,1.2,2.6,2.6
		s-1.2,2.6-2.6,2.6S9.2,24.3,9.2,22.9L9.2,22.9z M14.4,25.5c0.7-0.7,1.1-1.6,1.1-2.6c0-1-0.4-2-1.1-2.6h1.1v5.3H14.4z M38.2,20.3
		c1.5,0,2.6,1.2,2.6,2.6s-1.2,2.6-2.6,2.6h-1.6v-5.3L38.2,20.3z M38.2,11.8c1.5,0,2.6,1.2,2.6,2.6s-1.2,2.6-2.6,2.6c0,0,0,0,0,0
		H14.4c0.7-0.7,1.1-1.6,1.1-2.6c0-1-0.4-2-1.1-2.6H38.2z M9.2,14.5c0-1.5,1.2-2.6,2.6-2.6s2.6,1.2,2.6,2.6s-1.2,2.6-2.6,2.6
		S9.2,15.9,9.2,14.5z"/>
	<path fill="#15161A" d="M13.4,22.9c0-0.9-0.7-1.6-1.6-1.6c-0.9,0-1.6,0.7-1.6,1.6s0.7,1.6,1.6,1.6C12.7,24.5,13.4,23.8,13.4,22.9z
		 M11.3,22.9c0-0.3,0.2-0.5,0.5-0.5c0.3,0,0.5,0.2,0.5,0.5c0,0.3-0.2,0.5-0.5,0.5C11.5,23.4,11.3,23.2,11.3,22.9z"/>
	<path fill="#15161A" d="M13.4,14.5c0-0.9-0.7-1.6-1.6-1.6c-0.9,0-1.6,0.7-1.6,1.6c0,0.9,0.7,1.6,1.6,1.6
		C12.7,16,13.4,15.3,13.4,14.5z M11.3,14.5c0-0.3,0.2-0.5,0.5-0.5c0.3,0,0.5,0.2,0.5,0.5c0,0.3-0.2,0.5-0.5,0.5
		C11.5,15,11.3,14.8,11.3,14.5z"/>
	<path fill="#15161A" d="M19.8,31.5C19.8,31.5,19.8,31.5,19.8,31.5c0.1,0.1,0.1,0.1,0.1,0.2c0,0,0,0.1,0.1,0.1c0,0,0,0,0,0
		c0,0,0,0,0.1,0c0,0,0,0,0.1,0c0.1,0,0.1,0,0.2,0h0h12.6c0,0,0,0,0.1,0c0,0,0.1,0,0.1,0c0,0,0.1,0,0.1,0c0,0,0,0,0,0c0,0,0,0,0,0
		c0,0,0.1-0.1,0.1-0.1c0,0,0,0,0-0.1c0,0,0-0.1,0-0.1c0,0,0-0.1,0-0.1c0,0,0,0,0-0.1c0,0,0,0,0,0c0,0,0-0.1,0-0.1c0,0,0-0.1,0-0.1
		c0,0,0,0,0,0l-4.7-7.4c0,0,0,0,0,0c0,0-0.1-0.1-0.1-0.1c0,0,0-0.1-0.1-0.1c0,0,0,0,0,0c0,0-0.1,0-0.1,0c0,0-0.1,0-0.1,0
		c0,0-0.1,0-0.1,0c0,0-0.1,0-0.1,0c0,0-0.1,0-0.1,0c0,0,0,0-0.1,0c0,0,0,0,0,0c0,0,0,0-0.1,0.1c0,0-0.1,0-0.1,0.1c0,0,0,0,0,0
		l-2.5,3.8l-1.1-1.7c0,0,0,0,0,0c0,0,0,0-0.1-0.1c0,0,0-0.1-0.1-0.1c0,0,0,0,0,0c0,0,0,0-0.1,0c0,0-0.1,0-0.1,0c0,0-0.1,0-0.1,0
		c0,0-0.1,0-0.1,0c0,0-0.1,0-0.1,0c0,0,0,0-0.1,0c0,0,0,0,0,0c0,0,0,0-0.1,0.1c0,0-0.1,0-0.1,0.1c0,0,0,0,0,0L19.8,31c0,0,0,0,0,0
		c0,0,0,0.1,0,0.1c0,0,0,0.1,0,0.1c0,0,0,0,0,0c0,0,0,0,0,0.1C19.7,31.4,19.7,31.4,19.8,31.5L19.8,31.5z M25.7,28.8
		C25.7,28.8,25.7,28.8,25.7,28.8l2.5-3.8l3.8,5.9h-7.6L25.7,28.8z M23.1,30.8h-1.9l2.5-3.8l0.9,1.4L23.1,30.8z"/>
	<path fill="#15161A" d="M21.3,24.5c0.9,0,1.6-0.7,1.6-1.6s-0.7-1.6-1.6-1.6s-1.6,0.7-1.6,1.6S20.4,24.5,21.3,24.5z M21.3,22.4
		c0.3,0,0.5,0.2,0.5,0.5c0,0.3-0.2,0.5-0.5,0.5s-0.5-0.2-0.5-0.5C20.8,22.6,21,22.4,21.3,22.4z"/>
</g>
</svg>
