<?xml version="1.0" encoding="utf-8"?>
<!-- Generator: Adobe Illustrator 18.1.1, SVG Export Plug-In . SVG Version: 6.00 Build 0)  -->
<svg version="1.1" id="Шар_1" xmlns="http://www.w3.org/2000/svg" xmlns:xlink="http://www.w3.org/1999/xlink" x="0px" y="0px"
	 viewBox="0 0 50 50" enable-background="new 0 0 50 50" xml:space="preserve">
<g>
	<path fill="#15161A" d="M41,15.6h-5.2l3-2.4c0.1-0.1,0.3-0.2,0.4-0.4c0.2-0.4,0.3-0.8,0.1-1.3l-2-5.5C37,5.3,36.2,5,35.5,5.2
		l-1.2,0.4C34,5.7,33.8,6,33.9,6.3c0.1,0.3,0.4,0.5,0.7,0.4l1.2-0.4c0.1,0,0.3,0,0.3,0.2l2,5.5c0.1,0.2-0.1,0.3-0.2,0.4l-3.3,0.4
		c-1.1,0.1-2.2,0.5-3.1,1.1l-2.2,1.5c0,0-0.4-0.1-0.4-0.1v-1.7c0-0.6-0.1-1.2-0.4-1.7l1-1.9c0.6-1.1,1.5-1.9,2.6-2.4
		c0.3-0.1,0.4-0.5,0.3-0.8s-0.5-0.4-0.8-0.3c-1.3,0.6-2.4,1.6-3.1,2.9l-0.7,1.4C27.2,10,26.2,9.5,25,9.5c-1.2,0-2.2,0.5-2.9,1.3
		l-0.7-1.4c-0.8-1.5-2.2-2.7-3.8-3.2l-3-1C13.8,5,13,5.3,12.7,6.1l-2,5.5c-0.2,0.4-0.1,0.9,0.1,1.3c0.1,0.1,0.2,0.2,0.3,0.3
		c0,0,3,2.4,3,2.4H9c-0.8,0-1.5,0.7-1.5,1.5v6.3c0,0.8,0.7,1.5,1.5,1.5h1.2v18.2c0,1,0.8,1.7,1.7,1.7h26.1c1,0,1.7-0.8,1.7-1.7v-6.7
		c0.2,0,0.4,0,0.6,0c0,0,0.1,0,0.1,0c0.5,0,1-0.4,1.1-0.9c0.3-1.6,0.8-5.7-0.9-8c-0.3-0.3-0.6-0.6-0.9-0.8v-1.8H41
		c0.8,0,1.5-0.7,1.5-1.5v-6.3C42.5,16.3,41.9,15.6,41,15.6L41,15.6z M32.3,14.8c0.8-0.5,1.7-0.8,2.6-0.9l1.6-0.2L34,15.6h-3
		L32.3,14.8z M31.6,19.6c-0.1,1.7,0.7,3.2,2.2,4l0.2,0.1h-4.3v-4.2c0-0.3-0.3-0.6-0.6-0.6s-0.6,0.3-0.6,0.6v4.2h-7.2v-7h8.8
		C31.1,17.3,31.7,18.4,31.6,19.6L31.6,19.6z M25,10.7c1.6,0,2.9,1.3,2.9,2.9v1.5c-0.2,0.1-0.4,0.2-0.4,0.5c0,0,0,0.1,0,0.1h-5.4v-2
		C22.1,12,23.4,10.7,25,10.7z M11.8,12l2-5.5c0.1-0.1,0.2-0.2,0.3-0.2l3,1c1.4,0.5,2.5,1.4,3.2,2.7l1,1.9c-0.3,0.5-0.4,1.1-0.4,1.7
		v2l-2.5-1.7c-0.9-0.6-2-1-3.1-1.1L12,12.4C11.8,12.3,11.7,12.2,11.8,12L11.8,12z M13.6,13.7l1.6,0.2c0.9,0.1,1.8,0.4,2.6,0.9
		l1.2,0.8h-3L13.6,13.7z M8.6,23.4v-6.3c0-0.2,0.2-0.3,0.3-0.3h11.3v7H9C8.8,23.7,8.6,23.6,8.6,23.4L8.6,23.4z M11.3,43.1V24.9h8.9
		v0.9c0,0.3,0.3,0.6,0.6,0.6c0.3,0,0.6-0.3,0.6-0.6v-0.9h7.2v18.8h-7.2V28.7c0-0.3-0.3-0.6-0.6-0.6s-0.6,0.3-0.6,0.6v15.1h-8.3
		C11.6,43.7,11.3,43.4,11.3,43.1L11.3,43.1z M38.7,43.1c0,0.3-0.3,0.6-0.6,0.6h-8.3V24.9h5.5c0.3,0.5,0.4,1.1,0.4,1.8l-0.1,1
		c-0.2,0.4-0.4,0.8-0.4,1.2c-0.8,0-1.5,0.2-2.1,0.7c-0.7,0.5-1.1,1.3-1.1,2.2c-0.1,0.9,0.3,1.8,0.9,2.4c1.4,1.5,3.9,2,5.8,2.2
		L38.7,43.1L38.7,43.1z M40.5,35.2c-1.2,0-5.1-0.1-6.8-1.9c-0.4-0.4-0.6-1-0.6-1.5c0-0.5,0.3-1,0.7-1.4c0.4-0.3,0.8-0.4,1.2-0.4
		c0.1,0,0.3,0,0.4,0c0.2,0,0.4,0,0.6-0.1c0.2-0.1,0.3-0.3,0.2-0.6c0-0.6,0.2-1.2,0.7-1.5c0.4-0.3,0.9-0.5,1.5-0.4
		c0.6,0.1,1.1,0.4,1.4,0.8C41.2,30.2,40.7,34,40.5,35.2L40.5,35.2z M38.7,26.2c0,0-0.1,0-0.1,0c-0.6-0.1-1.2,0-1.7,0.3
		c0-0.6-0.1-1.1-0.3-1.6h2.1L38.7,26.2z M41.4,23.4c0,0.2-0.2,0.3-0.3,0.3h-5.1c-0.3-0.4-0.8-0.8-1.3-1l-0.3-0.1
		c-1.1-0.6-1.7-1.7-1.6-2.9c0.1-1-0.2-2.1-0.9-2.9c0,0,0,0,0-0.1H41c0.2,0,0.3,0.2,0.3,0.3L41.4,23.4z"/>
</g>
</svg>
