<?xml version="1.0" encoding="utf-8"?>
<!-- Generator: Adobe Illustrator 18.1.1, SVG Export Plug-In . SVG Version: 6.00 Build 0)  -->
<svg version="1.1" id="Шар_1" xmlns="http://www.w3.org/2000/svg" xmlns:xlink="http://www.w3.org/1999/xlink" x="0px" y="0px"
	 viewBox="0 0 238 114" enable-background="new 0 0 238 114" xml:space="preserve">
<g>
	<g>
		<path fill="#FFEC00" d="M233.3,107.6v3.9h1.2c1.7,0,2.6-0.6,2.6-1.9c0-0.8-0.2-1.3-0.6-1.6c-0.4-0.2-0.9-0.4-1.7-0.4H233.3z
			 M233.3,103.3v3.5h1.1c0.7,0,1.2-0.1,1.6-0.4c0.4-0.3,0.6-0.7,0.6-1.4c0-1.1-0.8-1.7-2.4-1.7H233.3z M232.4,112.2v-9.7h1.8
			c1,0,1.8,0.2,2.3,0.5c0.6,0.4,0.9,1.1,0.9,2c0,1-0.5,1.7-1.4,2c1.3,0.4,1.9,1.2,1.9,2.4c0,1-0.3,1.7-0.9,2.2
			c-0.6,0.4-1.4,0.7-2.5,0.7H232.4z M230.1,107.3c0-1.1-0.4-2.1-1.2-2.9c-0.8-0.8-1.8-1.2-2.9-1.2c-1.1,0-2,0.4-2.8,1.3
			c-0.8,0.8-1.2,1.8-1.2,2.9c0,1.2,0.4,2.2,1.2,3c0.8,0.8,1.8,1.3,2.9,1.3c1.2,0,2.1-0.4,2.9-1.3
			C229.7,109.5,230.1,108.5,230.1,107.3z M231,107.3c0,1.4-0.5,2.6-1.4,3.6c-1,1-2.2,1.5-3.6,1.5c-1.4,0-2.6-0.5-3.5-1.5
			c-0.9-1-1.4-2.2-1.4-3.6c0-1.4,0.5-2.5,1.5-3.5c1-1,2.1-1.5,3.5-1.5c1.4,0,2.6,0.5,3.5,1.5C230.5,104.8,231,105.9,231,107.3z
			 M215.3,103.3v4h1.5c1.6,0,2.4-0.7,2.4-2c0-1.3-0.8-2-2.4-2H215.3z M214.4,112.2v-9.7h2.4c2.2,0,3.3,0.9,3.3,2.8
			c0,1.9-1.1,2.8-3.3,2.8h-1.6v4.2H214.4z M212.7,112.2h-5v-9.7h5v0.8h-4.1v3.5h3.7v0.8h-3.7v3.8h4.1V112.2z M204.6,112.2h-0.9v-8.9
			h-2v-0.8h4.9v0.8h-2V112.2z M200.7,102.5v9.7h-0.9v-8.4l-5.6,8.4h-1v-9.7h0.9v8.4l5.6-8.4H200.7z M187.9,103.8l-2.8,7.7h5.6
			L187.9,103.8L187.9,103.8z M184.3,111.4l3.3-8.9h0.8l3.3,8.9h0.6v2.5h-0.8v-1.7h-6.9v1.7h-0.8v-2.5H184.3z M177,112.2h-0.9v-9.7
			h0.9v4.3h4.8v-4.3h0.9v9.7h-0.9v-4.6H177V112.2z M173.8,107.3c0-1.1-0.4-2.1-1.2-2.9c-0.8-0.8-1.8-1.2-2.9-1.2
			c-1.1,0-2,0.4-2.8,1.3c-0.8,0.8-1.2,1.8-1.2,2.9c0,1.2,0.4,2.2,1.2,3c0.8,0.8,1.8,1.3,2.9,1.3c1.2,0,2.1-0.4,2.9-1.3
			C173.5,109.5,173.8,108.5,173.8,107.3z M174.8,107.3c0,1.4-0.5,2.6-1.4,3.6c-1,1-2.2,1.5-3.6,1.5c-1.4,0-2.6-0.5-3.5-1.5
			c-0.9-1-1.4-2.2-1.4-3.6c0-1.4,0.5-2.5,1.5-3.5c1-1,2.1-1.5,3.5-1.5c1.4,0,2.6,0.5,3.5,1.5S174.8,105.9,174.8,107.3z M163.7,112.2
			l-4.7-5v5h-0.9v-9.7h0.9v4.7l4.4-4.7h1.2l-4.5,4.7l4.7,5.1H163.7z M152.7,102.5v9.7h-0.9v-8.4l-5.6,8.4h-1v-9.7h0.9v8.4l5.6-8.4
			H152.7z M134.5,100.2c0,0.5,0.4,0.8,1.2,0.8c0.8,0,1.2-0.3,1.2-0.8h0.8c0,0.5-0.3,0.9-0.7,1.1c-0.4,0.2-0.8,0.4-1.3,0.4
			c-0.5,0-1-0.1-1.3-0.4c-0.4-0.3-0.6-0.7-0.7-1.1H134.5z M139.4,102.5v9.7h-0.9v-8.4l-5.6,8.4h-1v-9.7h0.9v8.4l5.6-8.4H139.4z
			 M130.2,112.2h-5v-9.7h5v0.8h-4.1v3.5h3.7v0.8h-3.7v3.8h4.1V112.2z M119,103.3v4h1.5c1.6,0,2.4-0.7,2.4-2c0-1.3-0.8-2-2.4-2H119z
			 M118.1,112.2v-9.7h2.4c2.2,0,3.3,0.9,3.3,2.8c0,1.9-1.1,2.8-3.3,2.8H119v4.2H118.1z M113.1,103.9l-1.7,4.3h3.4L113.1,103.9
			L113.1,103.9z M117.3,112.2h-0.9l-1.2-3.2h-4l-1.2,3.2H109l3.8-9.7h0.8L117.3,112.2z M108.1,112.2l-4.7-5v5h-0.9v-9.7h0.9v4.7
			l4.4-4.7h1.2l-4.5,4.7l4.7,5.1H108.1z M100.8,112.2h-5v-9.7h5v0.8h-4.1v3.5h3.7v0.8h-3.7v3.8h4.1V112.2z M88.4,112.2h-0.9v-9.7
			h6.4v9.7H93v-8.9h-4.6V112.2z M82.1,112.2h-0.9v-5l-3.8,5h-1.1l3.3-4.3c-0.9,0-1.7-0.2-2.3-0.6c-0.6-0.5-1-1.2-1-2.1
			c0-0.9,0.3-1.6,1-2.1c0.6-0.4,1.4-0.7,2.3-0.7h2.4V112.2z M77.3,105.3c0,0.7,0.3,1.3,0.8,1.6c0.4,0.2,1,0.3,1.8,0.3h1.2v-3.9h-1.4
			C78.1,103.3,77.3,104,77.3,105.3z M68,112.2l3.7-9.7h0.8l3.7,9.7h-0.9l-3.1-8.3H72l-3.1,8.3H68z M63.2,103.8l-2.8,7.7h5.6
			L63.2,103.8L63.2,103.8z M59.6,111.4l3.3-8.9h0.8l3.3,8.9h0.6v2.5h-0.8v-1.7h-6.9v1.7H59v-2.5H59.6z M48.8,112.2H48v-9.7h0.9v4.3
			h4.8v-4.3h0.9v9.7h-0.9v-4.6h-4.8V112.2z M46.1,102.5v9.7h-0.9v-8.4l-5.6,8.4h-1v-9.7h0.9v8.4l5.6-8.4H46.1z M31.1,109.6h1
			c0,0.6,0.2,1.1,0.5,1.4c0.4,0.4,0.8,0.5,1.4,0.5c0.6,0,1.1-0.2,1.5-0.6c0.4-0.4,0.6-0.8,0.6-1.4c0-0.4-0.1-0.8-0.3-1.1
			c-0.2-0.3-0.5-0.6-0.9-0.8c-0.2-0.1-0.5-0.1-0.8-0.2c0.2,0-0.1,0-0.9,0v-0.8h0.8c0.5,0,1-0.2,1.4-0.5c0.4-0.3,0.5-0.7,0.5-1.3
			c0-0.5-0.2-0.9-0.5-1.2c-0.3-0.3-0.7-0.5-1.2-0.5c-0.5,0-0.9,0.2-1.3,0.5c-0.4,0.3-0.6,0.7-0.6,1.2h-1c0-0.7,0.3-1.3,0.8-1.8
			c0.5-0.5,1.1-0.8,1.9-0.8c0.8,0,1.4,0.2,2,0.7c0.5,0.5,0.8,1.1,0.8,1.9c0,1-0.4,1.7-1.3,2.1c1.1,0.5,1.6,1.3,1.6,2.5
			c0,0.8-0.3,1.5-0.9,2c-0.6,0.5-1.3,0.8-2.1,0.8c-0.8,0-1.5-0.3-2.1-0.8C31.4,111.1,31.1,110.4,31.1,109.6z M26.5,103.9l-1.7,4.3
			h3.4L26.5,103.9L26.5,103.9z M30.7,112.2h-0.9l-1.2-3.2h-4l-1.2,3.2h-0.9l3.8-9.7h0.8L30.7,112.2z M19.5,112.2v-9.7h4.6v0.8h-3.7
			v8.9H19.5z M14.5,103.9l-1.7,4.3h3.4L14.5,103.9L14.5,103.9z M18.7,112.2h-0.9l-1.2-3.2h-4l-1.2,3.2h-0.9l3.8-9.7h0.8L18.7,112.2z
			 M5.2,112.2H4.4L1,103.6H0.9c0,0.4,0,0.6,0,0.6v8.1H0v-9.7h1.4l3.4,8.6h0.1l3.4-8.6h1.4v9.7H8.7v-8.1c0,0,0-0.2,0-0.6H8.7
			L5.2,112.2z"/>
	</g>
	<path fill-rule="evenodd" clip-rule="evenodd" fill="#FFFFFF" d="M43.2,51.6c0.1-3.1,0.2-6.3,0.5-9.6c0.3-3.3,0.6-6.5,1.1-9.7
		c-1.5,3.9-3,7.5-4.6,11c-1.6,3.4-3.2,6.6-4.9,9.6c1.2-0.2,2.5-0.4,3.9-0.6C40.5,52,41.9,51.8,43.2,51.6 M62.6,72.3
		c-2.8,0.6-5.4,1.3-7.7,2.3c-1.4,0.6-2.9,1.4-4.3,2.2c-1.4,0.9-2.8,1.8-4,3c-1.3,1.1-2.4,2.3-3.5,3.7c-1.1,1.3-1.9,2.8-2.7,4.3
		c-0.5,1-0.7,1.9-0.6,2.7c0.1,0.7,0.6,1.2,1.5,1.4c1.8,0.4,3.8,0.3,6.1-0.3c2.2-0.5,4.5-1.5,6.8-2.8c2.3-1.4,4.5-3.1,6.7-5.2
		c2.1-2.1,4-4.6,5.6-7.3c0.9-1.6,1.6-3.1,2.3-4.6C66.7,71.7,64.6,71.9,62.6,72.3z M78.6,78.5c0.1-0.3,0.1-0.6,0.1-0.9
		c0.1-1.4-0.5-2.6-1.6-3.7c-0.5-0.5-1.3-1-2.2-1.3c-1.4,0.7-1.9,1.6-1.1,2.7C74.9,76.7,76.5,77.8,78.6,78.5z M77.8,71.7
		c0.4,0.3,0.8,0.7,1.2,1c0.7,0.7,1.2,1.5,1.5,2.3c0.3,0.8,0.5,1.6,0.5,2.4c0,0.6-0.1,1.3-0.3,1.9c11.1,2.8,31.2-1,46.6-8.8
		C125.2,70.3,90.3,68.8,77.8,71.7z M62,49c0.9-0.6,1.7-1.1,2.5-1.5c1.6-0.8,3-1,4.4-0.8c1.3,0.2,2.3,1,2.9,2.5
		c0.2,0.6,0.1,1.3-0.1,2.3c-0.2,0.9-0.6,1.9-1.1,2.8c-0.5,1-1.1,1.9-1.8,2.8c-0.7,0.9-1.4,1.7-2.2,2.4c1.7-0.1,3,0,4,0.5
		c0.9,0.5,1.6,1,1.9,1.6c0.5,1.5,0.6,3.1,0.4,4.9c-0.1,1-0.3,2-0.6,3c0.2,0,0.4,0.1,0.6,0.1c1.3,0.2,2.5,0.6,3.5,1.2
		c0,0,0.1,0.1,0.1,0.1c10.3-2.9,36.2-2,51.8-1c12-6.3,20.9-15,20.1-24.7C146.8,25.9,120.4,26,106.8,28C82.4,31.5,69.5,40.5,62,49z
		 M31.2,55.3c-0.9,0-1.6-0.1-2-0.4s-0.6-0.7-0.5-1.1c0.1-0.5,0.4-0.9,0.8-1.1c0.3,0.1,0.6,0.2,1.1,0.3c0.5,0.1,1,0.1,1.5,0.1h0.6
		c2.5-4.1,4.9-8.5,7-13.2c2.1-4.7,3.9-9.4,5.4-14.1c0.9-6.4,2.1-9.6,3.6-9.6c0.6,0,0.9,0.6,0.8,1.8c0,1.2-0.5,3.3-1.5,6.2
		c-0.7,4.4-1.2,8.9-1.6,13.5c-0.4,4.7-0.6,9.1-0.6,13.4c0.3,0,0.5-0.1,0.8-0.1c0.3,0,0.5,0,0.8,0c1.6,0,2.7,0.2,3.3,0.6
		c0.6,0.4,0.8,0.8,0.7,1.3c-0.1,0.3-0.2,0.6-0.5,0.9c-0.3,0.2-0.5,0.4-0.8,0.5c-0.2-0.2-0.7-0.4-1.4-0.6c-0.7-0.1-1.6-0.2-2.6-0.2
		h-0.2c0,1.6,0.1,3.1,0.2,4.4c0.1,1.3,0.3,2.5,0.6,3.4c0.2,0.9,0.5,1.7,0.9,2.2c0.4,0.5,0.8,0.8,1.2,0.8c0.2,0,0.4,0,0.7-0.1
		c3.8-3.4,6.1-18.9,28-29.6c17.1-8.3,65.3-19.4,72.1,7.7c2.7,10.8-6,20.6-18.5,27.6c5.4,0.4,9.1,0.7,9.6,0.7
		c10.7,1.1,21.1,2.2,31.7,4.6c-14-2.4-28.1-3.8-42.3-4.8c-16.1,8.7-37.9,13-50,9.8c-0.4,0.7-0.9,1.3-1.5,1.8
		c-0.8,0.7-1.7,1.2-2.9,1.6c-1.1,0.4-2.4,0.6-3.9,0.7c-0.3,0-0.7,0-1.1,0c-0.4,0-0.8-0.1-1.1-0.2c-0.4-0.1-0.7-0.1-1-0.2
		c-0.3-0.1-0.5-0.1-0.7-0.2c-0.3-0.1-0.6-0.3-0.8-0.6c-0.2-0.2-0.3-0.5-0.3-0.7c0-0.2,0.2-0.4,0.4-0.5c0.3-0.1,0.7-0.1,1.3,0.1
		c0.1,0.1,0.4,0.1,0.8,0.2c0.4,0.1,0.9,0.1,1.6,0c2.5,0,4.4-0.5,5.7-1.4c0.6-0.4,1.1-0.9,1.4-1.4c-2.3-0.9-4.1-2.1-5.3-3.7
		c-1.2-1.6-0.9-2.9,0.6-3.8c-0.6-0.1-1.2-0.3-1.8-0.4c0,0.1,0,0.1-0.1,0.2c-0.7,1.9-1.6,3.8-2.9,5.8c-1.2,1.9-2.6,3.7-4.1,5.5
		c-1.6,1.7-3.3,3.3-5.2,4.8c-1.9,1.5-3.9,2.7-6,3.7c-2.1,1-4.2,1.7-6.5,2.1c-2.2,0.4-4.5,0.5-6.8,0.2c-1-0.2-1.7-0.6-2.2-1.1
		c-0.5-0.6-0.8-1.3-0.9-2.1c-0.1-0.8,0-1.7,0.4-2.8c0.3-1,0.8-2.1,1.5-3.2c0.9-1.4,1.9-2.7,3.1-4c1.2-1.3,2.6-2.5,4.1-3.6
		c1.5-1.1,3.1-2.2,4.7-3.1c1.7-0.9,3.3-1.7,5-2.4c2.4-1,5.1-1.7,8-2.1c1.8-0.3,3.6-0.4,5.5-0.3c0.4-1.6,0.6-3,0.5-4.2
		c-0.1-1.5-0.7-2.5-1.7-3.3c-1-0.7-2.7-0.8-4.9-0.3c-0.5,0.3-1,0.8-1.6,1.4c-0.6,0.6-1.1,1-1.7,1.2c-0.3,0.2-0.7,0.2-1,0.2
		c-0.4,0-0.6-0.2-0.8-0.6c-0.1-0.2-0.1-0.5,0.1-0.7c0.2-0.3,0.4-0.5,0.7-0.8c0.3-0.3,0.7-0.5,1.1-0.8c0.4-0.2,0.9-0.5,1.3-0.6
		c0.4-0.2,0.7-0.3,0.9-0.4c0.2-0.1,0.4-0.2,0.6-0.3c0.9-0.5,1.7-1.2,2.4-2.1c0.7-0.8,1.3-1.7,1.9-2.6c0.5-0.9,0.9-1.8,1.2-2.7
		c0.3-0.9,0.4-1.6,0.4-2.2c-0.4-0.8-0.8-1.3-1.4-1.6c-0.6-0.2-1.2-0.3-1.9-0.1c-0.7,0.2-1.4,0.6-2.2,1.1c-0.8,0.6-1.5,1.2-2.3,1.9
		c-0.7,0.7-1.4,1.5-2.1,2.3c-0.7,0.8-1.2,1.6-1.7,2.4c-0.3,0.5-0.7,0.9-1.1,1.2c-0.4,0.8-0.8,1.5-1.2,2.1c-1,1.8-1.9,3.3-2.8,4.4
		c-0.9,1.1-1.7,1.9-2.4,2.4c-0.7,0.5-1.5,0.7-2.1,0.7c-0.7,0-1.3-0.2-1.9-0.7c-0.6-0.4-1-1.2-1.5-2.2c-0.4-1.1-0.7-2.5-0.9-4.2
		c-0.2-1.7-0.3-3.9-0.3-6.5c0,0,0-0.1,0-0.1c0,0,0,0,0-0.1c-1.5,0.2-3,0.4-4.7,0.7c-1.6,0.3-3.2,0.5-4.7,0.7
		c-2.1,3.5-4.3,6.6-6.5,9.3c-2.2,2.7-4.4,5-6.6,6.9c-2.2,1.9-4.4,3.3-6.6,4.2c-2.2,1-4.3,1.4-6.4,1.4c-1.4,0-2.6-0.3-3.7-0.9
		c-1.1-0.6-1.9-1.4-2.6-2.4c-0.7-1-1.1-2.3-1.3-3.8c-0.2-1.5-0.1-3.1,0.3-4.9c0.5-2.3,1.3-4.6,2.5-7c1.2-2.4,2.6-4.7,4.2-6.9
		c1.6-2.2,3.4-4.3,5.4-6.3c2-2,4-3.7,6-5.1c2.1-1.5,4.1-2.6,6.1-3.5c2-0.8,3.9-1.3,5.7-1.3c1.7,0,3,0.6,3.7,1.7
		c0.7,1.1,0.9,2.7,0.4,4.7c-0.4,1.9-1.2,3.9-2.5,5.8c-1.2,2-2.6,3.7-4.3,5.3c-1.6,1.6-3.3,2.9-5.2,3.9c-1.8,1-3.5,1.5-5.1,1.5
		c-1.4,0-2.4-0.4-3-1.2c-0.6-0.8-0.8-2-0.4-3.5c0.3-1.4,0.9-2.8,1.9-4.3c0.9-1.5,2.2-2.8,3.9-4c0.6-0.4,1.1-0.6,1.5-0.5
		c0.4,0.1,0.6,0.3,0.6,0.8c-0.6,0.4-1.2,0.9-1.8,1.4c-0.6,0.6-1.1,1.2-1.6,1.8c-0.5,0.6-0.9,1.3-1.2,1.9c-0.3,0.6-0.5,1.2-0.7,1.8
		c-0.2,1.1-0.2,1.9,0.2,2.4c0.4,0.5,1,0.7,1.9,0.7c1.2,0,2.4-0.4,3.8-1.2c1.4-0.8,2.7-1.8,4-3.1c1.2-1.2,2.3-2.6,3.3-4.1
		c0.9-1.5,1.6-2.9,1.9-4.2c0.3-1.6,0.3-2.7-0.3-3.5c-0.5-0.8-1.3-1.1-2.5-1.1c-1.4,0-2.9,0.4-4.6,1.1c-1.7,0.7-3.4,1.8-5.2,3.1
		c-1.8,1.3-3.6,2.8-5.3,4.6c-1.8,1.7-3.4,3.6-4.8,5.6c-1.5,2-2.7,4-3.8,6.1c-1.1,2.1-1.8,4.2-2.3,6.2c-0.3,1.6-0.5,3-0.3,4.2
		c0.1,1.2,0.5,2.2,1.1,3c0.6,0.8,1.3,1.4,2.2,1.7c0.9,0.4,1.9,0.6,3,0.6c1.8,0,3.7-0.5,5.6-1.4c1.9-0.9,3.8-2.2,5.7-3.9
		c1.9-1.6,3.8-3.6,5.7-5.9c1.9-2.3,3.7-4.8,5.4-7.5H31.2z"/>
	<path fill="#FFFFFF" d="M228.3,51.2c-0.4,0-0.8,0.1-1.2,0.4c-0.4,0.3-0.8,0.6-1.1,1.1c-0.4,0.5-0.7,1-1,1.7c-0.3,0.6-0.5,1.3-0.7,2
		c0.2,0.5,0.5,0.8,0.9,1.1c0.4,0.3,0.9,0.4,1.5,0.4c0.4,0,0.7-0.1,1.1-0.3c0.4-0.2,0.7-0.4,1-0.8c0.3-0.4,0.6-0.8,0.8-1.3
		c0.2-0.5,0.3-1.1,0.3-1.8c0-0.7-0.1-1.3-0.4-1.8C229.3,51.5,228.9,51.2,228.3,51.2 M236.9,54.4c0.7,0,1,0.5,0.8,1.5
		c-0.5,2-1.1,3.7-1.9,5.2c-0.8,1.5-1.6,2.7-2.5,3.6c-0.9,1-1.8,1.7-2.8,2.1c-1,0.5-1.9,0.7-2.7,0.7c-1.6,0-3-0.6-4-1.9
		c-1-1.3-1.5-3.2-1.5-5.8c0-1.5,0.2-3,0.6-4.3c0.4-1.3,0.9-2.4,1.5-3.4c0.6-0.9,1.3-1.7,2.1-2.2c0.8-0.5,1.6-0.8,2.5-0.8
		c0.6,0,1.1,0.1,1.5,0.3c0.4,0.2,0.7,0.5,1,0.9c0.3,0.4,0.5,0.8,0.6,1.4c0.1,0.5,0.2,1.1,0.2,1.7c0,1-0.2,1.8-0.5,2.6
		c-0.3,0.8-0.7,1.5-1.2,2.1c-0.5,0.6-1,1-1.7,1.4c-0.6,0.3-1.3,0.5-1.9,0.5c-0.5,0-1.1-0.1-1.6-0.3c-0.5-0.2-1-0.5-1.3-0.9v0.3
		c0,2,0.4,3.5,1.1,4.5c0.8,1,1.7,1.5,2.9,1.5c0.7,0,1.4-0.2,2.1-0.5c0.8-0.4,1.5-1,2.3-1.8c0.8-0.8,1.5-1.9,2.3-3.3
		C235.5,58.1,236.2,56.4,236.9,54.4z M208.6,58.4c0,0.3,0.1,0.6,0.2,0.8c0.5,0.2,1.1,0.3,1.8,0.3c0.8,0,1.6-0.2,2.3-0.5
		c0.7-0.3,1.3-0.7,1.8-1.2c0.5-0.5,0.9-1.1,1.2-1.8c0.3-0.7,0.4-1.4,0.4-2.2c0-1.5-0.6-2.2-1.8-2.2c-0.5,0-1,0.2-1.6,0.5
		c-0.6,0.3-1.2,0.8-1.8,1.4c-0.6,0.6-1.2,1.3-1.7,2.1c-0.6,0.8-1,1.7-1.5,2.6c0.1,0,0.2,0,0.3,0C208.4,58.4,208.5,58.4,208.6,58.4z
		 M211.3,31.1c-0.5,0-1,0.4-1.6,1.3c-0.6,0.9-1.1,2.1-1.6,3.8c-0.5,1.7-0.9,3.7-1.3,6.2c-0.4,2.4-0.6,5.2-0.7,8.4
		c0.8-0.3,1.6-0.9,2.4-1.9c0.8-0.9,1.6-2.1,2.2-3.4c0.7-1.4,1.2-2.9,1.6-4.5c0.4-1.7,0.6-3.4,0.6-5.2c0-1.7-0.2-2.9-0.5-3.6
		C212.1,31.5,211.7,31.1,211.3,31.1z M218.4,53.3c0,1.2-0.2,2.3-0.7,3.3c-0.5,1-1.1,1.9-1.8,2.6c-0.8,0.7-1.6,1.3-2.6,1.7
		c-1,0.4-2,0.6-3.1,0.5c0.4,0.5,0.9,0.9,1.4,1.3c0.5,0.4,1,0.8,1.6,1.1c0.5,0.3,1.1,0.5,1.6,0.7c0.5,0.2,1,0.3,1.5,0.3
		c0.6,0,1.1-0.1,1.7-0.4c0.5-0.2,1-0.7,1.6-1.5c0.5-0.7,1.1-1.8,1.7-3.2c0.6-1.4,1.2-3.2,2-5.4c0.7,0,1,0.5,0.8,1.5
		c-0.6,2.2-1.1,4-1.7,5.5c-0.6,1.5-1.2,2.7-1.9,3.5c-0.6,0.9-1.3,1.5-2,1.9c-0.7,0.4-1.4,0.6-2.1,0.6c-0.7,0-1.6-0.2-2.5-0.6
		c-0.9-0.4-1.8-0.9-2.7-1.6c-0.9-0.6-1.6-1.4-2.3-2.2c-0.7-0.8-1.2-1.7-1.5-2.5c-0.2,0.6-0.3,1.2-0.4,1.9c-0.1,0.6-0.2,1.3-0.2,1.9
		c0,0.7,0.1,1.3,0.2,1.9c-0.3,0.2-0.6,0.3-0.9,0.3c-0.3,0-0.6-0.1-0.9-0.4c-0.2-0.3-0.4-0.9-0.5-1.8c-0.1-0.7-0.2-1.4-0.3-2.3
		c-0.1-0.9-0.1-1.9-0.2-2.9c-0.1-1-0.1-2.1-0.1-3.1c0-1,0-2,0-3c-0.4-0.1-0.8-0.3-1.2-0.6c-0.4-0.3-0.6-0.6-0.7-1.1
		c-0.1-0.5,0.1-0.8,0.6-1.1c0.3,0.4,0.8,0.6,1.4,0.8c0.1-4,0.4-7.3,0.9-10.2c0.5-2.8,1.1-5.1,1.9-6.9c0.7-1.8,1.6-3.1,2.4-4
		c0.9-0.8,1.7-1.3,2.5-1.3c1.1,0,2,0.6,2.7,1.7c0.6,1.1,1,2.8,1,5c0,2.1-0.3,4.2-0.8,6.2c-0.6,2-1.3,3.8-2.2,5.4c-0.9,1.6-1.9,3-3,4
		c-1.1,1.1-2.2,1.8-3.3,2.1v0.8c0,0.8,0,1.7,0,2.6c0,0.9,0,1.9,0.1,2.8c0.3-1.3,0.9-2.6,1.5-3.8s1.4-2.3,2.2-3.2
		c0.8-0.9,1.7-1.7,2.6-2.2c0.9-0.6,1.7-0.8,2.5-0.8c1.2,0,2,0.4,2.5,1.2C218.1,51.1,218.4,52.1,218.4,53.3z M196.2,54.8
		c-0.1-1.1-0.4-2-1-2.6c-0.6-0.6-1.3-0.9-2.2-0.9c-0.8,0-1.5,0.2-2.2,0.7c-0.6,0.5-1.2,1.1-1.7,1.9c-0.5,0.8-0.8,1.7-1.1,2.7
		c-0.3,1-0.4,2-0.4,3.1c0,1.7,0.3,3,0.8,3.9c0.5,0.9,1.2,1.4,2,1.4c0.7,0,1.4-0.3,2.1-1c0.7-0.7,1.3-1.5,1.8-2.5
		c0-0.2,0-0.5-0.1-0.8c0-0.3,0-0.5,0-0.8c0-1.6,0.2-2.9,0.5-3.8C195.3,55,195.7,54.6,196.2,54.8z M198,54.9c0,0.8-0.1,1.4-0.3,1.7
		c-0.2,0.3-0.4,0.5-0.7,0.6c0,1.1-0.2,2.2-0.6,3.4c0.3,2.4,1,3.5,2.1,3.5c0.4,0,0.8-0.2,1.2-0.5c0.4-0.3,0.8-0.8,1.2-1.6
		c0.4-0.7,0.9-1.7,1.4-3c0.5-1.2,1.1-2.8,1.7-4.7c0.7,0,1,0.5,0.8,1.5c-0.5,2.1-1.1,3.9-1.6,5.3c-0.5,1.4-1,2.5-1.6,3.3
		c-0.5,0.8-1.1,1.4-1.7,1.8c-0.6,0.3-1.2,0.5-1.8,0.5c-1.6,0-2.7-1-3.3-2.9c-0.6,1-1.3,1.8-2.2,2.5c-0.8,0.7-1.8,1-2.7,1
		c-1.2,0-2.2-0.6-3.1-1.8c-0.8-1.2-1.2-2.9-1.2-5.2c0-1.4,0.2-2.8,0.6-4.2c0.4-1.4,0.9-2.6,1.6-3.7c0.7-1.1,1.5-1.9,2.4-2.6
		c0.9-0.6,1.9-1,3-1c0.8,0,1.5,0.2,2.1,0.5c0.6,0.3,1.1,0.7,1.5,1.3c0.4,0.5,0.7,1.2,0.9,1.9C197.9,53.3,198,54,198,54.9z
		 M170.1,36.5c-0.8,0-1.6,0.2-2.4,0.7c-0.3,0.6-0.5,1.2-0.6,1.8c-0.1,0.6-0.2,1.2-0.2,1.8c0,1.1,0.2,1.9,0.5,2.3
		c0.4,0.5,0.8,0.7,1.3,0.7c0.4,0,0.8-0.1,1.3-0.4c0.4-0.2,0.8-0.6,1.1-1c0.3-0.4,0.6-0.9,0.8-1.5c0.2-0.6,0.3-1.2,0.3-1.9
		c0-0.8-0.2-1.5-0.6-1.9C171.2,36.7,170.7,36.5,170.1,36.5z M161.5,71.5c-2.8,0-5.5-0.4-7.9-1.1c-2.4-0.7-4.5-1.8-6.2-3.2
		c-1.7-1.4-3.1-3.1-4.1-5.1c-1-2-1.5-4.4-1.5-7c0-2.5,0.5-5,1.4-7.5c0.9-2.5,2.2-4.8,3.8-7c1.6-2.2,3.5-4.3,5.6-6.2
		c2.2-1.9,4.5-3.5,7-4.9c2.5-1.4,5.1-2.5,7.8-3.2c2.7-0.8,5.4-1.2,8.1-1.2c1.9,0,3.6,0.2,5,0.6c1.4,0.4,2.5,0.9,3.3,1.6
		c0.8,0.7,1.4,1.5,1.8,2.5c0.4,1,0.6,2,0.6,3.2c0,1.5-0.3,3-0.9,4.5c-0.6,1.6-1.5,3.1-2.5,4.6c-1.1,1.5-2.3,2.9-3.7,4.3
		c-1.4,1.4-2.9,2.5-4.5,3.5c-1.6,1-3.2,1.8-4.9,2.4c-1.7,0.6-3.3,0.9-4.9,0.9c-2.1,0-3.7-0.5-4.9-1.6c-1.1-1-1.7-2.4-1.7-4.2
		c0-1,0.2-2.1,0.6-3.2c0.4-1.1,0.9-2.1,1.5-3.2c0.6-1,1.3-2,2.2-2.9c0.8-0.9,1.7-1.7,2.6-2.4c0.9-0.7,1.9-1.2,2.8-1.6
		s1.9-0.6,2.8-0.6c1.3,0,2.3,0.4,2.9,1.2s0.9,1.8,0.9,3.1c0,1.2-0.2,2.3-0.6,3.3c-0.4,1-0.9,1.9-1.5,2.7c-0.6,0.8-1.3,1.4-2.1,1.8
		c-0.8,0.5-1.5,0.7-2.3,0.7c-1.1,0-1.9-0.4-2.5-1.3c-0.5-0.8-0.8-1.9-0.8-3.3c0-0.6,0.1-1.1,0.2-1.7c0.1-0.6,0.3-1.2,0.5-1.7
		c-0.6,0.5-1.2,1.1-1.7,1.8c-0.5,0.6-1,1.3-1.4,2c-0.4,0.7-0.7,1.4-1,2.2c-0.2,0.7-0.4,1.4-0.4,2.1c0,1.4,0.4,2.5,1.1,3.1
		c0.8,0.6,1.9,1,3.4,1c1.3,0,2.7-0.3,4.1-0.8c1.4-0.5,2.8-1.2,4.1-2c1.3-0.8,2.6-1.8,3.8-3c1.2-1.1,2.3-2.4,3.2-3.6
		c0.9-1.3,1.6-2.6,2.2-4c0.5-1.4,0.8-2.7,0.8-4c0-0.9-0.2-1.7-0.5-2.5c-0.3-0.7-0.8-1.4-1.4-1.9c-0.6-0.5-1.5-0.9-2.5-1.3
		c-1-0.3-2.2-0.5-3.6-0.5c-2.6,0-5.2,0.4-7.7,1.1c-2.6,0.7-5,1.8-7.3,3c-2.3,1.3-4.5,2.8-6.5,4.6c-2,1.8-3.7,3.6-5.2,5.7
		c-1.5,2-2.6,4.1-3.4,6.3c-0.8,2.2-1.2,4.4-1.2,6.6c0,2.1,0.4,4.1,1.2,5.8c0.8,1.8,1.9,3.3,3.4,4.6c1.5,1.3,3.3,2.3,5.5,3
		c2.2,0.7,4.6,1.1,7.5,1.1c3,0,5.9-0.4,8.7-1.1c2.7-0.7,5.2-1.8,7.4-3.1c2.2-1.3,4.1-2.9,5.6-4.7c1.6-1.8,2.7-3.7,3.4-5.9
		c0.8,0,1.2,0.5,0.9,1.5c-0.4,1.5-1.1,3-2,4.4c-0.9,1.4-2.1,2.6-3.4,3.8c-1.3,1.2-2.8,2.2-4.5,3.1c-1.7,0.9-3.4,1.7-5.2,2.3
		c-1.8,0.6-3.7,1.1-5.6,1.5C165.3,71.3,163.4,71.5,161.5,71.5z"/>
	<path fill-rule="evenodd" clip-rule="evenodd" fill="#FFEC00" d="M123.4,83.2c-1.2-0.8-2.2-1.9-2.8-3.3c-0.6-1.4-1-2.8-1.4-4.2
		c-0.7-3.1-0.7-6.5-0.6-9.6c0.2-4.5,0.9-9.1,1.8-13.5c0.8-4.2,1.7-8.3,2.9-12.4c1-3.4,2.1-6.9,3.4-10.2l0,0l0,0
		c0.2-0.4,0.3-0.9,0.2-1.4c-0.1-0.5-0.4-0.7-0.9-0.9c-0.8-0.1-2-0.4-2.3-1.3c-0.1-0.2-0.1-0.4,0-0.7l0,0c0.2-0.6,1.3-1,1.8-1.2
		c1.1-0.4,2.3-0.7,3.4-1c0-0.1,0-0.2,0.1-0.3c1.2-3.2,2.6-6.3,4.1-9.4c1.7-3.3,3.4-6.6,5.2-9.8c0.2-0.3,0.6-0.7,0.9-0.9
		c0.6-0.5,1.3-0.9,1.9-1.3l0,0l0,0c0.5-0.3,1.1-0.7,1.6-1.1c0.4-0.3,0.9-0.5,1.3-0.6c0.6-0.1,1.2,0.1,1.3,0.8
		c0.1,0.5-0.3,0.9-0.7,1.1l0,0l0,0c-4.5,2-10.6,16.1-12.5,20.4c0,0.1-0.1,0.3-0.1,0.4c0.1,0,0.1,0,0.2,0l7.7-1.8
		c1.6-0.4,3.3-0.7,4.9-1.1c0.7-0.2,1.4-0.3,2.2-0.5c0.4-0.1,0.8-0.1,1.1,0.1l0.2,0.1l0,0.2c0.1,0.3-0.1,0.7-0.2,0.9
		c-0.2,0.5-0.5,0.8-1,1l0,0l0,0c-2.3,0.6-4.6,1.3-6.9,1.9c-2.9,0.9-5.9,1.7-8.8,2.5c-0.4,0.2-0.7,0.4-0.8,0.8l0,0l0,0
		c-1.2,3.1-2.4,6.3-3.4,9.4c-1.1,3.3-2.1,6.6-2.9,10c-1.2,5-2.1,10-2.7,15.1c-0.4,3.8-0.6,7.8,0,11.6c0.1,0.4,0.1,0.8,0.2,1.2
		c0.1,0.4,0.2,0.9,0.3,1.3c0.6,2.6,1.8,6.1,4.5,7.2c1.1,0.5,2.4,0.4,3.6,0.2c1.4-0.3,2.7-0.9,3.8-1.6c2.2-1.3,4.1-2.9,5.8-4.8
		c2-2.2,3.8-4.8,5.3-7.4c1.5-2.5,2.9-5.2,3.8-8c0.7-2,1.1-4.2,0.9-6.4c-0.3-1.1-0.8-2.9-2-3.4c-0.6-0.2-1.2-0.1-1.8,0.2l0,0l0,0
		c-0.4,0.1-0.8,0.4-1.1,0.7c-0.3,0.3-0.6,0.6-1,0.7c-0.7,0.2-1.2-0.2-1.2-0.9l0-0.1l0-0.1c0.1-0.4,0.4-0.8,0.7-1.1
		c0.2-0.2,0.5-0.4,0.7-0.6c0.3-0.3,0.7-0.5,1.1-0.8l0,0l0,0c0.2-0.1,0.5-0.2,0.8-0.2c1.6-0.4,3.1,0.6,4.3,1.7
		c0.9,0.9,2.3,2.3,2.5,3.6l0,0l0,0c0.2,2.8-0.4,5.7-1.4,8.3c-1.3,3.4-3.3,6.7-5.4,9.7c-2.1,3-4.5,6-7.3,8.4c-2.1,1.8-4.6,3.3-7.3,4
		C128.6,85.6,125.8,85,123.4,83.2 M109.5,40.9c0.1-0.2,0.3-0.3,0.5-0.4c0.4-0.1,0.8,0,1,0.3c0.3,0.3,0.4,0.8,0.2,1.2
		c-0.7,1.6-1.3,3.1-2,4.7c-0.4,0.9-0.7,1.8-1,2.7c1.2-2.3,2.7-4.4,4.2-6.4c0.8-1,1.7-2.1,2.6-3c0.6-0.7,1.3-1.4,2.1-1.9l0.1-0.1
		l0.1,0c0.8-0.2,1.9-0.4,2.8-0.2l0.1,0l0.1,0.1c0.2,0.1,0.3,0.2,0.3,0.4c0.1,0.3,0,0.5-0.1,0.8c-0.1,0.3-0.2,0.5-0.4,0.7
		c-0.1,0.2-0.3,0.4-0.5,0.6c-0.3,0.2-0.6,0.3-0.9,0.2c-0.8-0.1-1.7,0.5-2.3,1c-5.1,4.6-8.4,10.9-10.6,17.4c0,0.3-0.3,0.6-0.5,0.8
		l0,0l0,0c-0.3,0.2-0.6,0.4-0.8,0.6c-0.3,0.3-0.7,0.5-1,0.8c-0.1,0.2-0.4,0.4-0.7,0.4c-0.3,0-0.4-0.2-0.5-0.4
		c-0.2-0.3-0.2-0.6-0.1-1l0,0l0,0c1-2.7,1.9-5.3,2.7-8c0.6-1.9,1.1-3.8,1.5-5.8c0.1-0.4,0.1-0.8,0-1.2c-0.1-0.1-0.2-0.3-0.2-0.4l0,0
		l0,0c-0.1-0.2-0.2-0.4-0.1-0.7l0-0.3l0.2-0.1c0.1-0.1,0.3-0.2,0.4-0.3c0.2-0.2,0.5-0.4,0.7-0.6C108,42.3,108.8,41.6,109.5,40.9z
		 M96.1,45c-0.1-0.3-0.4-0.5-0.6-0.6c-0.5-0.2-1-0.2-1.5-0.1c-0.4,0.1-0.7,0.2-1.1,0.4c-2,1-3.9,4.2-5,6.1c-0.8,1.5-1.5,3-2.1,4.5
		c-0.5,1.3-0.9,2.6-1.2,3.9c0,0.4,0,0.7,0.1,1.1c0,0.2,0.2,0.6,0.3,0.7c0.1,0,0.2,0,0.3,0c0.2,0,0.4-0.2,0.5-0.3
		c1.9-1.9,3.6-4.1,5.1-6.4C92.7,51.3,94.4,48.2,96.1,45L96.1,45L96.1,45C96.1,45,96.1,45,96.1,45z M97.8,41.3c0.2,0,0.4,0,0.5-0.1
		c0.1,0,0.1,0,0.2,0l0.1,0c0.4-0.1,0.8-0.4,0.9-0.7l0,0l0,0c0.1-0.2,0.4-0.4,0.6-0.4c0.4-0.1,0.7,0.1,0.9,0.3
		c0.2,0.2,0.4,0.5,0.3,0.8l0,0l0,0c-0.7,1.8-1.3,3.6-2,5.4c-0.7,1.8-1.3,3.6-1.9,5.4c-0.5,1.5-0.9,3.1-1.2,4.7
		c-0.3,1.8-0.6,3.5-0.8,5.3c-0.2,1.7-0.4,3.3-0.4,5c-0.1,1.3-0.1,2.6,0,3.9l0,0l0,0c0,0.1,0,0.3,0,0.4c0,0.2,0.1,0.4,0.1,0.5
		c0.2,0.9,0.6,1.7,1.4,2.1c0.9,0.4,1.9,0.4,2.9,0.2c1.2-0.3,2.4-0.8,3.5-1.4c1-0.6,1.9-1.5,2.8-2.3c1.2-1.2,2.3-2.5,3.4-3.8
		c1.1-1.4,2.1-2.9,3-4.4c0.8-1.4,1.5-2.7,2.2-4.2l0,0l0,0c0.2-0.3,0.5-0.8,0.9-0.9l0.2,0l0.2,0.1c0.2,0.1,0.3,0.3,0.3,0.5
		c0.1,0.3,0,0.6-0.1,0.9l0,0l0,0c-0.6,1.6-1.3,3.1-2.1,4.6c-0.9,1.8-2,3.5-3.3,5.1l0,0c-1.1,1.4-2.2,2.7-3.4,3.9
		c-0.9,0.9-1.9,1.8-3,2.5c-0.5,0.3-1,0.6-1.5,0.8c-0.5,0.2-1.1,0.4-1.7,0.5c-0.9,0.2-1.8,0.3-2.6,0.1c-0.8-0.1-1.5-0.3-2.2-0.6
		c-0.9-0.3-1.6-0.8-2.1-1.6c-0.5-0.8-0.8-1.7-1-2.6c-0.2-1-0.2-2.1-0.2-3.2c0-1.4,0-2.8,0.1-4.3c0.1-1.5,0.3-3,0.4-4.5
		c0.2-1.4,0.4-2.7,0.7-4.1c0.3-1.3,0.6-2.7,1-4c0.1-0.2,0.1-0.5,0.2-0.7c-0.3,0.4-0.5,0.8-0.8,1.2c-1.1,1.6-2.2,3.2-3.3,4.7
		c-1.1,1.5-2.3,3-3.6,4.5c-1,1.2-2.1,2.3-3.2,3.3c-0.4,0.4-0.9,0.7-1.4,0.8c-0.4,0.1-0.8,0.1-1.1-0.1c-0.8-0.3-1.1-1.1-1.3-1.9
		c-0.4-1.6,0-3.4,0.5-4.9c0.8-2.3,2-4.5,3.3-6.5c1.2-2,2.6-3.9,4.2-5.6c1.2-1.3,2.5-2.6,4-3.6l0,0l0,0c0.3-0.2,0.7-0.4,1-0.6
		c0.4-0.2,0.8-0.3,1.2-0.4c0.5-0.1,0.9-0.2,1.4-0.2C96.9,41.2,97.3,41.2,97.8,41.3z"/>
</g>
</svg>
